<svg width="448" height="397" viewBox="0 0 448 397" fill="none" xmlns="http://www.w3.org/2000/svg">
<path d="M175 166.99C175 165.553 175.618 164.186 176.696 163.237L188.574 152.779L195.361 146.803L197.058 145.309V145.309C197.262 145.107 197.252 144.775 197.036 144.586L178.016 127.881L176.482 126.362C175.534 125.423 175 124.144 175 122.809V104C175 101.239 177.239 99 180 99H203.154H224.296C227.058 99 229.296 101.239 229.296 104V123.573C229.296 125.043 228.65 126.438 227.528 127.388L207.245 144.571C207.018 144.763 207.015 145.113 207.238 145.309V145.309L208.935 146.803L215.722 152.779L227.6 163.237C228.679 164.186 229.296 165.553 229.296 166.99V185.625C229.296 188.386 227.058 190.625 224.296 190.625H180C177.239 190.625 175 188.386 175 185.625V166.99Z" fill="#FDF151"/>
<path d="M276.08 395.527H229.433C228.523 395.527 227.649 395.166 227.006 394.522C226.362 393.878 226 393.005 226 392.094V323.433C226 322.523 226.362 321.649 227.006 321.006C227.649 320.362 228.523 320 229.433 320H298.094C299.005 320 299.878 320.362 300.522 321.006C301.166 321.649 301.527 322.523 301.527 323.433V370.08C301.529 370.526 301.443 370.967 301.273 371.38C301.104 371.792 300.855 372.167 300.54 372.483L278.483 394.54C278.167 394.855 277.792 395.104 277.38 395.273C276.967 395.443 276.526 395.529 276.08 395.527V395.527Z" stroke="#3775F7" stroke-width="2" stroke-linecap="round" stroke-linejoin="round"/>
<path fill-rule="evenodd" clip-rule="evenodd" d="M326.749 189.209C326.556 188.865 326.459 188.476 326.467 188.082C326.476 187.689 326.59 187.305 326.798 186.97L326.799 186.968L339.063 167.058C339.259 166.733 339.536 166.463 339.868 166.275C340.203 166.085 340.582 165.986 340.967 165.986C341.352 165.986 341.731 166.085 342.065 166.275C342.397 166.463 342.674 166.733 342.87 167.058L355.135 186.968L355.136 186.971C355.344 187.305 355.457 187.689 355.466 188.082C355.475 188.476 355.378 188.865 355.185 189.209C354.991 189.553 354.709 189.84 354.367 190.04C354.025 190.24 353.635 190.345 353.238 190.346L328.695 190.346C328.298 190.345 327.909 190.24 327.567 190.04C327.225 189.84 326.942 189.553 326.749 189.209Z" fill="#66D879"/>
<rect x="22.25" y="161.25" width="37.4793" height="48.5366" rx="1.75" fill="#D9D9D9" stroke="#D9D9D9" stroke-width="0.5"/>
<rect x="406" y="132" width="41" height="53.519" rx="1" stroke="#D9D9D9" stroke-width="2"/>
<path fill-rule="evenodd" clip-rule="evenodd" d="M105.614 240.527C105.194 239.778 104.982 238.932 105.001 238.075C105.02 237.219 105.268 236.385 105.72 235.656L105.723 235.651L132.406 192.333C132.832 191.625 133.436 191.038 134.158 190.629C134.886 190.217 135.709 190 136.548 190C137.386 190 138.209 190.217 138.938 190.629C139.66 191.038 140.263 191.625 140.689 192.333L167.373 235.651L167.376 235.657C167.827 236.385 168.075 237.22 168.094 238.075C168.113 238.932 167.902 239.778 167.481 240.527C167.061 241.276 166.447 241.9 165.702 242.335C164.958 242.769 164.11 242.999 163.247 243L109.849 243C108.985 242.999 108.137 242.769 107.393 242.335C106.649 241.9 106.035 241.276 105.614 240.527Z" stroke="#66D879" stroke-width="2" stroke-linecap="round" stroke-linejoin="round"/>
<path d="M400.499 86H428.909C429.464 86 429.995 85.7797 430.388 85.3876C430.78 84.9955 431 84.4636 431 83.9091V42.0909C431 41.5364 430.78 41.0045 430.388 40.6124C429.995 40.2203 429.464 40 428.909 40H387.091C386.536 40 386.005 40.2203 385.612 40.6124C385.22 41.0045 385 41.5364 385 42.0909V70.5011C384.999 70.7726 385.052 71.0417 385.155 71.2928C385.258 71.544 385.41 71.7723 385.601 71.9648L399.035 85.3988C399.228 85.5904 399.456 85.742 399.707 85.8452C399.958 85.9483 400.227 86.0009 400.499 86Z" fill="#3775F7"/>
<path d="M92 87.8734C92 86.3807 92.642 84.9602 93.7623 83.9738L101.75 76.9409L106.625 72.6487L107.844 71.5757V71.5757C107.99 71.4306 107.983 71.1919 107.828 71.0558L94.1667 59.0571L93.5403 58.437C92.5546 57.4612 92 56.1317 92 54.7446V43.5082C92 40.6387 94.3262 38.3125 97.1957 38.3125H112.222H125.804C128.674 38.3125 131 40.6387 131 43.5082V55.2195C131 56.7468 130.328 58.1967 129.163 59.184L115.161 71.045C114.998 71.1833 114.996 71.4343 115.156 71.5757V71.5757L116.375 72.6487L121.25 76.9409L129.238 83.9738C130.358 84.9602 131 86.3807 131 87.8734V98.9293C131 101.799 128.674 104.125 125.804 104.125H97.1957C94.3262 104.125 92 101.799 92 98.9293V87.8734Z" stroke="#FDF151" stroke-width="1.73191"/>
<path d="M223.5 1H245.2C246.194 1.00011 247 1.80585 247 2.7998V23.7998C247 37.1651 236.165 48 222.8 48H201.8C200.806 47.9999 200 47.1942 200 46.2002V24.5C200 11.5213 210.521 1 223.5 1Z" stroke="#D68758" stroke-width="2"/>
</svg>
