<svg width="35" height="34" viewBox="0 0 35 34" fill="none" xmlns="http://www.w3.org/2000/svg">
<path d="M22.5603 33.4431H1.54655C1.13638 33.4431 0.743009 33.2829 0.452974 32.9979C0.16294 32.7128 0 32.3261 0 31.923V1.52014C0 1.11697 0.16294 0.730321 0.452974 0.445239C0.743009 0.160158 1.13638 0 1.54655 0H32.4776C32.8877 0 33.2811 0.160158 33.5711 0.445239C33.8612 0.730321 34.0241 1.11697 34.0241 1.52014V22.1751C34.0248 22.3725 33.9859 22.568 33.9096 22.7506C33.8333 22.9332 33.7211 23.0992 33.5795 23.2392L23.6429 33.0061C23.5005 33.1453 23.3316 33.2556 23.1459 33.3306C22.9601 33.4056 22.7611 33.4438 22.5603 33.4431Z" fill="#3775F7"/>
</svg>
