<svg width="36" height="35" viewBox="0 0 36 35" fill="none" xmlns="http://www.w3.org/2000/svg">
<path d="M23.5603 34.4431H2.54655C2.13638 34.4431 1.74301 34.2829 1.45297 33.9979C1.16294 33.7128 1 33.3261 1 32.923V2.52014C1 2.11697 1.16294 1.73032 1.45297 1.44524C1.74301 1.16016 2.13638 1 2.54655 1H33.4776C33.8877 1 34.2811 1.16016 34.5711 1.44524C34.8612 1.73032 35.0241 2.11697 35.0241 2.52014V23.1751C35.0248 23.3725 34.9859 23.568 34.9096 23.7506C34.8333 23.9332 34.7211 24.0992 34.5795 24.2392L24.6429 34.0061C24.5005 34.1453 24.3316 34.2556 24.1459 34.3306C23.9601 34.4056 23.7611 34.4438 23.5603 34.4431Z" stroke="#3775F7" stroke-linecap="round" stroke-linejoin="round"/>
</svg>
