<svg width="64" height="65" viewBox="0 0 64 65" fill="none" xmlns="http://www.w3.org/2000/svg">
<path d="M42.1153 64.1466H3.01625C2.25307 64.1466 1.52115 63.8434 0.981496 63.3038C0.441845 62.7641 0.138672 62.0322 0.138672 61.269V3.71742C0.138672 2.95424 0.441845 2.22232 0.981496 1.68267C1.52115 1.14302 2.25307 0.839844 3.01625 0.839844H60.5678C61.331 0.839844 62.0629 1.14302 62.6026 1.68267C63.1422 2.22232 63.4454 2.95424 63.4454 3.71742V42.8165C63.4467 43.1902 63.3743 43.5604 63.2324 43.9061C63.0904 44.2517 62.8817 44.566 62.6181 44.8308L44.1297 63.3193C43.8648 63.5828 43.5505 63.7916 43.2049 63.9335C42.8593 64.0755 42.489 64.1479 42.1153 64.1466Z" fill="#3775F7"/>
<circle cx="3.86312" cy="3.86312" r="3.86312" transform="matrix(-1 0 0 1 30.2822 24)" fill="white"/>
<circle cx="2.31787" cy="2.31787" r="2.31787" transform="matrix(-1 0 0 1 28.7383 27.0879)" fill="black"/>
<circle cx="3.86312" cy="3.86312" r="3.86312" transform="matrix(-1 0 0 1 41.1006 24)" fill="white"/>
<circle cx="2.31787" cy="2.31787" r="2.31787" transform="matrix(-1 0 0 1 39.5537 27.0879)" fill="black"/>
<path d="M31.8301 40.999C29.2698 40.999 27.1943 38.9235 27.1943 36.3633H36.4658C36.4658 38.9235 34.3903 40.999 31.8301 40.999Z" fill="white"/>
</svg>
