<svg width="59" height="59" viewBox="0 0 59 59" fill="none" xmlns="http://www.w3.org/2000/svg">
<path d="M29.5737 0.214177L56.1128 0.21418C56.4323 0.209945 56.7494 0.26976 57.0455 0.390083C57.3415 0.510406 57.6104 0.688805 57.8363 0.914749C58.0623 1.1407 58.2407 1.40961 58.361 1.70563C58.4813 2.00165 58.5411 2.31876 58.5369 2.63827L58.5369 29.1774C58.5369 36.8589 55.4854 44.2258 50.0538 49.6575C44.6221 55.0892 37.2552 58.1406 29.5737 58.1406C25.7702 58.1406 22.0039 57.3915 18.4899 55.9359C14.976 54.4804 11.7831 52.347 9.09359 49.6575C6.40411 46.968 4.27069 43.7751 2.81515 40.2611C1.35962 36.7472 0.610461 32.9809 0.610461 29.1774C0.610461 25.3739 1.35962 21.6076 2.81515 18.0937C4.27069 14.5797 6.40411 11.3868 9.0936 8.69731C11.7831 6.00783 14.976 3.87441 18.4899 2.41887C22.0039 0.963334 25.7702 0.214177 29.5737 0.214177Z" fill="#D68758"/>
<path d="M29.5748 58.1413H3.03563C2.71613 58.1455 2.39901 58.0857 2.10299 57.9654C1.80697 57.8451 1.53806 57.6667 1.31211 57.4407C1.08616 57.2148 0.907764 56.9459 0.78744 56.6498C0.667116 56.3538 0.607306 56.0367 0.611538 55.7172V29.1781C0.611538 21.4965 3.66301 14.1296 9.09467 8.69798C14.5263 3.26632 21.8932 0.214844 29.5748 0.214844C33.3783 0.214844 37.1445 0.963999 40.6585 2.41954C44.1725 3.87508 47.3654 6.00849 50.0548 8.69798C52.7443 11.3875 54.8777 14.5803 56.3333 18.0943C57.7888 21.6083 58.538 25.3746 58.538 29.1781C58.538 32.9816 57.7888 36.7478 56.3333 40.2618C54.8777 43.7758 52.7443 46.9687 50.0548 49.6582C47.3654 52.3476 44.1725 54.4811 40.6585 55.9366C37.1445 57.3921 33.3783 58.1413 29.5748 58.1413Z" fill="#D68758"/>
<ellipse cx="3.63688" cy="4.5461" rx="3.63688" ry="4.5461" transform="matrix(-1 0 0 1 39.0508 9)" fill="white"/>
<ellipse cx="1.81844" cy="2.72766" rx="1.81844" ry="2.72766" transform="matrix(-1 0 0 1 37.2334 10.8203)" fill="black"/>
<ellipse cx="3.63688" cy="4.5461" rx="3.63688" ry="4.5461" transform="matrix(-1 0 0 1 49.9619 9)" fill="white"/>
<ellipse cx="1.81844" cy="2.72766" rx="1.81844" ry="2.72766" transform="matrix(-1 0 0 1 48.1445 10.8203)" fill="black"/>
<path d="M37.5993 21.4751C36.392 23.5662 37.1086 26.2406 39.1997 27.4479C41.2907 28.6552 43.9652 27.9386 45.1725 25.8475C46.03 24.3623 45.915 22.5793 45.0267 21.2418C45.0267 21.2418 44.1857 24.1559 41.5637 24.325C38.9417 24.4941 37.5993 21.4751 37.5993 21.4751Z" fill="white"/>
</svg>
