<svg width="101" height="108" viewBox="0 0 101 108" fill="none" xmlns="http://www.w3.org/2000/svg">
<path d="M54.5603 107.443H33.5466C33.1364 107.443 32.743 107.283 32.453 106.998C32.1629 106.713 32 106.326 32 105.923V75.5201C32 75.117 32.1629 74.7303 32.453 74.4452C32.743 74.1602 33.1364 74 33.5466 74H64.4776C64.8877 74 65.2811 74.1602 65.5711 74.4452C65.8612 74.7303 66.0241 75.117 66.0241 75.5201V96.1751C66.0248 96.3725 65.9859 96.568 65.9096 96.7506C65.8333 96.9332 65.7211 97.0992 65.5795 97.2392L55.6429 107.006C55.5005 107.145 55.3316 107.256 55.1459 107.331C54.9601 107.406 54.7611 107.444 54.5603 107.443Z" fill="#3775F7"/>
<path fill-rule="evenodd" clip-rule="evenodd" d="M33.3588 29.4085C33.1132 28.9726 32.9895 28.4799 33.0007 27.981C33.0118 27.4832 33.1568 26.9973 33.4206 26.5733L33.4223 26.5706L49.0134 1.35843C49.2624 0.946218 49.6148 0.604538 50.0367 0.36658C50.4621 0.126619 50.9434 0.000421038 51.4331 0.000421017C51.9228 0.000420995 52.4041 0.126616 52.8295 0.36658C53.2514 0.604538 53.6038 0.946221 53.8528 1.35843L69.4439 26.5706L69.4459 26.5737C69.7095 26.9977 69.8544 27.4834 69.8655 27.981C69.8767 28.4799 69.753 28.9726 69.5074 29.4085C69.2617 29.8443 68.9029 30.2075 68.468 30.4605C68.0331 30.7134 67.5378 30.8471 67.0332 30.8477L35.833 30.8477C35.3284 30.8471 34.8331 30.7134 34.3982 30.4605C33.9633 30.2075 33.6045 29.8443 33.3588 29.4085Z" fill="#66D879"/>
<rect x="70" y="65" width="31" height="42" rx="2" fill="#D9D9D9"/>
<path d="M33 52C33 42.6112 40.6112 35 50 35V35H65.0571C66.1302 35 67 35.8698 67 36.9429V51.5143C67 61.1714 59.1714 69 49.5143 69H34.9429C33.8698 69 33 68.1302 33 67.0571V52V52Z" fill="#D68758"/>
<path d="M0 96.0436C0 95.6423 0.171344 95.26 0.470948 94.993L6 90.0648L9 87.3908L9.75 86.7224V86.7224C9.84046 86.6316 9.83602 86.4835 9.74028 86.3984L1.33333 78.9235L0.411124 77.9993C0.147855 77.7354 0 77.3779 0 77.0052V67.4074C0 66.6301 0.630118 66 1.40741 66H12.4444H22.5926C23.3699 66 24 66.6301 24 67.4074V77.3858C24 77.7965 23.8206 78.1868 23.5088 78.4541L14.2532 86.3917C14.1523 86.4783 14.1508 86.6339 14.25 86.7224V86.7224L15 87.3908L18 90.0648L23.5291 94.993C23.8287 95.26 24 95.6423 24 96.0436V105.593C24 106.37 23.3699 107 22.5926 107H1.40741C0.630118 107 0 106.37 0 105.593V96.0436Z" fill="#FDF151"/>
</svg>
