<svg width="1988" height="1925" viewBox="0 0 1988 1925" fill="none" xmlns="http://www.w3.org/2000/svg">
<g clip-path="url(#clip0_474_1786)">
<path d="M666.687 349.369C645.645 349.369 625.474 357.223 610.597 371.205C595.725 385.188 587.368 404.149 587.368 423.923V492.241C587.356 493.065 587.516 493.877 587.848 494.641C588.18 495.4 588.666 496.094 589.282 496.674C589.905 497.255 590.64 497.718 591.452 498.026C592.264 498.334 593.129 498.488 594.006 498.482H666.687C677.101 498.482 687.415 496.55 697.035 492.804C706.661 489.058 715.403 483.563 722.771 476.64C730.133 469.717 735.977 461.502 739.966 452.457C743.949 443.412 746 433.715 746 423.923" stroke="#DADADA" stroke-width="1.2" stroke-linecap="round" stroke-linejoin="round"/>
<path d="M666.686 498.483C687.722 498.483 707.893 490.629 722.77 476.647C737.642 462.664 745.999 443.697 745.999 423.923V355.611C746.011 354.787 745.851 353.969 745.519 353.211C745.187 352.446 744.701 351.752 744.085 351.172C743.463 350.591 742.728 350.134 741.916 349.82C741.104 349.512 740.238 349.358 739.361 349.37H666.686C656.266 349.37 645.953 351.296 636.333 355.042C626.707 358.788 617.964 364.283 610.596 371.206C603.235 378.129 597.39 386.35 593.401 395.395C589.418 404.44 587.367 414.137 587.367 423.923" stroke="#DADADA" stroke-width="1.2" stroke-linecap="round" stroke-linejoin="round"/>
<path fill-rule="evenodd" clip-rule="evenodd" d="M514.122 119.142C512.812 116.807 512.154 114.169 512.214 111.49C512.273 108.823 513.043 106.221 514.448 103.95L514.46 103.933L597.389 -31.192C598.711 -33.4029 600.583 -35.2344 602.83 -36.5088C605.094 -37.795 607.649 -38.4707 610.257 -38.4707C612.859 -38.4707 615.419 -37.795 617.684 -36.5088C619.93 -35.2344 621.803 -33.4029 623.125 -31.192L706.054 103.933L706.066 103.95C707.47 106.221 708.241 108.829 708.3 111.49C708.36 114.169 707.702 116.807 706.392 119.142C705.088 121.477 703.179 123.427 700.861 124.779C698.55 126.136 695.918 126.853 693.233 126.859H527.281C524.596 126.853 521.964 126.136 519.646 124.779C517.335 123.427 515.426 121.477 514.122 119.142Z" stroke="#DADADA" stroke-width="1.2" stroke-linecap="round" stroke-linejoin="round"/>
<path d="M239.544 288.378H139.71C137.76 288.378 135.893 287.607 134.518 286.226C133.137 284.851 132.36 282.978 132.36 281.034V134.084C132.36 132.134 133.137 130.267 134.518 128.886C135.893 127.511 137.76 126.734 139.71 126.734H286.66C288.61 126.734 290.477 127.511 291.858 128.886C293.233 130.267 294.009 132.134 294.009 134.084V233.918C294.009 234.872 293.826 235.814 293.464 236.698C293.103 237.581 292.569 238.381 291.893 239.057L244.688 286.268C244.013 286.937 243.207 287.471 242.329 287.838C241.446 288.2 240.498 288.384 239.544 288.378Z" stroke="#DADADA" stroke-width="1.2" stroke-linecap="round" stroke-linejoin="round"/>
<path d="M96.3649 648.767H-102.377C-106.254 648.767 -109.976 647.226 -112.714 644.482C-115.459 641.738 -117 638.021 -117 634.139V341.609C-117 337.727 -115.459 334.01 -112.714 331.266C-109.976 328.522 -106.254 326.98 -102.377 326.98H190.159C194.035 326.98 197.757 328.522 200.502 331.266C203.24 334.01 204.781 337.727 204.781 341.609V540.345C204.793 542.248 204.42 544.127 203.702 545.887C202.979 547.642 201.918 549.242 200.579 550.588L106.601 644.559C105.256 645.899 103.662 646.96 101.901 647.683C100.147 648.406 98.2617 648.773 96.3649 648.767Z" stroke="#DADADA" stroke-width="1.2" stroke-linecap="round" stroke-linejoin="round"/>
<path fill-rule="evenodd" clip-rule="evenodd" d="M296.179 224.827C295.355 223.363 294.946 221.704 294.982 220.026C295.017 218.349 295.503 216.713 296.381 215.285L296.386 215.279L348.422 130.429C349.252 129.042 350.431 127.892 351.836 127.092C353.259 126.286 354.865 125.859 356.495 125.859C358.131 125.859 359.737 126.286 361.16 127.092C362.565 127.892 363.744 129.042 364.574 130.429L416.604 215.279L416.616 215.291C417.493 216.713 417.979 218.349 418.015 220.026C418.05 221.704 417.635 223.363 416.817 224.827C415.999 226.297 414.802 227.518 413.35 228.366C411.897 229.22 410.244 229.67 408.56 229.67H304.435C302.752 229.67 301.099 229.22 299.646 228.366C298.194 227.518 296.997 226.297 296.179 224.827Z" stroke="#DADADA" stroke-width="1.2" stroke-linecap="round" stroke-linejoin="round"/>
<path fill-rule="evenodd" clip-rule="evenodd" d="M-14.8564 321.052C-15.9588 319.037 -16.5104 316.767 -16.463 314.467C-16.4097 312.173 -15.7633 309.933 -14.5778 307.977L-14.572 307.965L55.3465 191.689C56.4668 189.786 58.0432 188.21 59.9399 187.113C61.8426 186.011 64.0063 185.424 66.1994 185.424C68.3984 185.424 70.556 186.011 72.4645 187.113C74.3554 188.21 75.9379 189.786 77.0522 191.689L146.97 307.965L146.982 307.977C148.162 309.933 148.814 312.173 148.861 314.467C148.915 316.767 148.358 319.037 147.255 321.052C146.153 323.062 144.546 324.733 142.596 325.901C140.646 327.069 138.423 327.685 136.159 327.685H-3.76077C-6.025 327.685 -8.2418 327.069 -10.1978 325.901C-12.1479 324.733 -13.7539 323.062 -14.8564 321.052Z" stroke="#DADADA" stroke-width="1.2" stroke-linecap="round" stroke-linejoin="round"/>
<path d="M315.569 288.639C344.945 288.639 373.124 299.604 393.899 319.135C414.668 338.659 426.339 365.142 426.339 392.758V488.169C426.356 489.313 426.125 490.457 425.669 491.518C425.207 492.585 424.525 493.551 423.66 494.363C422.794 495.175 421.769 495.815 420.637 496.248C419.505 496.681 418.29 496.894 417.069 496.883H315.569C301.024 496.883 286.615 494.192 273.177 488.958C259.74 483.724 247.524 476.054 237.24 466.386C226.956 456.719 218.794 445.238 213.229 432.607C207.663 419.97 204.794 406.432 204.794 392.758" stroke="#DADADA" stroke-width="1.2" stroke-linecap="round" stroke-linejoin="round"/>
<path d="M315.57 496.858C286.188 496.858 258.016 485.892 237.24 466.362C216.465 446.837 204.794 420.354 204.794 392.739V297.327C204.783 296.178 205.008 295.039 205.47 293.978C205.927 292.912 206.614 291.945 207.474 291.133C208.339 290.321 209.37 289.681 210.502 289.248C211.635 288.816 212.844 288.597 214.065 288.614H315.57C330.115 288.614 344.519 291.305 357.962 296.539C371.399 301.773 383.609 309.443 393.899 319.11C404.183 328.778 412.345 340.259 417.91 352.89C423.476 365.527 426.339 379.065 426.339 392.739" stroke="#DADADA" stroke-width="1.2" stroke-linecap="round" stroke-linejoin="round"/>
<path d="M412.018 -159.703C371.748 -159.703 333.126 -144.666 304.652 -117.904C276.177 -91.1361 260.185 -54.8374 260.185 -16.9856V113.794C260.161 115.371 260.475 116.93 261.103 118.388C261.738 119.846 262.668 121.174 263.854 122.288C265.039 123.402 266.45 124.28 268.003 124.872C269.556 125.465 271.215 125.761 272.893 125.738H412.018C431.958 125.738 451.702 122.045 470.124 114.873C488.546 107.701 505.284 97.1919 519.38 83.9385C533.481 70.6851 544.665 54.948 552.294 37.6344C559.928 20.3207 563.852 1.76239 563.852 -16.9856" stroke="#DADADA" stroke-width="1.2" stroke-linecap="round" stroke-linejoin="round"/>
<path d="M412.018 125.735C452.288 125.735 490.905 110.698 519.379 83.9358C547.854 57.1681 563.852 20.8635 563.852 -16.9882V-147.762C563.875 -149.339 563.561 -150.898 562.933 -152.356C562.299 -153.82 561.362 -155.142 560.183 -156.256C558.997 -157.37 557.586 -158.248 556.033 -158.84C554.48 -159.433 552.821 -159.729 551.144 -159.706H412.018C392.079 -159.706 372.335 -156.019 353.913 -148.841C335.491 -141.669 318.752 -131.16 304.651 -117.906C290.556 -104.653 279.371 -88.9219 271.737 -71.6024C264.108 -54.2887 260.179 -35.7303 260.179 -16.9882" stroke="#DADADA" stroke-width="1.2" stroke-linecap="round" stroke-linejoin="round"/>
<path d="M501.538 247.082L552.204 201.075C554.124 199.356 555.677 197.133 556.756 194.584C557.835 192.035 558.398 189.232 558.416 186.387V145.216C558.416 140.314 556.768 135.613 553.84 132.146C550.912 128.678 546.935 126.734 542.792 126.734H433.439C429.296 126.734 425.324 128.678 422.396 132.146C419.462 135.613 417.82 140.314 417.82 145.216V186.79V186.849C417.832 189.694 418.401 192.498 419.48 195.047C420.553 197.595 422.112 199.818 424.026 201.537L475.374 247.082" stroke="#DADADA" stroke-width="1.2" stroke-linecap="round" stroke-linejoin="round"/>
<path d="M501.538 247.078L552.204 294.206C554.124 295.925 555.677 298.148 556.756 300.696C557.835 303.245 558.398 306.049 558.416 308.894V308.953V350.065C558.416 354.967 556.768 359.667 553.84 363.135C550.912 366.602 546.935 368.546 542.792 368.546H433.439C429.296 368.546 425.324 366.602 422.396 363.135C419.462 359.667 417.82 354.967 417.82 350.065V308.432C417.832 305.587 418.401 302.783 419.48 300.234C420.553 297.685 422.112 295.469 424.026 293.744L424.068 293.708L475.374 247.078" stroke="#DADADA" stroke-width="1.2" stroke-linecap="round" stroke-linejoin="round"/>
<path d="M219.916 -190.004H6.53292C0.804203 -190.004 -3.83984 -185.36 -3.83984 -179.631V116.734C-3.83984 122.462 0.804203 127.107 6.53292 127.107H219.916C225.644 127.107 230.288 122.462 230.288 116.734V-179.631C230.288 -185.36 225.644 -190.004 219.916 -190.004Z" stroke="#DADADA" stroke-width="1.2"/>
<path d="M711.881 127.076H569.626C563.897 127.076 559.253 131.72 559.253 137.449V338.977C559.253 344.706 563.897 349.35 569.626 349.35H711.881C717.61 349.35 722.254 344.706 722.254 338.977V137.449C722.254 131.72 717.61 127.076 711.881 127.076Z" stroke="#DADADA" stroke-width="1.2"/>
<path d="M2053.57 92.3613L2098.92 134.544C2100.61 136.084 2101.99 138.074 2102.95 140.353C2103.91 142.632 2104.46 145.144 2104.46 147.694V147.744V184.548C2104.46 188.936 2103 193.141 2100.38 196.245C2097.72 199.345 2094.19 201.087 2090.48 201.087H1992.59C1988.88 201.087 1985.34 199.345 1982.69 196.245C1980.07 193.141 1978.6 188.936 1978.6 184.548V147.281C1978.6 144.732 1979.11 142.219 1980.07 139.94C1981.03 137.662 1982.46 135.672 1984.15 134.131L1984.2 134.099L2030.14 92.3613" stroke="#DADADA" stroke-width="1.2" stroke-linecap="round" stroke-linejoin="round"/>
<path d="M1925.14 327.197H2002.4C2003.91 327.197 2005.33 326.597 2006.39 325.533C2007.49 324.469 2008.08 323.02 2008.08 321.512V207.839C2008.08 206.335 2007.49 204.886 2006.39 203.823C2005.33 202.754 2003.91 202.158 2002.4 202.158H1888.74C1887.22 202.158 1885.76 202.754 1884.7 203.823C1883.65 204.886 1883.05 206.335 1883.05 207.839V285.07C1883 285.803 1883.19 286.537 1883.46 287.22C1883.74 287.903 1884.15 288.522 1884.65 289.045L1921.2 325.565C1921.7 326.083 1922.34 326.496 1922.99 326.776C1923.67 327.055 1924.41 327.202 1925.14 327.197Z" stroke="#DADADA" stroke-width="1.2" stroke-linecap="round" stroke-linejoin="round"/>
<path fill-rule="evenodd" clip-rule="evenodd" d="M1945.96 403.596C1945.31 402.459 1944.99 401.175 1945.04 399.877C1945.04 398.584 1945.45 397.319 1946.14 396.214V396.205L1986.99 330.574C1987.68 329.501 1988.6 328.612 1989.7 327.988C1990.8 327.365 1992.08 327.039 1993.37 327.039C1994.65 327.039 1995.89 327.365 1997.03 327.988C1998.13 328.612 1999.05 329.501 1999.69 330.574L2040.59 396.205V396.214C2041.28 397.319 2041.65 398.584 2041.69 399.877C2041.69 401.175 2041.37 402.459 2040.73 403.596C2040.09 404.728 2039.17 405.673 2038.02 406.333C2036.88 406.993 2035.59 407.342 2034.26 407.342H1952.47C1951.14 407.342 1949.81 406.993 1948.71 406.333C1947.56 405.673 1946.6 404.728 1945.96 403.596Z" stroke="#DADADA" stroke-width="1.2" stroke-linecap="round" stroke-linejoin="round"/>
<path d="M1822.44 254.893C1806.16 254.893 1790.57 260.968 1779.06 271.784C1767.55 282.6 1761.09 297.268 1761.09 312.563V365.411C1761.09 366.048 1761.22 366.681 1761.45 367.268C1761.73 367.859 1762.1 368.391 1762.55 368.845C1763.06 369.294 1763.61 369.647 1764.25 369.886C1764.89 370.129 1765.53 370.248 1766.22 370.239H1822.44C1830.5 370.239 1838.48 368.744 1845.91 365.846C1853.38 362.949 1860.12 358.703 1865.81 353.348C1871.54 347.992 1876.03 341.633 1879.15 334.636C1882.22 327.639 1883.78 320.138 1883.78 312.563" stroke="#DADADA" stroke-width="1.2" stroke-linecap="round" stroke-linejoin="round"/>
<path d="M1822.44 370.218C1838.71 370.218 1854.3 364.143 1865.81 353.327C1877.32 342.51 1883.78 327.843 1883.78 312.547V259.7C1883.83 259.062 1883.69 258.43 1883.42 257.843C1883.19 257.251 1882.77 256.719 1882.32 256.265C1881.86 255.816 1881.26 255.463 1880.62 255.225C1880.02 254.982 1879.34 254.862 1878.65 254.872H1822.44C1814.37 254.872 1806.39 256.366 1798.96 259.264C1791.53 262.162 1784.75 266.408 1779.06 271.763C1773.38 277.118 1768.84 283.478 1765.76 290.475C1762.69 297.471 1761.09 304.972 1761.09 312.547" stroke="#DADADA" stroke-width="1.2" stroke-linecap="round" stroke-linejoin="round"/>
<path d="M2053.57 92.3549L2098.92 51.1765C2100.61 49.6313 2101.99 47.646 2102.95 45.3672C2103.91 43.0839 2104.46 40.5713 2104.46 38.0266V1.17181C2104.46 -3.21609 2103 -7.42057 2100.38 -10.5247C2097.72 -13.6242 2094.19 -15.3711 2090.48 -15.3711H1992.59C1988.88 -15.3711 1985.34 -13.6242 1982.69 -10.5247C1980.07 -7.42057 1978.6 -3.21609 1978.6 1.17181V38.3888V38.4392C1978.6 40.9885 1979.11 43.4965 1980.07 45.7799C1981.03 48.0586 1982.46 50.0485 1984.15 51.5891L2030.14 92.3549" stroke="#DADADA" stroke-width="1.2" stroke-linecap="round" stroke-linejoin="round"/>
<path d="M2031.61 407.902H1926.15C1921.72 407.902 1918.13 411.495 1918.13 415.926V567.233C1918.13 571.665 1921.72 575.257 1926.15 575.257H2031.61C2036.04 575.257 2039.63 571.665 2039.63 567.233V415.926C2039.63 411.495 2036.04 407.902 2031.61 407.902Z" stroke="#DADADA" stroke-width="1.2"/>
<path d="M2038.09 1594.12H1682.26C1675.37 1594.12 1668.65 1591.35 1663.75 1586.44C1658.86 1581.53 1656.09 1574.87 1656.09 1567.93V1044.19C1656.09 1037.24 1658.86 1030.58 1663.75 1025.67C1668.65 1020.76 1675.37 1018 1682.26 1018H2206.01C2212.97 1018 2219.63 1020.76 2224.52 1025.67C2229.47 1030.58 2232.24 1037.24 2232.24 1044.19V1400C2232.24 1403.4 2231.59 1406.77 2230.3 1409.92C2229 1413.06 2227.05 1415.92 2224.7 1418.33L2056.42 1586.59C2054 1588.98 2051.17 1590.88 2047.99 1592.18C2044.87 1593.47 2041.51 1594.13 2038.09 1594.12Z" stroke="#DADADA" stroke-width="1.2" stroke-linecap="round" stroke-linejoin="round"/>
<path fill-rule="evenodd" clip-rule="evenodd" d="M1248.02 1844.86C1244.31 1838.15 1242.42 1830.56 1242.6 1822.88C1242.78 1815.21 1244.96 1807.73 1248.9 1801.2L1248.96 1801.16L1484.08 1412.89C1487.79 1406.55 1493.1 1401.28 1499.46 1397.62C1505.89 1393.93 1513.14 1391.98 1520.56 1391.98C1527.93 1391.98 1535.18 1393.93 1541.61 1397.62C1547.97 1401.28 1553.28 1406.55 1557.05 1412.89L1792.1 1801.16L1792.16 1801.21C1796.11 1807.74 1798.29 1815.22 1798.47 1822.88C1798.65 1830.56 1796.76 1838.15 1793.11 1844.86C1789.39 1851.57 1783.97 1857.17 1777.43 1861.06C1770.83 1864.96 1763.4 1867.02 1755.8 1867.03H1285.33C1277.67 1867.02 1270.24 1864.96 1263.64 1861.06C1257.1 1857.17 1251.68 1851.57 1248.02 1844.86Z" stroke="#DADADA" stroke-width="1.2" stroke-linecap="round" stroke-linejoin="round"/>
<path d="M1198.64 1381.86L1322.48 1269.8C1327.19 1265.61 1330.97 1260.2 1333.62 1253.99C1336.21 1247.79 1337.63 1240.96 1337.69 1234.03V1133.75C1337.69 1121.81 1333.62 1110.37 1326.49 1101.93C1319.3 1093.49 1309.63 1088.75 1299.49 1088.75H1032.19C1022.06 1088.75 1012.33 1093.49 1005.2 1101.93C998.008 1110.37 994 1121.81 994 1133.75V1235.01V1235.15C994.059 1242.08 995.415 1248.92 998.067 1255.12C1000.72 1261.33 1004.49 1266.74 1009.21 1270.93L1134.69 1381.86" stroke="#DADADA" stroke-width="1.2" stroke-linecap="round" stroke-linejoin="round"/>
<path d="M1198.64 1381.84L1322.48 1499.49C1327.19 1503.79 1330.97 1509.33 1333.62 1515.69C1336.21 1522.05 1337.63 1529.05 1337.69 1536.16V1536.3V1638.93C1337.69 1651.16 1333.62 1662.9 1326.49 1671.55C1319.3 1680.2 1309.63 1685.06 1299.49 1685.06H1032.19C1022.06 1685.06 1012.33 1680.2 1005.2 1671.55C998.008 1662.9 994 1651.16 994 1638.93V1535C994.059 1527.9 995.415 1520.89 998.067 1514.53C1000.72 1508.17 1004.49 1502.63 1009.21 1498.33L1009.27 1498.25L1134.69 1381.84" stroke="#DADADA" stroke-width="1.2" stroke-linecap="round" stroke-linejoin="round"/>
</g>
<defs>
<clipPath id="clip0_474_1786">
<rect width="1988" height="1925" fill="white"/>
</clipPath>
</defs>
</svg>
