<svg width="1958" height="1184" viewBox="0 0 1958 1184" fill="none" xmlns="http://www.w3.org/2000/svg">
<g clip-path="url(#clip0_517_242)">
<path fill-rule="evenodd" clip-rule="evenodd" d="M2021.62 1194.83C2022.28 1193.66 2022.61 1192.31 2022.58 1190.96C2022.55 1189.62 2022.16 1188.3 2021.47 1187.16L1979.52 1118.83C1978.86 1117.73 1977.9 1116.8 1976.79 1116.14C1975.62 1115.51 1974.33 1115.15 1973.01 1115.15C1971.7 1115.15 1970.41 1115.51 1969.27 1116.14C1968.13 1116.8 1967.17 1117.73 1966.51 1118.83L1924.59 1187.16C1923.87 1188.3 1923.48 1189.62 1923.45 1190.96C1923.42 1192.31 1923.75 1193.66 1924.41 1194.83C1925.07 1196.03 1926.06 1197.02 1927.22 1197.68C1928.39 1198.37 1929.71 1198.72 1931.06 1198.72H2014.97C2016.32 1198.72 2017.66 1198.37 2018.83 1197.68C2020 1197.02 2020.96 1196.03 2021.62 1194.83Z" stroke="#DADADA" stroke-linecap="round" stroke-linejoin="round"/>
<path fill-rule="evenodd" clip-rule="evenodd" d="M1656.06 730.636C1656.72 729.455 1657.05 728.119 1657.02 726.767C1656.99 725.419 1656.6 724.103 1655.88 722.953V722.947L1613.96 654.629C1613.3 653.514 1612.34 652.589 1611.2 651.941C1610.06 651.291 1608.77 650.949 1607.45 650.949C1606.13 650.949 1604.85 651.291 1603.71 651.941C1602.57 652.589 1601.61 653.514 1600.95 654.629L1559.03 722.947V722.956C1558.31 724.104 1557.92 725.419 1557.89 726.767C1557.86 728.119 1558.19 729.455 1558.85 730.636C1559.51 731.817 1560.47 732.803 1561.63 733.486C1562.8 734.172 1564.15 734.535 1565.5 734.535H1649.41C1650.75 734.535 1652.1 734.172 1653.27 733.486C1654.44 732.803 1655.4 731.817 1656.06 730.636Z" stroke="#DADADA" stroke-linecap="round" stroke-linejoin="round"/>
<path d="M1794.87 816.704H1845.36C1846.32 816.704 1847.28 816.311 1847.97 815.616C1848.69 814.918 1849.07 813.974 1849.07 812.988V738.695C1849.07 737.712 1848.69 736.766 1847.97 736.07C1847.28 735.372 1846.32 734.982 1845.36 734.982H1771.04C1770.08 734.982 1769.12 735.372 1768.43 736.07C1767.72 736.766 1767.33 737.712 1767.33 738.695V789.168C1767.33 789.65 1767.45 790.13 1767.63 790.576C1767.81 791.023 1768.08 791.427 1768.4 791.769L1792.29 815.637C1792.62 815.976 1793.01 816.246 1793.46 816.428C1793.91 816.611 1794.39 816.707 1794.87 816.704Z" stroke="#DADADA" stroke-linecap="round" stroke-linejoin="round"/>
<path d="M1971.63 629.439H2058.09C2059.77 629.439 2061.38 628.768 2062.58 627.575C2063.78 626.382 2064.47 624.764 2064.47 623.074V495.794C2064.47 494.107 2063.78 492.489 2062.58 491.294C2061.38 490.101 2059.77 489.43 2058.09 489.43H1930.82C1929.11 489.43 1927.49 490.101 1926.33 491.294C1925.13 492.489 1924.44 494.107 1924.44 495.794V582.266C1924.44 583.093 1924.62 583.911 1924.92 584.675C1925.25 585.439 1925.7 586.134 1926.27 586.722L1967.17 627.608C1967.74 628.192 1968.46 628.654 1969.21 628.969C1969.99 629.283 1970.8 629.442 1971.63 629.439Z" stroke="#DADADA" stroke-linecap="round" stroke-linejoin="round"/>
<path d="M1707.99 590.67H1646.77C1645.6 590.67 1644.43 590.194 1643.59 589.352C1642.75 588.506 1642.28 587.359 1642.28 586.166V496.09C1642.28 494.897 1642.75 493.75 1643.59 492.904C1644.43 492.062 1645.6 491.586 1646.77 491.586H1736.85C1738.05 491.586 1739.19 492.062 1740.06 492.904C1740.9 493.75 1741.37 494.897 1741.37 496.09V557.284C1741.37 557.869 1741.25 558.45 1741.01 558.989C1740.8 559.532 1740.48 560.023 1740.06 560.437L1711.14 589.375C1710.72 589.786 1710.21 590.113 1709.67 590.334C1709.13 590.559 1708.56 590.67 1707.99 590.67Z" stroke="#DADADA" stroke-linecap="round" stroke-linejoin="round"/>
<path d="M1868.28 998.911H1968.76C1970.71 998.911 1972.59 998.131 1973.97 996.753C1975.35 995.345 1976.13 993.487 1976.13 991.509V843.618C1976.13 841.656 1975.35 839.777 1973.97 838.389C1972.59 837.002 1970.71 836.223 1968.76 836.223H1820.84C1818.9 836.223 1817.01 837.002 1815.63 838.389C1814.25 839.777 1813.47 841.656 1813.47 843.618V944.093C1813.44 945.055 1813.65 946.005 1814.01 946.892C1814.37 947.782 1814.91 948.588 1815.6 949.268L1863.1 996.783C1863.79 997.472 1864.59 997.982 1865.46 998.371C1866.36 998.731 1867.32 998.911 1868.28 998.911Z" stroke="#DADADA" stroke-linecap="round" stroke-linejoin="round"/>
<path fill-rule="evenodd" clip-rule="evenodd" d="M1766.25 784.576C1766.67 783.833 1766.88 782.997 1766.85 782.146C1766.82 781.301 1766.58 780.474 1766.13 779.752V779.748L1739.85 736.851C1739.4 736.15 1738.83 735.569 1738.11 735.164C1737.39 734.754 1736.58 734.541 1735.74 734.541C1734.93 734.541 1734.12 734.754 1733.4 735.164C1732.69 735.569 1732.09 736.15 1731.67 736.851L1705.36 779.748V779.752C1704.91 780.474 1704.67 781.301 1704.64 782.146C1704.64 782.997 1704.85 783.833 1705.27 784.576C1705.66 785.316 1706.28 785.937 1707 786.365C1707.75 786.797 1708.56 787.024 1709.43 787.024H1762.08C1762.92 787.024 1763.76 786.797 1764.48 786.365C1765.23 785.937 1765.83 785.316 1766.25 784.576Z" stroke="#DADADA" stroke-linecap="round" stroke-linejoin="round"/>
<path fill-rule="evenodd" clip-rule="evenodd" d="M1923.48 833.244C1924.05 832.228 1924.32 831.08 1924.29 829.918C1924.29 828.755 1923.96 827.622 1923.36 826.633V826.627L1888 767.845C1887.43 766.883 1886.62 766.086 1885.66 765.532C1884.71 764.971 1883.63 764.678 1882.52 764.678C1881.41 764.678 1880.3 764.971 1879.34 765.532C1878.38 766.086 1877.6 766.883 1877.03 767.845L1841.67 826.627V826.636C1841.07 827.622 1840.74 828.755 1840.71 829.918C1840.68 831.08 1840.98 832.228 1841.52 833.244C1842.09 834.26 1842.9 835.108 1843.89 835.698C1844.88 836.288 1845.99 836.6 1847.13 836.6H1917.88C1919.02 836.6 1920.16 836.288 1921.14 835.698C1922.13 835.108 1922.94 834.26 1923.48 833.244Z" stroke="#DADADA" stroke-linecap="round" stroke-linejoin="round"/>
<path d="M1869 461.643C1883.72 461.643 1897.83 467.168 1908.2 477.003C1918.6 486.835 1924.44 500.176 1924.44 514.084V562.135C1924.47 562.713 1924.35 563.289 1924.11 563.825C1923.87 564.362 1923.54 564.847 1923.12 565.258C1922.67 565.665 1922.16 565.989 1921.59 566.207C1921.02 566.423 1920.42 566.531 1919.8 566.525H1869C1861.72 566.525 1854.53 565.168 1847.79 562.534C1841.07 559.897 1834.96 556.034 1829.81 551.164C1824.65 546.295 1820.58 540.514 1817.79 534.152C1815 527.791 1813.56 520.97 1813.56 514.084" stroke="#DADADA" stroke-linecap="round" stroke-linejoin="round"/>
<path d="M1869 566.525C1854.32 566.525 1840.2 561 1829.81 551.165C1819.41 541.333 1813.56 527.992 1813.56 514.084V466.033C1813.56 465.455 1813.68 464.879 1813.92 464.343C1814.13 463.806 1814.49 463.321 1814.91 462.91C1815.36 462.503 1815.87 462.179 1816.44 461.961C1817.01 461.745 1817.61 461.637 1818.21 461.643H1869C1876.28 461.643 1883.51 463 1890.22 465.634C1896.96 468.271 1903.07 472.134 1908.2 477.004C1913.35 481.873 1917.46 487.654 1920.24 494.016C1923 500.377 1924.44 507.198 1924.44 514.084" stroke="#DADADA" stroke-linecap="round" stroke-linejoin="round"/>
<path d="M1756.45 816.836C1741.59 816.836 1727.35 822.383 1716.83 832.254C1706.34 842.128 1700.44 855.517 1700.44 869.478V917.712C1700.44 918.293 1700.53 918.872 1700.77 919.408C1701.01 919.948 1701.37 920.436 1701.79 920.846C1702.24 921.257 1702.75 921.581 1703.32 921.799C1703.89 922.018 1704.52 922.126 1705.12 922.12H1756.45C1763.79 922.12 1771.07 920.757 1777.87 918.111C1784.68 915.468 1790.85 911.59 1796.03 906.699C1801.25 901.812 1805.35 896.01 1808.17 889.621C1810.99 883.236 1812.46 876.391 1812.46 869.478" stroke="#DADADA" stroke-linecap="round" stroke-linejoin="round"/>
<path d="M1756.45 922.114C1771.28 922.114 1785.55 916.567 1796.03 906.696C1806.55 896.825 1812.46 883.433 1812.46 869.472V821.238C1812.46 820.656 1812.34 820.081 1812.1 819.541C1811.86 819.005 1811.53 818.517 1811.08 818.106C1810.66 817.696 1810.12 817.369 1809.55 817.15C1808.98 816.931 1808.38 816.824 1807.75 816.833H1756.45C1749.08 816.833 1741.79 818.193 1735.02 820.839C1728.22 823.485 1722.05 827.363 1716.83 832.25C1711.65 837.138 1707.51 842.942 1704.7 849.328C1701.88 855.714 1700.44 862.561 1700.44 869.472" stroke="#DADADA" stroke-linecap="round" stroke-linejoin="round"/>
<path d="M1707.69 590.682C1728.03 590.682 1747.54 598.284 1761.96 611.817C1776.34 625.35 1784.43 643.701 1784.43 662.838V728.956C1784.46 729.75 1784.28 730.541 1783.98 731.278C1783.65 732.015 1783.17 732.687 1782.57 733.247C1781.97 733.81 1781.25 734.257 1780.47 734.557C1779.7 734.856 1778.86 735.003 1778.02 734.994H1707.69C1697.59 734.994 1687.61 733.127 1678.29 729.501C1668.97 725.875 1660.52 720.559 1653.39 713.859C1646.25 707.158 1640.62 699.205 1636.76 690.452C1632.89 681.696 1630.91 672.313 1630.91 662.838" stroke="#DADADA" stroke-linecap="round" stroke-linejoin="round"/>
<path d="M1707.69 734.993C1687.31 734.993 1667.8 727.39 1653.39 713.857C1639 700.327 1630.91 681.973 1630.91 662.836V596.721C1630.91 595.924 1631.06 595.133 1631.36 594.396C1631.69 593.659 1632.17 592.991 1632.77 592.427C1633.37 591.864 1634.09 591.42 1634.87 591.121C1635.65 590.821 1636.49 590.671 1637.32 590.68H1707.69C1717.75 590.68 1727.73 592.547 1737.05 596.173C1746.37 599.799 1754.82 605.115 1761.96 611.816C1769.09 618.516 1774.72 626.469 1778.59 635.225C1782.45 643.979 1784.43 653.361 1784.43 662.836" stroke="#DADADA" stroke-linecap="round" stroke-linejoin="round"/>
<path d="M1770.11 526.582L1744.49 503.322C1743.53 502.453 1742.75 501.33 1742.21 500.041C1741.64 498.755 1741.37 497.335 1741.37 495.897V475.082C1741.37 472.604 1742.18 470.227 1743.68 468.474C1745.15 466.724 1747.16 465.738 1749.25 465.738H1804.54C1806.64 465.738 1808.65 466.724 1810.12 468.474C1811.61 470.227 1812.45 472.604 1812.45 475.082V496.1V496.13C1812.42 497.569 1812.15 498.989 1811.61 500.275C1811.05 501.563 1810.27 502.687 1809.31 503.556L1783.36 526.582" stroke="#DADADA" stroke-linecap="round" stroke-linejoin="round"/>
<path d="M1770.11 526.586L1744.49 550.412C1743.53 551.284 1742.75 552.405 1742.21 553.694C1741.64 554.982 1741.37 556.4 1741.37 557.841V557.868V578.656C1741.37 581.131 1742.18 583.507 1743.68 585.26C1745.15 587.013 1747.16 587.996 1749.25 587.996H1804.54C1806.64 587.996 1808.65 587.013 1810.12 585.26C1811.61 583.507 1812.45 581.131 1812.45 578.656V557.607C1812.42 556.166 1812.15 554.748 1811.61 553.46C1811.05 552.171 1810.27 551.051 1809.31 550.178L1809.28 550.161L1783.36 526.586" stroke="#DADADA" stroke-linecap="round" stroke-linejoin="round"/>
<path d="M1662.41 795.826L1636.79 772.566C1635.83 771.694 1635.05 770.574 1634.51 769.285C1633.94 767.997 1633.67 766.579 1633.67 765.138V744.323C1633.67 741.845 1634.48 739.471 1635.98 737.718C1637.45 735.965 1639.46 734.982 1641.56 734.982H1696.84C1698.94 734.982 1700.95 735.965 1702.42 737.718C1703.92 739.471 1704.75 741.845 1704.75 744.323V765.344V765.371C1704.72 766.813 1704.45 768.23 1703.92 769.519C1703.35 770.807 1702.57 771.928 1701.61 772.8L1675.66 795.826" stroke="#DADADA" stroke-linecap="round" stroke-linejoin="round"/>
<path d="M1662.41 795.832L1636.79 819.661C1635.83 820.53 1635.05 821.654 1634.51 822.943C1633.94 824.228 1633.67 825.649 1633.67 827.087V827.117V847.902C1633.67 850.38 1634.48 852.756 1635.98 854.509C1637.45 856.259 1639.46 857.245 1641.56 857.245H1696.84C1698.94 857.245 1700.95 856.259 1702.42 854.509C1703.92 852.756 1704.75 850.38 1704.75 847.902V826.853C1704.72 825.415 1704.45 823.994 1703.92 822.709C1703.35 821.42 1702.57 820.297 1701.61 819.428L1701.58 819.41L1675.66 795.832" stroke="#DADADA" stroke-linecap="round" stroke-linejoin="round"/>
<path d="M1964.29 726.999L1923.21 689.709C1921.65 688.312 1920.39 686.511 1919.52 684.447C1918.65 682.382 1918.2 680.108 1918.17 677.8V644.426C1918.17 640.456 1919.52 636.644 1921.89 633.836C1924.26 631.028 1927.49 629.449 1930.85 629.449H2019.49C2022.85 629.449 2026.05 631.028 2028.45 633.836C2030.82 636.644 2032.14 640.456 2032.14 644.426V678.127V678.175C2032.14 680.482 2031.69 682.757 2030.79 684.821C2029.92 686.886 2028.66 688.687 2027.1 690.083L1985.48 726.999" stroke="#DADADA" stroke-linecap="round" stroke-linejoin="round"/>
<path d="M1964.29 726.998L1923.21 765.199C1921.65 766.593 1920.39 768.394 1919.52 770.458C1918.65 772.523 1918.2 774.797 1918.17 777.105V777.153V810.479C1918.17 814.452 1919.52 818.261 1921.89 821.069C1924.26 823.88 1927.49 825.456 1930.85 825.456H2019.49C2022.85 825.456 2026.05 823.88 2028.45 821.069C2030.82 818.261 2032.14 814.452 2032.14 810.479V776.73C2032.14 774.423 2031.69 772.148 2030.79 770.084C2029.92 768.019 2028.66 766.221 2027.1 764.825L2027.07 764.795L1985.48 726.998" stroke="#DADADA" stroke-linecap="round" stroke-linejoin="round"/>
<path d="M1813.77 585.041H1912.66C1915.56 585.041 1917.91 587.389 1917.91 590.285V728.131C1917.91 731.027 1915.56 733.375 1912.66 733.375H1813.77C1810.88 733.375 1808.53 731.027 1808.53 728.131V590.285C1808.53 587.389 1810.88 585.041 1813.77 585.041Z" stroke="#DADADA"/>
<path d="M1565.05 734.875H1627.98C1630.88 734.875 1633.22 737.223 1633.22 740.119V830.019C1633.22 832.915 1630.88 835.263 1627.98 835.263H1565.05C1562.15 835.263 1559.81 832.915 1559.81 830.019V740.119C1559.81 737.223 1562.15 734.875 1565.05 734.875Z" stroke="#DADADA"/>
<path d="M1384.77 953.152H1454.98C1456.36 953.152 1457.68 952.616 1458.64 951.645C1459.63 950.677 1460.17 949.361 1460.17 947.992V844.617C1460.17 843.247 1459.63 841.931 1458.64 840.961C1457.68 839.993 1456.36 839.447 1454.98 839.447H1351.63C1350.25 839.447 1348.93 839.993 1347.97 840.961C1346.98 841.931 1346.44 843.247 1346.44 844.617V914.846C1346.44 915.517 1346.56 916.182 1346.83 916.803C1347.07 917.426 1347.46 917.989 1347.94 918.466L1381.14 951.675C1381.62 952.148 1382.19 952.523 1382.79 952.778C1383.42 953.032 1384.08 953.152 1384.77 953.152Z" stroke="#DADADA" stroke-linecap="round" stroke-linejoin="round"/>
<path d="M1302.72 824.24C1314.32 824.24 1325.44 828.57 1333.65 836.281C1341.83 843.991 1346.44 854.446 1346.44 865.351V903.019C1346.44 903.472 1346.35 903.924 1346.17 904.343C1345.99 904.763 1345.72 905.144 1345.39 905.464C1345.03 905.785 1344.65 906.04 1344.2 906.211C1343.75 906.381 1343.27 906.465 1342.79 906.459H1302.72C1296.97 906.459 1291.27 905.395 1285.97 903.331C1280.67 901.266 1275.84 898.236 1271.8 894.419C1267.72 890.601 1264.51 886.07 1262.3 881.08C1260.11 876.094 1258.97 870.748 1258.97 865.351" stroke="#DADADA" stroke-linecap="round" stroke-linejoin="round"/>
<path d="M1302.72 906.454C1291.12 906.454 1279.98 902.124 1271.8 894.413C1263.59 886.706 1258.97 876.247 1258.97 865.346V827.675C1258.97 827.222 1259.06 826.773 1259.24 826.353C1259.42 825.931 1259.69 825.55 1260.02 825.229C1260.38 824.909 1260.77 824.657 1261.22 824.486C1261.67 824.316 1262.15 824.229 1262.63 824.235H1302.72C1308.45 824.235 1314.14 825.298 1319.44 827.366C1324.75 829.431 1329.57 832.457 1333.65 836.275C1337.69 840.093 1340.93 844.627 1343.12 849.613C1345.3 854.6 1346.44 859.946 1346.44 865.346" stroke="#DADADA" stroke-linecap="round" stroke-linejoin="round"/>
<path d="M1253.81 907.738H1341.43C1343.7 907.738 1345.55 909.582 1345.55 911.857V1033.55C1345.55 1035.82 1343.7 1037.67 1341.43 1037.67H1253.81C1251.54 1037.67 1249.69 1035.82 1249.69 1033.55V911.857C1249.69 909.582 1251.54 907.738 1253.81 907.738Z" stroke="#DADADA"/>
<path d="M1059.25 1043.41L1029.61 1070.98C1028.5 1072 1027.57 1073.29 1026.94 1074.79C1026.31 1076.29 1025.98 1077.94 1025.98 1079.58V1079.61V1103.68C1025.98 1106.55 1026.94 1109.28 1028.65 1111.32C1030.36 1113.36 1032.7 1114.49 1035.12 1114.49H1099.1C1101.53 1114.49 1103.84 1113.36 1105.54 1111.32C1107.28 1109.28 1108.24 1106.55 1108.24 1103.68V1079.31C1108.21 1077.67 1107.88 1076.02 1107.25 1074.52C1106.62 1073.02 1105.72 1071.73 1104.58 1070.71L1074.56 1043.41" stroke="#DADADA" stroke-linecap="round" stroke-linejoin="round"/>
<path fill-rule="evenodd" clip-rule="evenodd" d="M538.285 1194.83C538.948 1193.66 539.277 1192.31 539.247 1190.96C539.217 1189.62 538.828 1188.3 538.121 1187.16H538.114L496.188 1118.83C495.52 1117.73 494.573 1116.8 493.437 1116.14C492.293 1115.51 490.998 1115.15 489.683 1115.15C488.364 1115.15 487.07 1115.51 485.928 1116.14C484.792 1116.8 483.845 1117.73 483.177 1118.83L441.251 1187.16H441.245C440.535 1188.3 440.145 1189.62 440.115 1190.96C440.085 1192.31 440.418 1193.66 441.08 1194.83C441.739 1196.03 442.704 1197.02 443.873 1197.68C445.045 1198.37 446.375 1198.72 447.733 1198.72H531.633C532.99 1198.72 534.321 1198.37 535.489 1197.68C536.661 1197.02 537.626 1196.03 538.285 1194.83Z" stroke="#DADADA" stroke-linecap="round" stroke-linejoin="round"/>
<path d="M853.857 1093.63H940.31C942.018 1093.63 943.636 1092.98 944.835 1091.78C946.003 1090.58 946.693 1088.96 946.693 1087.28V959.984C946.693 958.306 946.003 956.687 944.835 955.489C943.636 954.29 942.018 953.631 940.31 953.631H813.042C811.364 953.631 809.746 954.29 808.547 955.489C807.349 956.687 806.689 958.306 806.689 959.984V1046.47C806.689 1047.31 806.839 1048.12 807.139 1048.86C807.468 1049.64 807.918 1050.33 808.517 1050.93L849.392 1091.81C849.991 1092.41 850.68 1092.86 851.429 1093.15C852.208 1093.48 853.018 1093.63 853.857 1093.63Z" stroke="#DADADA" stroke-linecap="round" stroke-linejoin="round"/>
<path d="M1143.16 1196.9H1092.69C1091.71 1196.9 1090.78 1196.51 1090.06 1195.82C1089.37 1195.13 1088.98 1194.17 1088.98 1193.18V1118.9C1088.98 1117.91 1089.37 1116.98 1090.06 1116.26C1090.78 1115.57 1091.71 1115.18 1092.69 1115.18H1166.98C1167.97 1115.18 1168.93 1115.57 1169.62 1116.26C1170.31 1116.98 1170.7 1117.91 1170.7 1118.9V1169.36C1170.7 1169.84 1170.61 1170.32 1170.43 1170.77C1170.25 1171.22 1169.98 1171.64 1169.65 1171.97L1145.76 1195.82C1145.44 1196.18 1145.02 1196.45 1144.57 1196.63C1144.12 1196.81 1143.64 1196.9 1143.16 1196.9Z" stroke="#DADADA" stroke-linecap="round" stroke-linejoin="round"/>
<path d="M585.394 1054.86H520.958C519.699 1054.86 518.494 1054.38 517.604 1053.48C516.714 1052.58 516.217 1051.38 516.217 1050.12V955.28C516.217 954.021 516.714 952.814 517.604 951.924C518.494 951.034 519.699 950.533 520.958 950.533H615.801C617.06 950.533 618.259 951.034 619.158 951.924C620.057 952.814 620.536 954.021 620.536 955.28V1019.71C620.536 1020.34 620.416 1020.94 620.206 1021.51C619.967 1022.08 619.607 1022.58 619.188 1023.03L588.715 1053.51C588.277 1053.93 587.759 1054.29 587.189 1054.53C586.62 1054.74 586.009 1054.86 585.394 1054.86Z" stroke="#DADADA" stroke-linecap="round" stroke-linejoin="round"/>
<path fill-rule="evenodd" clip-rule="evenodd" d="M1049.15 1155.49C1050.08 1153.87 1050.53 1152.04 1050.5 1150.18C1050.44 1148.32 1049.9 1146.53 1048.94 1144.94L991.373 1051.2C990.474 1049.67 989.156 1048.39 987.598 1047.52C986.039 1046.62 984.271 1046.14 982.443 1046.14C980.645 1046.14 978.877 1046.62 977.289 1047.52C975.731 1048.39 974.442 1049.67 973.513 1051.2L915.978 1144.94C914.989 1146.53 914.449 1148.32 914.419 1150.18C914.389 1152.04 914.839 1153.87 915.738 1155.49C916.637 1157.1 917.985 1158.45 919.574 1159.38C921.192 1160.34 923.02 1160.82 924.878 1160.82H1040.04C1041.9 1160.82 1043.72 1160.34 1045.31 1159.38C1046.93 1158.45 1048.25 1157.1 1049.15 1155.49Z" stroke="#DADADA" stroke-linecap="round" stroke-linejoin="round"/>
<path d="M752.842 934.908C767.106 934.908 780.801 940.239 790.899 949.733C800.998 959.235 806.692 972.091 806.692 985.516V1031.9C806.692 1032.47 806.572 1033.01 806.362 1033.52C806.123 1034.06 805.793 1034.51 805.373 1034.93C804.954 1035.32 804.444 1035.62 803.905 1035.83C803.365 1036.04 802.766 1036.16 802.167 1036.13H752.842C745.77 1036.13 738.758 1034.84 732.225 1032.29C725.692 1029.75 719.759 1026 714.755 1021.33C709.75 1016.62 705.795 1011.05 703.068 1004.9C700.371 998.761 698.992 992.168 698.992 985.516" stroke="#DADADA" stroke-linecap="round" stroke-linejoin="round"/>
<path d="M752.839 1036.13C738.545 1036.13 724.85 1030.8 714.751 1021.33C704.653 1011.83 698.989 998.944 698.989 985.519V939.143C698.959 938.586 699.079 938.031 699.318 937.516C699.528 936.997 699.858 936.527 700.278 936.131C700.697 935.739 701.207 935.427 701.746 935.214C702.315 935.005 702.885 934.9 703.484 934.909H752.839C759.911 934.909 766.893 936.218 773.425 938.762C779.958 941.303 785.892 945.034 790.896 949.733C795.901 954.444 799.856 960.018 802.583 966.161C805.28 972.304 806.689 978.866 806.689 985.519" stroke="#DADADA" stroke-linecap="round" stroke-linejoin="round"/>
<path d="M1210.3 1149.64C1220.91 1149.64 1231.13 1153.63 1238.65 1160.67C1246.17 1167.74 1250.4 1177.33 1250.4 1187.34V1221.86C1250.4 1222.28 1250.31 1222.7 1250.16 1223.09C1249.98 1223.48 1249.74 1223.81 1249.41 1224.11C1249.11 1224.41 1248.75 1224.65 1248.33 1224.8C1247.91 1224.95 1247.49 1225.04 1247.04 1225.04H1210.3C1205.03 1225.04 1199.81 1224.05 1194.93 1222.16C1190.07 1220.27 1185.67 1217.48 1181.92 1213.98C1178.21 1210.47 1175.27 1206.34 1173.23 1201.75C1171.22 1197.2 1170.18 1192.28 1170.18 1187.34" stroke="#DADADA" stroke-linecap="round" stroke-linejoin="round"/>
<path d="M1210.3 1225.01C1199.66 1225.01 1189.44 1221.05 1181.92 1213.98C1174.4 1206.91 1170.18 1197.32 1170.18 1187.34V1152.79C1170.18 1152.37 1170.27 1151.95 1170.45 1151.56C1170.6 1151.2 1170.84 1150.84 1171.16 1150.54C1171.46 1150.24 1171.85 1150.03 1172.24 1149.85C1172.66 1149.7 1173.11 1149.64 1173.53 1149.64H1210.3C1215.55 1149.64 1220.76 1150.6 1225.64 1152.49C1230.5 1154.41 1234.93 1157.16 1238.65 1160.67C1242.36 1164.17 1245.33 1168.34 1247.34 1172.89C1249.35 1177.48 1250.4 1182.36 1250.4 1187.34" stroke="#DADADA" stroke-linecap="round" stroke-linejoin="round"/>
<path d="M956.61 1160.43C945.523 1160.43 934.885 1164.56 927.034 1171.93C919.182 1179.3 914.777 1189.31 914.777 1199.74V1235.79C914.777 1236.24 914.837 1236.66 915.017 1237.08C915.197 1237.47 915.466 1237.83 915.796 1238.13C916.096 1238.46 916.485 1238.7 916.935 1238.85C917.354 1239.03 917.804 1239.09 918.284 1239.09H956.61C962.124 1239.09 967.548 1238.07 972.643 1236.09C977.707 1234.11 982.322 1231.24 986.217 1227.58C990.083 1223.92 993.17 1219.58 995.267 1214.81C997.395 1210.05 998.474 1204.93 998.474 1199.74" stroke="#DADADA" stroke-linecap="round" stroke-linejoin="round"/>
<path d="M956.61 1239.09C967.728 1239.09 978.366 1234.95 986.217 1227.58C994.068 1220.18 998.474 1210.2 998.474 1199.74V1163.72C998.474 1163.27 998.384 1162.85 998.204 1162.43C998.054 1162.04 997.784 1161.68 997.455 1161.38C997.125 1161.06 996.735 1160.82 996.316 1160.67C995.896 1160.49 995.417 1160.43 994.968 1160.43H956.61C951.127 1160.43 945.673 1161.44 940.608 1163.42C935.514 1165.4 930.899 1168.28 927.034 1171.93C923.138 1175.59 920.052 1179.93 917.954 1184.7C915.856 1189.46 914.777 1194.59 914.777 1199.74" stroke="#DADADA" stroke-linecap="round" stroke-linejoin="round"/>
<path d="M589.906 1054.89C610.259 1054.89 629.797 1062.47 644.181 1076.01C658.595 1089.53 666.656 1107.9 666.656 1127.05V1193.15C666.686 1193.93 666.506 1194.74 666.206 1195.46C665.877 1196.21 665.397 1196.87 664.798 1197.44C664.199 1198.01 663.509 1198.46 662.73 1198.76C661.921 1199.06 661.082 1199.21 660.243 1199.18H589.906C579.825 1199.18 569.843 1197.32 560.53 1193.69C551.216 1190.07 542.753 1184.76 535.624 1178.05C528.498 1171.37 522.844 1163.4 518.984 1154.65C515.127 1145.89 513.141 1136.52 513.141 1127.05" stroke="#DADADA" stroke-linecap="round" stroke-linejoin="round"/>
<path d="M589.903 1199.18C569.544 1199.18 550.018 1191.6 535.622 1178.05C521.226 1164.51 513.141 1146.17 513.141 1127.02V1060.91C513.129 1060.13 513.288 1059.32 513.606 1058.6C513.926 1057.86 514.397 1057.2 514.996 1056.63C515.596 1056.06 516.309 1055.61 517.094 1055.31C517.879 1055.01 518.718 1054.86 519.566 1054.89H589.903C599.984 1054.89 609.957 1056.75 619.277 1060.37C628.596 1064 637.047 1069.3 644.179 1076.02C651.311 1082.7 656.974 1090.67 660.81 1099.42C664.676 1108.17 666.654 1117.55 666.654 1127.02" stroke="#DADADA" stroke-linecap="round" stroke-linejoin="round"/>
<path d="M1059.25 1043.41L1029.61 1016.5C1028.5 1015.48 1027.57 1014.19 1026.94 1012.7C1026.31 1011.23 1025.98 1009.58 1025.98 1007.9V983.807C1025.98 980.961 1026.94 978.204 1028.65 976.166C1030.36 974.158 1032.7 973.02 1035.12 973.02H1099.1C1101.53 973.02 1103.84 974.158 1105.54 976.166C1107.28 978.204 1108.24 980.961 1108.24 983.807V1008.14V1008.17C1108.21 1009.85 1107.88 1011.5 1107.25 1012.96C1106.62 1014.46 1105.72 1015.75 1104.58 1016.77L1074.56 1043.41" stroke="#DADADA" stroke-linecap="round" stroke-linejoin="round"/>
<path d="M645.024 1001.09L623.208 981.796C622.399 981.077 621.74 980.148 621.26 979.099C620.811 978.02 620.571 976.852 620.541 975.653V958.392C620.541 956.325 621.26 954.347 622.519 952.899C623.777 951.446 625.485 950.631 627.283 950.631H674.301C676.099 950.631 677.807 951.446 679.065 952.899C680.324 954.347 681.043 956.325 681.043 958.392V975.803V975.833C681.043 977.031 680.774 978.2 680.324 979.279C679.845 980.358 679.185 981.287 678.376 982.006L656.261 1001.09" stroke="#DADADA" stroke-linecap="round" stroke-linejoin="round"/>
<path d="M645.024 1001.13L623.208 1020.87C622.399 1021.59 621.74 1022.52 621.26 1023.6C620.811 1024.68 620.571 1025.85 620.541 1027.05V1027.08V1044.31C620.541 1046.38 621.26 1048.32 622.519 1049.79C623.777 1051.23 625.485 1052.07 627.283 1052.07H674.301C676.099 1052.07 677.807 1051.23 679.065 1049.79C680.324 1048.32 681.043 1046.38 681.043 1044.31V1026.84C681.043 1025.64 680.774 1024.47 680.324 1023.39C679.845 1022.34 679.185 1021.41 678.376 1020.69L678.346 1020.66L656.261 1001.13" stroke="#DADADA" stroke-linecap="round" stroke-linejoin="round"/>
<path d="M846.516 1191.18L805.462 1153.9C803.904 1152.49 802.645 1150.69 801.746 1148.62C800.877 1146.56 800.428 1144.31 800.428 1142V1108.62C800.428 1104.63 801.747 1100.83 804.114 1098.01C806.511 1095.22 809.718 1093.63 813.074 1093.63H901.715C905.071 1093.63 908.307 1095.22 910.674 1098.01C913.042 1100.83 914.39 1104.63 914.39 1108.62V1142.3V1142.36C914.36 1144.67 913.911 1146.95 913.042 1149.01C912.173 1151.08 910.884 1152.88 909.356 1154.26L867.733 1191.18" stroke="#DADADA" stroke-linecap="round" stroke-linejoin="round"/>
<path fill-rule="evenodd" clip-rule="evenodd" d="M172.719 730.636C173.378 729.455 173.711 728.119 173.681 726.767C173.651 725.419 173.261 724.103 172.551 722.953L172.548 722.947L130.622 654.629C129.951 653.514 129.004 652.589 127.871 651.941C126.726 651.291 125.432 650.949 124.113 650.949C122.798 650.949 121.503 651.291 120.359 651.941C119.226 652.589 118.276 653.514 117.608 654.629L75.6816 722.947L75.6756 722.956C74.9684 724.104 74.5787 725.419 74.5487 726.767C74.5188 728.119 74.8515 729.455 75.5108 730.636C76.1731 731.817 77.1379 732.803 78.3066 733.486C79.4753 734.172 80.8088 734.535 82.1633 734.535H166.063C167.421 734.535 168.754 734.172 169.923 733.486C171.092 732.803 172.057 731.817 172.719 730.636Z" stroke="#DADADA" stroke-linecap="round" stroke-linejoin="round"/>
<path d="M311.532 816.704H362.005C362.991 816.704 363.935 816.311 364.633 815.616C365.328 814.918 365.721 813.974 365.721 812.988V738.695C365.721 737.712 365.328 736.766 364.633 736.07C363.935 735.372 362.991 734.982 362.005 734.982H287.712C286.726 734.982 285.782 735.372 285.084 736.07C284.389 736.766 283.996 737.712 283.996 738.695V789.168C283.996 789.65 284.089 790.13 284.272 790.576C284.455 791.023 284.724 791.427 285.066 791.769L308.931 815.637C309.273 815.976 309.68 816.246 310.127 816.428C310.57 816.611 311.05 816.707 311.532 816.704Z" stroke="#DADADA" stroke-linecap="round" stroke-linejoin="round"/>
<path d="M488.277 629.439H574.748C576.438 629.439 578.056 628.768 579.249 627.575C580.442 626.382 581.113 624.764 581.113 623.074V495.794C581.113 494.107 580.442 492.489 579.249 491.294C578.056 490.101 576.438 489.43 574.748 489.43H447.469C445.781 489.43 444.163 490.101 442.967 491.294C441.775 492.489 441.104 494.107 441.104 495.794V582.266C441.101 583.093 441.262 583.911 441.577 584.675C441.889 585.439 442.35 586.134 442.935 586.722L483.824 627.608C484.408 628.192 485.103 628.654 485.868 628.969C486.632 629.283 487.453 629.442 488.277 629.439Z" stroke="#DADADA" stroke-linecap="round" stroke-linejoin="round"/>
<path d="M777.587 732.7H727.124C726.135 732.7 725.176 732.307 724.487 731.612C723.798 730.914 723.408 729.97 723.408 728.984V654.691C723.408 653.705 723.798 652.761 724.487 652.066C725.176 651.368 726.135 650.979 727.124 650.979H801.411C802.4 650.979 803.329 651.368 804.048 652.066C804.737 652.761 805.127 653.705 805.127 654.691V705.164C805.127 705.646 805.037 706.126 804.857 706.572C804.677 707.019 804.408 707.423 804.048 707.765L780.195 731.63C779.835 731.972 779.446 732.241 778.996 732.424C778.547 732.607 778.067 732.7 777.587 732.7Z" stroke="#DADADA" stroke-linecap="round" stroke-linejoin="round"/>
<path d="M224.636 590.67H163.441C162.249 590.67 161.101 590.194 160.256 589.352C159.414 588.506 158.938 587.359 158.938 586.166V496.09C158.938 494.897 159.414 493.75 160.256 492.904C161.101 492.062 162.249 491.586 163.441 491.586H253.518C254.71 491.586 255.858 492.062 256.703 492.904C257.545 493.75 258.022 494.897 258.022 496.09V557.284C258.022 557.869 257.911 558.45 257.686 558.989C257.464 559.532 257.138 560.023 256.727 560.437L227.788 589.375C227.375 589.786 226.884 590.113 226.341 590.334C225.802 590.559 225.22 590.67 224.636 590.67Z" stroke="#DADADA" stroke-linecap="round" stroke-linejoin="round"/>
<path d="M384.937 998.911H485.414C487.374 998.911 489.256 998.131 490.644 996.753C492.028 995.345 492.807 993.487 492.807 991.509V843.618C492.807 841.656 492.028 839.777 490.644 838.389C489.256 837.002 487.374 836.223 485.414 836.223H337.518C335.558 836.223 333.676 837.002 332.289 838.389C330.904 839.777 330.125 841.656 330.125 843.618V944.093C330.122 945.055 330.308 946.005 330.67 946.892C331.036 947.782 331.572 948.588 332.25 949.268L379.762 996.783C380.442 997.472 381.248 997.982 382.138 998.371C383.025 998.731 383.978 998.911 384.937 998.911Z" stroke="#DADADA" stroke-linecap="round" stroke-linejoin="round"/>
<path fill-rule="evenodd" clip-rule="evenodd" d="M683.584 691.289C684.483 689.67 684.963 687.837 684.903 685.982C684.873 684.133 684.334 682.326 683.375 680.75L683.345 680.737L625.809 587.002C624.88 585.471 623.592 584.201 622.033 583.314C620.475 582.424 618.677 581.953 616.879 581.953C615.081 581.953 613.283 582.424 611.725 583.314C610.167 584.201 608.878 585.471 607.949 587.002L550.402 680.737L550.396 680.75C549.422 682.326 548.885 684.133 548.846 685.982C548.804 687.837 549.26 689.67 550.168 691.289C551.073 692.91 552.397 694.261 554.004 695.202C555.61 696.14 557.438 696.638 559.299 696.641H674.445C676.333 696.638 678.161 696.14 679.749 695.202C681.367 694.261 682.685 692.91 683.584 691.289Z" stroke="#DADADA" stroke-linecap="round" stroke-linejoin="round"/>
<path fill-rule="evenodd" clip-rule="evenodd" d="M697.762 944.707C698.631 943.142 699.05 941.371 699.02 939.576C698.961 937.787 698.451 936.04 697.552 934.518L697.522 934.509L643.043 843.887C642.174 842.404 640.945 841.176 639.477 840.321C637.979 839.458 636.301 839.006 634.593 839.006C632.884 839.006 631.176 839.458 629.708 840.321C628.24 841.176 627.011 842.404 626.142 843.887L571.633 934.509L571.627 934.518C570.704 936.043 570.198 937.787 570.159 939.576C570.12 941.371 570.554 943.142 571.411 944.707C572.271 946.274 573.524 947.58 575.043 948.488C576.566 949.399 578.295 949.879 580.06 949.882H689.102C690.87 949.879 692.608 949.399 694.136 948.488C695.634 947.58 696.893 946.274 697.762 944.707Z" stroke="#DADADA" stroke-linecap="round" stroke-linejoin="round"/>
<path fill-rule="evenodd" clip-rule="evenodd" d="M763.984 782.633C764.404 781.893 764.613 781.053 764.613 780.205C764.583 779.357 764.344 778.53 763.894 777.811V777.805L737.164 734.908C736.744 734.207 736.145 733.626 735.426 733.221C734.677 732.813 733.868 732.598 733.029 732.598C732.19 732.598 731.351 732.813 730.632 733.221C729.912 733.626 729.313 734.207 728.863 734.908L702.163 777.805V777.811C701.714 778.533 701.444 779.357 701.444 780.205C701.414 781.053 701.624 781.893 702.043 782.633C702.463 783.376 703.092 783.993 703.841 784.425C704.59 784.853 705.43 785.081 706.299 785.084H759.759C760.628 785.081 761.467 784.853 762.216 784.425C762.965 783.993 763.565 783.376 763.984 782.633Z" stroke="#DADADA" stroke-linecap="round" stroke-linejoin="round"/>
<path fill-rule="evenodd" clip-rule="evenodd" d="M282.907 784.576C283.32 783.833 283.527 782.997 283.509 782.146C283.491 781.301 283.245 780.474 282.802 779.752L282.799 779.748L256.491 736.851C256.072 736.15 255.479 735.569 254.765 735.164C254.046 734.754 253.234 734.541 252.41 734.541C251.583 734.541 250.771 734.754 250.052 735.164C249.341 735.569 248.745 736.15 248.326 736.851L222.021 779.748L222.018 779.752C221.571 780.474 221.329 781.301 221.308 782.146C221.29 782.997 221.5 783.833 221.913 784.576C222.327 785.316 222.932 785.937 223.666 786.365C224.4 786.797 225.236 787.024 226.087 787.024H278.73C279.584 787.024 280.417 786.797 281.151 786.365C281.885 785.937 282.49 785.316 282.907 784.576Z" stroke="#DADADA" stroke-linecap="round" stroke-linejoin="round"/>
<path fill-rule="evenodd" clip-rule="evenodd" d="M440.145 833.244C440.702 832.228 440.981 831.08 440.957 829.918C440.933 828.755 440.603 827.622 440.004 826.633L440.001 826.627L404.652 767.845C404.086 766.883 403.289 766.086 402.333 765.532C401.368 764.971 400.277 764.678 399.166 764.678C398.054 764.678 396.963 764.971 395.998 765.532C395.042 766.086 394.245 766.883 393.679 767.845L358.33 826.627L358.324 826.636C357.728 827.622 357.398 828.755 357.374 829.918C357.35 831.08 357.629 832.228 358.187 833.244C358.744 834.26 359.556 835.108 360.542 835.698C361.528 836.288 362.652 836.6 363.796 836.6H434.535C435.68 836.6 436.804 836.288 437.79 835.698C438.775 835.108 439.588 834.26 440.145 833.244Z" stroke="#DADADA" stroke-linecap="round" stroke-linejoin="round"/>
<path d="M385.666 461.643C400.371 461.643 414.47 467.168 424.869 477.003C435.264 486.835 441.104 500.176 441.104 514.084V562.135C441.113 562.713 441 563.289 440.769 563.825C440.538 564.362 440.197 564.847 439.765 565.258C439.331 565.665 438.818 565.989 438.252 566.207C437.682 566.423 437.077 566.531 436.466 566.525H385.666C378.388 566.525 371.178 565.168 364.453 562.534C357.726 559.897 351.616 556.034 346.467 551.164C341.319 546.295 337.235 540.514 334.451 534.152C331.664 527.791 330.229 520.97 330.229 514.084" stroke="#DADADA" stroke-linecap="round" stroke-linejoin="round"/>
<path d="M385.667 566.525C370.965 566.525 356.863 561 346.468 551.165C336.072 541.333 330.229 527.992 330.229 514.084V466.033C330.223 465.455 330.337 464.879 330.567 464.343C330.798 463.806 331.14 463.321 331.571 462.91C332.003 462.503 332.518 462.179 333.085 461.961C333.651 461.745 334.259 461.637 334.871 461.643H385.667C392.949 461.643 400.159 463 406.883 465.634C413.61 468.271 419.721 472.134 424.869 477.004C430.017 481.873 434.099 487.654 436.886 494.016C439.672 500.377 441.105 507.198 441.105 514.084" stroke="#DADADA" stroke-linecap="round" stroke-linejoin="round"/>
<path d="M845.72 685.447C856.358 685.447 866.577 689.418 874.098 696.487C881.62 703.556 885.845 713.142 885.845 723.139V757.678C885.845 758.092 885.755 758.506 885.576 758.892C885.426 759.276 885.186 759.626 884.857 759.92C884.557 760.214 884.167 760.447 883.778 760.603C883.358 760.759 882.909 760.837 882.489 760.831H845.72C840.476 760.831 835.262 759.857 830.377 757.963C825.523 756.069 821.088 753.291 817.372 749.791C813.656 746.291 810.689 742.138 808.682 737.565C806.674 732.992 805.625 728.09 805.625 723.139" stroke="#DADADA" stroke-linecap="round" stroke-linejoin="round"/>
<path d="M845.72 760.827C835.082 760.827 824.894 756.856 817.372 749.787C809.85 742.718 805.625 733.128 805.625 723.132V688.595C805.625 688.179 805.715 687.765 805.865 687.382C806.045 686.995 806.284 686.644 806.614 686.351C806.914 686.057 807.273 685.826 807.693 685.667C808.112 685.512 808.532 685.434 808.981 685.44H845.72C850.994 685.44 856.208 686.414 861.063 688.308C865.947 690.202 870.352 692.979 874.098 696.479C877.814 699.98 880.751 704.136 882.789 708.709C884.796 713.282 885.845 718.184 885.845 723.132" stroke="#DADADA" stroke-linecap="round" stroke-linejoin="round"/>
<path d="M594.869 696.211C584.234 696.211 574.033 700.185 566.515 707.251C558.993 714.32 554.768 723.909 554.768 733.906V768.445C554.762 768.859 554.846 769.272 555.011 769.659C555.178 770.042 555.424 770.393 555.739 770.687C556.05 770.98 556.422 771.214 556.832 771.37C557.243 771.526 557.684 771.604 558.124 771.598H594.869C600.134 771.598 605.348 770.624 610.203 768.73C615.087 766.836 619.492 764.058 623.238 760.558C626.954 757.058 629.891 752.902 631.928 748.329C633.936 743.756 634.955 738.856 634.955 733.906" stroke="#DADADA" stroke-linecap="round" stroke-linejoin="round"/>
<path d="M594.869 771.59C605.498 771.59 615.716 767.616 623.238 760.547C630.73 753.481 634.955 743.892 634.955 733.895V699.356C634.985 698.942 634.895 698.529 634.715 698.142C634.565 697.759 634.325 697.408 633.996 697.114C633.696 696.821 633.307 696.587 632.917 696.431C632.498 696.275 632.048 696.197 631.599 696.203H594.869C589.603 696.203 584.386 697.177 579.523 699.071C574.656 700.965 570.236 703.743 566.514 707.243C562.79 710.743 559.835 714.896 557.821 719.472C555.804 724.045 554.768 728.945 554.768 733.895" stroke="#DADADA" stroke-linecap="round" stroke-linejoin="round"/>
<path d="M273.098 816.836C258.244 816.836 244.001 822.383 233.498 832.254C222.995 842.128 217.094 855.517 217.094 869.478V917.712C217.085 918.293 217.202 918.872 217.436 919.408C217.667 919.948 218.011 920.436 218.449 920.846C218.886 921.257 219.405 921.581 219.977 921.799C220.549 922.018 221.164 922.126 221.781 922.12H273.098C280.452 922.12 287.734 920.757 294.527 918.111C301.324 915.468 307.497 911.59 312.696 906.699C317.898 901.812 322.022 896.01 324.839 889.621C327.653 883.236 329.1 876.391 329.1 869.478" stroke="#DADADA" stroke-linecap="round" stroke-linejoin="round"/>
<path d="M273.098 922.114C287.949 922.114 302.193 916.567 312.696 906.696C323.199 896.825 329.099 883.433 329.099 869.472V821.238C329.108 820.656 328.991 820.081 328.761 819.541C328.527 819.005 328.182 818.517 327.745 818.106C327.307 817.696 326.789 817.369 326.217 817.15C325.644 816.931 325.03 816.824 324.413 816.833H273.098C265.741 816.833 258.459 818.193 251.666 820.839C244.87 823.485 238.697 827.363 233.497 832.25C228.295 837.138 224.172 842.942 221.358 849.328C218.541 855.714 217.094 862.561 217.094 869.472" stroke="#DADADA" stroke-linecap="round" stroke-linejoin="round"/>
<path d="M224.336 590.682C244.696 590.682 264.222 598.284 278.618 611.817C293.013 625.35 301.098 643.701 301.098 662.838V728.956C301.11 729.75 300.952 730.541 300.634 731.278C300.313 732.015 299.843 732.687 299.243 733.247C298.644 733.81 297.931 734.257 297.146 734.557C296.364 734.856 295.522 735.003 294.674 734.994H224.336C214.256 734.994 204.274 733.127 194.96 729.501C185.647 725.875 177.184 720.559 170.058 713.859C162.929 707.158 157.274 699.205 153.418 690.452C149.558 681.696 147.574 672.313 147.574 662.838" stroke="#DADADA" stroke-linecap="round" stroke-linejoin="round"/>
<path d="M224.337 734.993C203.978 734.993 184.455 727.39 170.059 713.857C155.663 700.327 147.575 681.973 147.575 662.836V596.721C147.563 595.924 147.722 595.133 148.042 594.396C148.36 593.659 148.833 592.991 149.433 592.427C150.029 591.864 150.742 591.42 151.528 591.121C152.313 590.821 153.152 590.671 154 590.68H224.337C234.418 590.68 244.4 592.547 253.713 596.173C263.027 599.799 271.489 605.115 278.618 611.816C285.744 618.516 291.399 626.469 295.259 635.225C299.115 643.979 301.102 653.361 301.102 662.836" stroke="#DADADA" stroke-linecap="round" stroke-linejoin="round"/>
<path d="M693.687 579.233L664.05 552.316C662.941 551.31 662.012 550.009 661.383 548.52C660.753 547.031 660.424 545.388 660.424 543.722V519.638C660.424 516.77 661.383 514.019 663.091 511.994C664.799 509.965 667.136 508.826 669.564 508.826H733.512C735.939 508.826 738.277 509.965 739.985 511.994C741.693 514.019 742.652 516.77 742.652 519.638V543.959V543.992C742.652 545.658 742.322 547.3 741.693 548.789C741.064 550.282 740.165 551.579 739.026 552.586L708.999 579.233" stroke="#DADADA" stroke-linecap="round" stroke-linejoin="round"/>
<path d="M693.687 579.236L664.05 606.808C662.941 607.815 662.012 609.116 661.383 610.605C660.753 612.095 660.424 613.737 660.424 615.403V615.436V639.487C660.424 642.355 661.383 645.106 663.091 647.131C664.799 649.16 667.136 650.299 669.564 650.299H733.512C735.939 650.299 738.277 649.16 739.985 647.131C741.693 645.106 742.652 642.355 742.652 639.487V615.133C742.652 613.467 742.322 611.825 741.693 610.335C741.064 608.843 740.165 607.546 739.026 606.539L738.996 606.518L708.999 579.236" stroke="#DADADA" stroke-linecap="round" stroke-linejoin="round"/>
<path d="M286.776 526.582L261.164 503.322C260.193 502.453 259.408 501.33 258.863 500.041C258.317 498.755 258.029 497.335 258.023 495.897V475.082C258.023 472.604 258.857 470.227 260.337 468.474C261.817 466.724 263.828 465.738 265.923 465.738H321.208C323.302 465.738 325.31 466.724 326.79 468.474C328.271 470.227 329.104 472.604 329.104 475.082V496.1V496.13C329.098 497.569 328.81 498.989 328.265 500.275C327.722 501.563 326.934 502.687 325.963 503.556L300.004 526.582" stroke="#DADADA" stroke-linecap="round" stroke-linejoin="round"/>
<path d="M286.776 526.586L261.164 550.412C260.193 551.284 259.408 552.405 258.863 553.694C258.317 554.982 258.032 556.4 258.023 557.841V557.868V578.656C258.023 581.131 258.857 583.507 260.337 585.26C261.817 587.013 263.828 587.996 265.923 587.996H321.208C323.302 587.996 325.31 587.013 326.79 585.26C328.271 583.507 329.104 581.131 329.104 578.656V557.607C329.098 556.166 328.81 554.748 328.265 553.46C327.722 552.171 326.934 551.051 325.963 550.178L325.945 550.161L300.004 526.586" stroke="#DADADA" stroke-linecap="round" stroke-linejoin="round"/>
<path d="M179.08 795.826L153.465 772.566C152.497 771.694 151.709 770.574 151.163 769.285C150.621 767.997 150.333 766.579 150.324 765.138V744.323C150.324 741.845 151.157 739.471 152.638 737.718C154.118 735.965 156.129 734.982 158.223 734.982H213.509C215.603 734.982 217.611 735.965 219.091 737.718C220.575 739.471 221.405 741.845 221.405 744.323V765.344V765.371C221.399 766.813 221.111 768.23 220.566 769.519C220.023 770.807 219.235 771.928 218.267 772.8L192.307 795.826" stroke="#DADADA" stroke-linecap="round" stroke-linejoin="round"/>
<path d="M179.08 795.832L153.465 819.661C152.497 820.53 151.709 821.654 151.163 822.943C150.621 824.228 150.333 825.649 150.324 827.087V827.117V847.902C150.324 850.38 151.157 852.756 152.638 854.509C154.118 856.259 156.129 857.245 158.223 857.245H213.509C215.603 857.245 217.611 856.259 219.094 854.509C220.575 852.756 221.405 850.38 221.405 847.902V826.853C221.399 825.415 221.111 823.994 220.566 822.709C220.023 821.42 219.235 820.297 218.267 819.428L218.246 819.41L192.307 795.832" stroke="#DADADA" stroke-linecap="round" stroke-linejoin="round"/>
<path d="M662.313 782.103L637.95 759.976C637.021 759.146 636.272 758.079 635.762 756.853C635.253 755.628 634.983 754.279 634.953 752.907V733.105C634.953 730.746 635.762 728.487 637.171 726.821C638.579 725.155 640.497 724.217 642.475 724.217H695.066C697.074 724.217 698.991 725.155 700.4 726.821C701.808 728.487 702.588 730.746 702.588 733.105V753.102V753.131C702.588 754.501 702.318 755.849 701.808 757.075C701.269 758.301 700.52 759.368 699.621 760.198L674.898 782.103" stroke="#DADADA" stroke-linecap="round" stroke-linejoin="round"/>
<path d="M662.313 782.107L637.95 804.777C637.021 805.604 636.272 806.674 635.762 807.9C635.253 809.125 634.983 810.474 634.953 811.843V811.87V831.648C634.953 834.003 635.762 836.266 637.171 837.932C638.579 839.598 640.497 840.536 642.475 840.536H695.066C697.074 840.536 698.991 839.598 700.4 837.932C701.808 836.266 702.588 834.003 702.588 831.648V811.621C702.588 810.252 702.318 808.9 701.808 807.678C701.269 806.452 700.52 805.382 699.621 804.555L699.591 804.537L674.898 782.107" stroke="#DADADA" stroke-linecap="round" stroke-linejoin="round"/>
<path d="M480.942 726.999L439.876 689.709C438.321 688.312 437.059 686.511 436.187 684.447C435.315 682.382 434.854 680.108 434.842 677.8V644.426C434.842 640.456 436.175 636.644 438.552 633.836C440.925 631.028 444.146 629.449 447.503 629.449H536.14C539.5 629.449 542.721 631.028 545.094 633.836C547.471 636.644 548.804 640.456 548.804 644.426V678.127V678.175C548.792 680.482 548.331 682.757 547.459 684.821C546.587 686.886 545.325 688.687 543.77 690.083L502.149 726.999" stroke="#DADADA" stroke-linecap="round" stroke-linejoin="round"/>
<path d="M480.942 726.998L439.876 765.199C438.321 766.593 437.059 768.394 436.187 770.458C435.315 772.523 434.854 774.797 434.842 777.105V777.153V810.479C434.842 814.452 436.175 818.261 438.552 821.069C440.925 823.88 444.146 825.456 447.506 825.456H536.14C539.5 825.456 542.721 823.88 545.094 821.069C547.471 818.261 548.804 814.452 548.804 810.479V776.73C548.792 774.423 548.331 772.148 547.459 770.084C546.587 768.019 545.325 766.221 543.77 764.825L543.74 764.795L502.149 726.998" stroke="#DADADA" stroke-linecap="round" stroke-linejoin="round"/>
<path d="M330.425 585.041H429.314C432.211 585.041 434.559 587.389 434.559 590.285V728.131C434.559 731.027 432.211 733.375 429.314 733.375H330.425C327.529 733.375 325.181 731.027 325.181 728.131V590.285C325.181 587.389 327.529 585.041 330.425 585.041Z" stroke="#DADADA"/>
<path d="M687.037 1037.54H794.916C797.812 1037.54 800.16 1039.88 800.16 1042.78V1192.61C800.16 1195.51 797.812 1197.86 794.916 1197.86H687.037C684.141 1197.86 681.793 1195.51 681.793 1192.61V1042.78C681.793 1039.88 684.141 1037.54 687.037 1037.54Z" stroke="#DADADA"/>
<path d="M81.7052 734.875H144.635C147.531 734.875 149.879 737.223 149.879 740.119V830.019C149.879 832.915 147.531 835.263 144.635 835.263H81.7052C78.809 835.263 76.4611 832.915 76.4611 830.019V740.119C76.4611 737.223 78.809 734.875 81.7052 734.875Z" stroke="#DADADA"/>
<path d="M498.241 824.773H567.164C570.06 824.773 572.408 827.121 572.408 830.018V928.907C572.408 931.803 570.06 934.151 567.164 934.151H498.241C495.345 934.151 492.997 931.803 492.997 928.907V830.018C492.997 827.121 495.345 824.773 498.241 824.773Z" stroke="#DADADA"/>
<path d="M734.981 785.816H803.904C806.801 785.816 809.148 788.164 809.148 791.061V889.95C809.148 892.846 806.801 895.194 803.904 895.194H734.981C732.085 895.194 729.737 892.846 729.737 889.95V791.061C729.737 788.164 732.085 785.816 734.981 785.816Z" stroke="#DADADA"/>
<path fill-rule="evenodd" clip-rule="evenodd" d="M1194.18 505.217C1192.81 502.676 1192.12 499.802 1192.18 496.892C1192.24 493.992 1193.05 491.157 1194.51 488.685L1194.54 488.67L1281.48 341.669C1282.86 339.266 1284.83 337.273 1287.17 335.885C1289.54 334.489 1292.24 333.752 1294.96 333.752C1297.69 333.752 1300.39 334.489 1302.75 335.885C1305.09 337.273 1307.07 339.266 1308.45 341.669L1395.38 488.67V488.688C1396.85 491.16 1397.66 493.992 1397.72 496.892C1397.78 499.802 1397.09 502.676 1395.74 505.217C1394.36 507.758 1392.35 509.874 1389.93 511.348C1387.5 512.826 1384.74 513.605 1381.92 513.608H1207.97C1205.15 513.605 1202.4 512.826 1199.97 511.348C1197.54 509.874 1195.56 507.758 1194.18 505.217Z" stroke="#DADADA" stroke-linecap="round" stroke-linejoin="round"/>
<path d="M533.376 292.649H352.474C348.941 292.649 345.555 291.247 343.059 288.751C340.563 286.254 339.16 282.868 339.16 279.335V13.0563C339.16 9.52622 340.563 6.14003 343.059 3.64383C345.555 1.14462 348.941 -0.257812 352.474 -0.257812H618.741C622.277 -0.257812 625.663 1.14462 628.181 3.64383C630.668 6.14003 632.076 9.52622 632.076 13.0563V193.961C632.076 195.69 631.747 197.401 631.087 199.001C630.428 200.601 629.469 202.055 628.241 203.28L542.695 288.823C541.47 290.042 540.016 291.007 538.419 291.663C536.819 292.32 535.105 292.655 533.376 292.649Z" stroke="#DADADA" stroke-linecap="round" stroke-linejoin="round"/>
<path fill-rule="evenodd" clip-rule="evenodd" d="M126.081 420.36C124.199 417.021 123.249 413.243 123.336 409.422C123.419 405.607 124.531 401.882 126.554 398.634L126.569 398.613L246.093 205.413C248.002 202.255 250.705 199.636 253.938 197.814C257.202 195.974 260.891 195.006 264.645 195.006C268.4 195.006 272.089 195.974 275.349 197.814C278.583 199.636 281.286 202.255 283.195 205.413L402.722 398.613L402.737 398.637C404.76 401.885 405.868 405.607 405.955 409.422C406.039 413.243 405.092 417.021 403.207 420.36C401.325 423.701 398.575 426.482 395.239 428.421C391.907 430.36 388.11 431.384 384.242 431.387H145.049C141.181 431.384 137.384 430.36 134.049 428.421C130.716 426.482 127.965 423.701 126.081 420.36Z" stroke="#DADADA" stroke-linecap="round" stroke-linejoin="round"/>
<path d="M1086.57 210.912C1043.87 210.912 1002.94 226.848 972.761 255.215C942.585 283.584 925.654 322.058 925.654 362.174V500.775C925.624 502.444 925.954 504.101 926.613 505.647C927.272 507.19 928.291 508.596 929.52 509.777C930.779 510.957 932.277 511.889 933.925 512.515C935.573 513.145 937.341 513.456 939.109 513.435H1086.57C1107.7 513.435 1128.62 509.522 1148.16 501.922C1167.66 494.32 1185.4 483.178 1200.36 469.133C1215.28 455.085 1227.15 438.412 1235.24 420.06C1243.33 401.709 1247.49 382.039 1247.49 362.174" stroke="#DADADA" stroke-linecap="round" stroke-linejoin="round"/>
<path d="M1086.58 513.417C1129.25 513.417 1170.18 497.481 1200.36 469.115C1230.54 440.748 1247.5 402.274 1247.5 362.155V223.554C1247.5 221.885 1247.17 220.231 1246.51 218.685C1245.85 217.139 1244.86 215.733 1243.6 214.553C1242.34 213.375 1240.85 212.443 1239.2 211.814C1237.55 211.184 1235.78 210.873 1234.01 210.894H1086.58C1065.42 210.894 1044.51 214.807 1025 222.41C1005.46 230.012 987.719 241.154 972.765 255.199C957.842 269.244 945.975 285.921 937.884 304.272C929.793 322.624 925.658 342.293 925.658 362.155" stroke="#DADADA" stroke-linecap="round" stroke-linejoin="round"/>
<path d="M100.978 189.877L162.086 245.702C164.399 247.742 166.275 250.37 167.576 253.388C168.873 256.406 169.559 259.729 169.577 263.103V263.169V311.87C169.577 317.678 167.59 323.243 164.057 327.348C160.524 331.453 155.733 333.761 150.734 333.761H18.8399C13.8445 333.761 9.04988 331.453 5.51684 327.348C1.98379 323.243 0 317.678 0 311.87V262.555C0.0179799 259.184 0.701305 255.857 2.00185 252.843C3.2994 249.825 5.17827 247.194 7.48869 245.153L7.53661 245.111L69.4204 189.877" stroke="#DADADA" stroke-linecap="round" stroke-linejoin="round"/>
<path d="M882.193 176H637.244C634.348 176 632 178.348 632 181.244V503.273C632 506.169 634.348 508.517 637.244 508.517H882.193C885.089 508.517 887.437 506.169 887.437 503.273V181.244C887.437 178.348 885.089 176 882.193 176Z" stroke="#DADADA"/>
</g>
<defs>
<clipPath id="clip0_517_242">
<rect width="1958" height="1184" fill="white"/>
</clipPath>
</defs>
</svg>
