<svg width="1853" height="1188" viewBox="0 0 1853 1188" fill="none" xmlns="http://www.w3.org/2000/svg">
<path d="M1815.13 1146.84H1747.55C1746.23 1146.84 1744.97 1146.34 1744.03 1145.39C1743.09 1144.45 1742.59 1143.19 1742.59 1141.87V1042.39C1742.59 1041.07 1743.09 1039.81 1744.03 1038.87C1744.97 1037.94 1746.23 1037.41 1747.55 1037.41H1847.03C1848.35 1037.41 1849.61 1037.94 1850.55 1038.87C1851.5 1039.81 1852 1041.07 1852 1042.39V1109.97C1852 1110.63 1851.87 1111.26 1851.65 1111.86C1851.4 1112.45 1851.02 1112.99 1850.58 1113.46L1818.62 1145.43C1818.15 1145.87 1817.61 1146.24 1817.02 1146.49C1816.42 1146.71 1815.79 1146.84 1815.13 1146.84Z" stroke="#DADADA" stroke-linecap="round" stroke-linejoin="round"/>
<path fill-rule="evenodd" clip-rule="evenodd" d="M1382.29 806.769C1382.98 805.53 1383.32 804.128 1383.29 802.711C1383.26 801.296 1382.85 799.916 1382.1 798.709V798.703L1338.13 727.045C1337.43 725.876 1336.43 724.905 1335.23 724.226C1334.04 723.544 1332.69 723.186 1331.3 723.186C1329.92 723.186 1328.57 723.544 1327.38 724.226C1326.18 724.905 1325.18 725.876 1324.48 727.045L1280.51 798.703V798.713C1279.76 799.917 1279.35 801.296 1279.32 802.711C1279.28 804.128 1279.63 805.53 1280.32 806.769C1281.01 808.007 1282.02 809.041 1283.25 809.758C1284.47 810.477 1285.89 810.858 1287.3 810.858H1375.31C1376.72 810.858 1378.14 810.477 1379.36 809.758C1380.59 809.041 1381.59 808.007 1382.29 806.769Z" stroke="#DADADA" stroke-linecap="round" stroke-linejoin="round"/>
<path d="M1527.88 897.045H1580.84C1581.85 897.045 1582.85 896.634 1583.57 895.904C1584.33 895.172 1584.74 894.182 1584.74 893.148V815.223C1584.74 814.192 1584.33 813.198 1583.57 812.469C1582.85 811.737 1581.85 811.328 1580.84 811.328H1502.89C1501.88 811.328 1500.88 811.737 1500.16 812.469C1499.4 813.198 1498.99 814.192 1498.99 815.223V868.163C1498.99 868.669 1499.12 869.172 1499.31 869.64C1499.5 870.108 1499.78 870.533 1500.12 870.891L1525.17 895.926C1525.52 896.282 1525.93 896.564 1526.4 896.756C1526.87 896.948 1527.38 897.048 1527.88 897.045Z" stroke="#DADADA" stroke-linecap="round" stroke-linejoin="round"/>
<path d="M1713.29 700.62H1803.97C1805.73 700.62 1807.43 699.916 1808.68 698.665C1809.94 697.414 1810.66 695.717 1810.66 693.944V560.442C1810.66 558.672 1809.94 556.975 1808.68 555.721C1807.43 554.47 1805.73 553.766 1803.97 553.766H1670.48C1668.69 553.766 1666.99 554.47 1665.77 555.721C1664.51 556.975 1663.79 558.672 1663.79 560.442V651.141C1663.79 652.008 1663.97 652.866 1664.29 653.668C1664.63 654.469 1665.11 655.198 1665.7 655.815L1708.61 698.7C1709.2 699.313 1709.96 699.797 1710.74 700.127C1711.56 700.457 1712.41 700.623 1713.29 700.62Z" stroke="#DADADA" stroke-linecap="round" stroke-linejoin="round"/>
<path d="M1436.76 659.956H1372.54C1371.32 659.956 1370.09 659.456 1369.21 658.573C1368.33 657.687 1367.83 656.483 1367.83 655.232V560.751C1367.83 559.501 1368.33 558.297 1369.21 557.41C1370.09 556.527 1371.32 556.027 1372.54 556.027H1467.02C1468.28 556.027 1469.48 556.527 1470.39 557.41C1471.27 558.297 1471.77 559.501 1471.77 560.751V624.938C1471.77 625.551 1471.64 626.161 1471.39 626.726C1471.17 627.295 1470.83 627.811 1470.39 628.245L1440.06 658.598C1439.62 659.029 1439.08 659.371 1438.52 659.604C1437.95 659.84 1437.35 659.956 1436.76 659.956Z" stroke="#DADADA" stroke-linecap="round" stroke-linejoin="round"/>
<path d="M1604.88 1088.16H1710.27C1712.32 1088.16 1714.3 1087.34 1715.74 1085.89C1717.19 1084.42 1718 1082.47 1718 1080.39V925.271C1718 923.212 1717.19 921.242 1715.74 919.786C1714.3 918.331 1712.32 917.514 1710.27 917.514H1555.13C1553.08 917.514 1551.1 918.331 1549.66 919.786C1548.21 921.242 1547.39 923.212 1547.39 925.271V1030.66C1547.36 1031.67 1547.58 1032.66 1547.96 1033.59C1548.34 1034.53 1548.9 1035.37 1549.63 1036.09L1599.44 1085.92C1600.17 1086.65 1601.02 1087.18 1601.93 1087.59C1602.87 1087.97 1603.88 1088.16 1604.88 1088.16Z" stroke="#DADADA" stroke-linecap="round" stroke-linejoin="round"/>
<path fill-rule="evenodd" clip-rule="evenodd" d="M1497.86 863.341C1498.3 862.561 1498.52 861.684 1498.49 860.792C1498.46 859.905 1498.21 859.038 1497.73 858.28V858.277L1470.17 813.283C1469.7 812.547 1469.1 811.938 1468.35 811.513C1467.59 811.083 1466.74 810.859 1465.86 810.859C1465.01 810.859 1464.17 811.083 1463.41 811.513C1462.66 811.938 1462.03 812.547 1461.59 813.283L1433.99 858.277V858.28C1433.52 859.038 1433.27 859.905 1433.24 860.792C1433.24 861.684 1433.46 862.561 1433.9 863.341C1434.31 864.117 1434.97 864.768 1435.72 865.217C1436.51 865.67 1437.35 865.909 1438.27 865.909H1493.49C1494.37 865.909 1495.25 865.67 1496.01 865.217C1496.79 864.768 1497.42 864.117 1497.86 863.341Z" stroke="#DADADA" stroke-linecap="round" stroke-linejoin="round"/>
<path fill-rule="evenodd" clip-rule="evenodd" d="M1662.78 914.389C1663.38 913.324 1663.66 912.12 1663.63 910.9C1663.63 909.681 1663.29 908.493 1662.66 907.455V907.449L1625.57 845.793C1624.97 844.784 1624.12 843.948 1623.12 843.366C1622.11 842.779 1620.98 842.471 1619.82 842.471C1618.65 842.471 1617.49 842.779 1616.48 843.366C1615.48 843.948 1614.66 844.784 1614.06 845.793L1576.97 907.449V907.459C1576.35 908.493 1576 909.681 1575.97 910.9C1575.94 912.12 1576.25 913.324 1576.82 914.389C1577.41 915.455 1578.26 916.344 1579.3 916.963C1580.34 917.583 1581.5 917.91 1582.7 917.91H1656.91C1658.1 917.91 1659.29 917.583 1660.33 916.963C1661.37 916.344 1662.22 915.455 1662.78 914.389Z" stroke="#DADADA" stroke-linecap="round" stroke-linejoin="round"/>
<path d="M1605.64 524.619C1621.07 524.619 1635.88 530.415 1646.75 540.731C1657.66 551.044 1663.79 565.037 1663.79 579.624V630.025C1663.82 630.632 1663.69 631.235 1663.44 631.798C1663.19 632.36 1662.84 632.87 1662.4 633.3C1661.93 633.728 1661.4 634.067 1660.8 634.296C1660.2 634.523 1659.58 634.636 1658.92 634.63H1605.64C1598 634.63 1590.46 633.206 1583.38 630.443C1576.34 627.677 1569.93 623.626 1564.53 618.518C1559.12 613.41 1554.84 607.347 1551.92 600.674C1549 594.001 1547.49 586.847 1547.49 579.624" stroke="#DADADA" stroke-linecap="round" stroke-linejoin="round"/>
<path d="M1605.64 634.63C1590.24 634.63 1575.43 628.834 1564.53 618.518C1553.62 608.205 1547.49 594.212 1547.49 579.625V529.224C1547.49 528.618 1547.62 528.014 1547.87 527.451C1548.09 526.889 1548.46 526.379 1548.9 525.949C1549.38 525.521 1549.91 525.182 1550.51 524.953C1551.1 524.726 1551.73 524.613 1552.36 524.619H1605.64C1613.28 524.619 1620.85 526.043 1627.89 528.806C1634.96 531.572 1641.38 535.624 1646.75 540.731C1652.16 545.839 1656.46 551.902 1659.39 558.575C1662.28 565.248 1663.79 572.402 1663.79 579.625" stroke="#DADADA" stroke-linecap="round" stroke-linejoin="round"/>
<path d="M1487.58 897.182C1471.99 897.182 1457.06 903 1446.03 913.353C1435.03 923.71 1428.84 937.754 1428.84 952.398V1002.99C1428.84 1003.6 1428.93 1004.21 1429.18 1004.77C1429.43 1005.33 1429.81 1005.85 1430.25 1006.28C1430.72 1006.71 1431.26 1007.05 1431.85 1007.28C1432.45 1007.51 1433.11 1007.62 1433.74 1007.61H1487.58C1495.28 1007.61 1502.92 1006.18 1510.06 1003.41C1517.19 1000.64 1523.66 996.568 1529.1 991.439C1534.57 986.312 1538.88 980.227 1541.83 973.526C1544.79 966.828 1546.33 959.649 1546.33 952.398" stroke="#DADADA" stroke-linecap="round" stroke-linejoin="round"/>
<path d="M1487.58 1007.6C1503.14 1007.6 1518.1 1001.79 1529.1 991.432C1540.13 981.078 1546.33 967.031 1546.33 952.387V901.795C1546.33 901.185 1546.2 900.582 1545.95 900.016C1545.7 899.453 1545.35 898.941 1544.88 898.51C1544.44 898.08 1543.88 897.737 1543.28 897.508C1542.68 897.278 1542.05 897.165 1541.39 897.174H1487.58C1479.85 897.174 1472.21 898.601 1465.11 901.377C1457.97 904.152 1451.5 908.219 1446.03 913.346C1440.59 918.472 1436.25 924.561 1433.3 931.259C1430.34 937.957 1428.84 945.139 1428.84 952.387" stroke="#DADADA" stroke-linecap="round" stroke-linejoin="round"/>
<path d="M1436.44 659.971C1457.78 659.971 1478.24 667.945 1493.36 682.139C1508.45 696.334 1516.93 715.583 1516.93 735.655V805.006C1516.97 805.838 1516.78 806.668 1516.46 807.441C1516.12 808.215 1515.61 808.919 1514.99 809.507C1514.36 810.097 1513.6 810.566 1512.79 810.88C1511.97 811.194 1511.09 811.348 1510.21 811.339H1436.44C1425.85 811.339 1415.38 809.381 1405.6 805.578C1395.83 801.774 1386.96 796.198 1379.48 789.17C1372 782.142 1366.09 773.8 1362.04 764.619C1357.98 755.435 1355.91 745.593 1355.91 735.655" stroke="#DADADA" stroke-linecap="round" stroke-linejoin="round"/>
<path d="M1436.44 811.336C1415.06 811.336 1394.6 803.361 1379.48 789.167C1364.4 774.976 1355.91 755.724 1355.91 735.651V666.304C1355.91 665.468 1356.07 664.638 1356.38 663.865C1356.73 663.092 1357.23 662.391 1357.86 661.8C1358.49 661.209 1359.24 660.744 1360.06 660.429C1360.88 660.115 1361.76 659.958 1362.64 659.967H1436.44C1447 659.967 1457.47 661.925 1467.24 665.729C1477.02 669.532 1485.88 675.108 1493.36 682.136C1500.84 689.164 1506.75 697.506 1510.81 706.69C1514.86 715.872 1516.93 725.713 1516.93 735.651" stroke="#DADADA" stroke-linecap="round" stroke-linejoin="round"/>
<path d="M1501.92 592.733L1475.04 568.336C1474.04 567.424 1473.22 566.245 1472.65 564.894C1472.06 563.545 1471.77 562.056 1471.77 560.547V538.714C1471.77 536.115 1472.62 533.623 1474.19 531.784C1475.73 529.948 1477.84 528.914 1480.04 528.914H1538.03C1540.23 528.914 1542.34 529.948 1543.88 531.784C1545.45 533.623 1546.33 536.115 1546.33 538.714V560.761V560.792C1546.3 562.301 1546.02 563.791 1545.45 565.139C1544.85 566.491 1544.03 567.669 1543.03 568.581L1515.81 592.733" stroke="#DADADA" stroke-linecap="round" stroke-linejoin="round"/>
<path d="M1501.92 592.738L1475.04 617.73C1474.04 618.644 1473.22 619.82 1472.65 621.171C1472.06 622.523 1471.77 624.01 1471.77 625.521V625.55V647.354C1471.77 649.95 1472.62 652.443 1474.19 654.281C1475.73 656.12 1477.84 657.151 1480.04 657.151H1538.03C1540.23 657.151 1542.34 656.12 1543.88 654.281C1545.45 652.443 1546.33 649.95 1546.33 647.354V625.276C1546.3 623.764 1546.02 622.278 1545.45 620.926C1544.85 619.575 1544.03 618.399 1543.03 617.484L1543 617.466L1515.81 592.738" stroke="#DADADA" stroke-linecap="round" stroke-linejoin="round"/>
<path d="M1388.95 875.147L1362.08 850.75C1361.07 849.835 1360.25 848.659 1359.69 847.308C1359.09 845.956 1358.81 844.47 1358.81 842.958V821.125C1358.81 818.526 1359.66 816.037 1361.23 814.198C1362.77 812.359 1364.87 811.328 1367.07 811.328H1425.06C1427.26 811.328 1429.37 812.359 1430.91 814.198C1432.48 816.037 1433.36 818.526 1433.36 821.125V843.175V843.203C1433.33 844.715 1433.05 846.202 1432.48 847.553C1431.88 848.905 1431.07 850.08 1430.06 850.995L1402.84 875.147" stroke="#DADADA" stroke-linecap="round" stroke-linejoin="round"/>
<path d="M1388.95 875.148L1362.08 900.143C1361.07 901.054 1360.25 902.233 1359.69 903.585C1359.09 904.933 1358.81 906.423 1358.81 907.932V907.963V929.764C1358.81 932.363 1359.66 934.856 1361.23 936.695C1362.77 938.53 1364.87 939.564 1367.07 939.564H1425.06C1427.26 939.564 1429.37 938.53 1430.91 936.695C1432.48 934.856 1433.36 932.363 1433.36 929.764V907.686C1433.33 906.178 1433.05 904.688 1432.48 903.339C1431.88 901.988 1431.07 900.809 1430.06 899.898L1430.03 899.879L1402.84 875.148" stroke="#DADADA" stroke-linecap="round" stroke-linejoin="round"/>
<path d="M1705.59 802.948L1662.5 763.835C1660.86 762.37 1659.54 760.481 1658.63 758.315C1657.72 756.15 1657.25 753.764 1657.22 751.344V716.338C1657.22 712.174 1658.63 708.176 1661.11 705.23C1663.6 702.285 1666.99 700.629 1670.51 700.629H1763.49C1767.01 700.629 1770.37 702.285 1772.89 705.23C1775.37 708.176 1776.75 712.174 1776.75 716.338V751.686V751.737C1776.75 754.157 1776.28 756.543 1775.34 758.708C1774.43 760.874 1773.11 762.763 1771.47 764.228L1727.81 802.948" stroke="#DADADA" stroke-linecap="round" stroke-linejoin="round"/>
<path d="M1705.59 802.947L1662.5 843.016C1660.86 844.478 1659.54 846.367 1658.63 848.532C1657.72 850.698 1657.25 853.084 1657.22 855.504V855.554V890.509C1657.22 894.677 1658.63 898.672 1661.11 901.617C1663.6 904.566 1666.99 906.219 1670.51 906.219H1763.49C1767.01 906.219 1770.37 904.566 1772.89 901.617C1775.37 898.672 1776.75 894.677 1776.75 890.509V855.111C1776.75 852.691 1776.28 850.305 1775.34 848.14C1774.43 845.974 1773.11 844.088 1771.47 842.623L1771.44 842.592L1727.81 802.947" stroke="#DADADA" stroke-linecap="round" stroke-linejoin="round"/>
<path d="M1547.71 654.055H1651.44C1654.47 654.055 1656.94 656.517 1656.94 659.555V804.141C1656.94 807.178 1654.47 809.641 1651.44 809.641H1547.71C1544.67 809.641 1542.21 807.178 1542.21 804.141V659.555C1542.21 656.517 1544.67 654.055 1547.71 654.055Z" stroke="#DADADA"/>
<path d="M1286.83 811.211H1352.83C1355.87 811.211 1358.33 813.674 1358.33 816.711V911.006C1358.33 914.044 1355.87 916.507 1352.83 916.507H1286.83C1283.79 916.507 1281.33 914.044 1281.33 911.006V816.711C1281.33 813.674 1283.79 811.211 1286.83 811.211Z" stroke="#DADADA"/>
<path d="M1723.73 905.506H1796.02C1799.06 905.506 1801.52 907.969 1801.52 911.006V1014.73C1801.52 1017.77 1799.06 1020.23 1796.02 1020.23H1723.73C1720.69 1020.23 1718.23 1017.77 1718.23 1014.73V911.006C1718.23 907.969 1720.69 905.506 1723.73 905.506Z" stroke="#DADADA"/>
<path d="M1097.73 1040.16H1171.38C1172.82 1040.16 1174.21 1039.6 1175.21 1038.58C1176.25 1037.56 1176.81 1036.18 1176.81 1034.75V926.319C1176.81 924.882 1176.25 923.502 1175.21 922.484C1174.21 921.469 1172.82 920.896 1171.38 920.896H1062.97C1061.52 920.896 1060.14 921.469 1059.13 922.484C1058.1 923.502 1057.53 924.882 1057.53 926.319V999.982C1057.53 1000.69 1057.66 1001.38 1057.94 1002.03C1058.19 1002.69 1058.6 1003.28 1059.1 1003.78L1093.93 1038.61C1094.43 1039.11 1095.03 1039.5 1095.66 1039.77C1096.32 1040.03 1097.01 1040.16 1097.73 1040.16Z" stroke="#DADADA" stroke-linecap="round" stroke-linejoin="round"/>
<path d="M1011.68 904.947C1023.84 904.947 1035.5 909.489 1044.11 917.576C1052.69 925.664 1057.53 936.63 1057.53 948.068V987.578C1057.53 988.052 1057.44 988.527 1057.25 988.967C1057.06 989.407 1056.78 989.806 1056.43 990.143C1056.06 990.479 1055.65 990.746 1055.18 990.925C1054.71 991.104 1054.2 991.192 1053.7 991.186H1011.68C1005.64 991.186 999.668 990.07 994.105 987.905C988.542 985.739 983.481 982.561 979.238 978.557C974.963 974.553 971.6 969.8 969.274 964.567C966.98 959.336 965.785 953.729 965.785 948.068" stroke="#DADADA" stroke-linecap="round" stroke-linejoin="round"/>
<path d="M1011.68 991.179C999.511 991.179 987.819 986.637 979.238 978.549C970.626 970.465 965.785 959.496 965.785 948.061V908.548C965.785 908.074 965.879 907.602 966.068 907.162C966.257 906.719 966.539 906.32 966.885 905.983C967.262 905.647 967.671 905.383 968.143 905.204C968.614 905.025 969.117 904.933 969.62 904.94H1011.68C1017.68 904.94 1023.65 906.056 1029.21 908.224C1034.78 910.39 1039.84 913.565 1044.11 917.569C1048.36 921.573 1051.75 926.329 1054.05 931.559C1056.34 936.789 1057.53 942.397 1057.53 948.061" stroke="#DADADA" stroke-linecap="round" stroke-linejoin="round"/>
<path d="M960.37 992.525H1052.27C1054.66 992.525 1056.59 994.459 1056.59 996.845V1124.49C1056.59 1126.87 1054.66 1128.81 1052.27 1128.81H960.37C957.985 1128.81 956.051 1126.87 956.051 1124.49V996.845C956.051 994.459 957.985 992.525 960.37 992.525Z" stroke="#DADADA"/>
<path d="M540.86 1187.51H631.54C633.332 1187.51 635.029 1186.82 636.286 1185.56C637.512 1184.3 638.235 1182.61 638.235 1180.85V1047.33C638.235 1045.57 637.512 1043.87 636.286 1042.61C635.029 1041.35 633.332 1040.66 631.54 1040.66H498.05C496.29 1040.66 494.593 1041.35 493.335 1042.61C492.078 1043.87 491.387 1045.57 491.387 1047.33V1138.04C491.387 1138.92 491.544 1139.77 491.858 1140.55C492.204 1141.37 492.675 1142.09 493.304 1142.72L536.177 1185.59C536.805 1186.22 537.528 1186.69 538.314 1187.01C539.131 1187.35 539.98 1187.51 540.86 1187.51Z" stroke="#DADADA" stroke-linecap="round" stroke-linejoin="round"/>
<path d="M259.277 1146.84H191.689C190.369 1146.84 189.106 1146.34 188.172 1145.39C187.239 1144.45 186.717 1143.19 186.717 1141.87V1042.39C186.717 1041.07 187.239 1039.81 188.172 1038.87C189.106 1037.94 190.369 1037.41 191.689 1037.41H291.17C292.49 1037.41 293.748 1037.94 294.691 1038.87C295.634 1039.81 296.137 1041.07 296.137 1042.39V1109.97C296.137 1110.63 296.011 1111.26 295.791 1111.86C295.539 1112.45 295.162 1112.99 294.722 1113.46L262.759 1145.43C262.301 1145.87 261.757 1146.24 261.159 1146.49C260.562 1146.71 259.921 1146.84 259.277 1146.84Z" stroke="#DADADA" stroke-linecap="round" stroke-linejoin="round"/>
<path d="M434.906 1021.02C449.868 1021.02 464.232 1026.62 474.825 1036.57C485.417 1046.54 491.389 1060.02 491.389 1074.11V1122.76C491.389 1123.36 491.263 1123.92 491.043 1124.46C490.792 1125.02 490.446 1125.5 490.006 1125.94C489.566 1126.34 489.032 1126.66 488.466 1126.88C487.9 1127.1 487.272 1127.22 486.643 1127.19H434.906C427.488 1127.19 420.133 1125.84 413.281 1123.17C406.429 1120.5 400.206 1116.57 394.957 1111.67C389.708 1106.73 385.559 1100.88 382.698 1094.44C379.87 1088 378.424 1081.08 378.424 1074.11" stroke="#DADADA" stroke-linecap="round" stroke-linejoin="round"/>
<path d="M434.907 1127.2C419.914 1127.2 405.55 1121.6 394.958 1111.67C384.365 1101.71 378.425 1088.19 378.425 1074.11V1025.47C378.393 1024.88 378.519 1024.3 378.77 1023.76C378.99 1023.21 379.336 1022.72 379.776 1022.31C380.216 1021.89 380.751 1021.57 381.317 1021.34C381.914 1021.12 382.511 1021.01 383.139 1021.02H434.907C442.325 1021.02 449.649 1022.4 456.501 1025.07C463.353 1027.73 469.576 1031.64 474.826 1036.57C480.075 1041.51 484.224 1047.36 487.084 1053.8C489.913 1060.25 491.39 1067.13 491.39 1074.11" stroke="#DADADA" stroke-linecap="round" stroke-linejoin="round"/>
<path d="M321.818 1090.45L298.936 1070.21C298.087 1069.45 297.396 1068.48 296.893 1067.38C296.422 1066.25 296.17 1065.02 296.139 1063.77V1045.66C296.139 1043.49 296.893 1041.42 298.213 1039.9C299.533 1038.37 301.325 1037.52 303.211 1037.52H352.527C354.413 1037.52 356.204 1038.37 357.524 1039.9C358.845 1041.42 359.599 1043.49 359.599 1045.66V1063.92V1063.95C359.599 1065.21 359.316 1066.44 358.845 1067.57C358.342 1068.7 357.65 1069.67 356.802 1070.43L333.605 1090.45" stroke="#DADADA" stroke-linecap="round" stroke-linejoin="round"/>
<path d="M157.409 700.62H248.108C249.881 700.62 251.579 699.916 252.829 698.665C254.08 697.414 254.785 695.717 254.785 693.944V560.442C254.785 558.672 254.08 556.975 252.829 555.721C251.579 554.47 249.881 553.766 248.108 553.766H114.606C112.836 553.766 111.139 554.47 109.885 555.721C108.634 556.975 107.93 558.672 107.93 560.442V651.141C107.927 652.008 108.096 652.866 108.426 653.668C108.753 654.469 109.237 655.198 109.85 655.815L152.739 698.7C153.352 699.313 154.081 699.797 154.882 700.127C155.684 700.457 156.545 700.623 157.409 700.62Z" stroke="#DADADA" stroke-linecap="round" stroke-linejoin="round"/>
<path d="M460.865 808.934H407.935C406.897 808.934 405.892 808.522 405.169 807.793C404.446 807.06 404.037 806.07 404.037 805.036V727.111C404.037 726.077 404.446 725.087 405.169 724.358C405.892 723.625 406.897 723.217 407.935 723.217H485.854C486.891 723.217 487.865 723.625 488.62 724.358C489.343 725.087 489.751 726.077 489.751 727.111V780.051C489.751 780.557 489.657 781.06 489.468 781.529C489.28 781.997 488.997 782.421 488.62 782.78L463.6 807.812C463.223 808.17 462.814 808.453 462.343 808.645C461.871 808.836 461.368 808.934 460.865 808.934Z" stroke="#DADADA" stroke-linecap="round" stroke-linejoin="round"/>
<path fill-rule="evenodd" clip-rule="evenodd" d="M362.264 765.492C363.207 763.794 363.71 761.871 363.647 759.925C363.616 757.986 363.05 756.091 362.044 754.437L362.013 754.425L301.664 656.107C300.69 654.501 299.338 653.168 297.704 652.237C296.069 651.304 294.183 650.811 292.297 650.811C290.412 650.811 288.526 651.304 286.891 652.237C285.257 653.168 283.905 654.501 282.931 656.107L222.57 754.425L222.563 754.437C221.542 756.091 220.979 757.986 220.938 759.925C220.894 761.871 221.372 763.794 222.324 765.492C223.274 767.192 224.663 768.61 226.348 769.597C228.032 770.581 229.95 771.102 231.902 771.105H352.677C354.658 771.102 356.575 770.581 358.241 769.597C359.938 768.61 361.321 767.192 362.264 765.492Z" stroke="#DADADA" stroke-linecap="round" stroke-linejoin="round"/>
<path fill-rule="evenodd" clip-rule="evenodd" d="M377.137 1031.3C378.049 1029.66 378.489 1027.81 378.458 1025.92C378.395 1024.05 377.861 1022.21 376.918 1020.62L376.886 1020.61L319.743 925.556C318.832 924 317.543 922.711 316.003 921.815C314.432 920.91 312.671 920.436 310.88 920.436C309.088 920.436 307.297 920.91 305.756 921.815C304.216 922.711 302.928 924 302.016 925.556L244.842 1020.61L244.836 1020.62C243.868 1022.22 243.336 1024.05 243.295 1025.92C243.255 1027.81 243.71 1029.66 244.609 1031.3C245.512 1032.95 246.825 1034.32 248.419 1035.27C250.016 1036.23 251.829 1036.73 253.681 1036.73H368.054C369.908 1036.73 371.731 1036.23 373.334 1035.27C374.906 1034.32 376.226 1032.95 377.137 1031.3Z" stroke="#DADADA" stroke-linecap="round" stroke-linejoin="round"/>
<path fill-rule="evenodd" clip-rule="evenodd" d="M446.597 861.306C447.037 860.529 447.257 859.649 447.257 858.76C447.225 857.87 446.974 857.003 446.502 856.248V856.242L418.465 811.248C418.025 810.512 417.397 809.902 416.642 809.478C415.857 809.051 415.008 808.824 414.128 808.824C413.248 808.824 412.368 809.051 411.613 809.478C410.859 809.902 410.23 810.512 409.759 811.248L381.753 856.242V856.248C381.282 857.006 380.999 857.87 380.999 858.76C380.968 859.649 381.187 860.529 381.628 861.306C382.068 862.085 382.728 862.732 383.513 863.185C384.299 863.635 385.179 863.874 386.091 863.877H442.165C443.076 863.874 443.956 863.635 444.742 863.185C445.528 862.732 446.157 862.085 446.597 861.306Z" stroke="#DADADA" stroke-linecap="round" stroke-linejoin="round"/>
<path d="M531.276 759.369C542.434 759.369 553.152 763.534 561.042 770.949C568.931 778.363 573.363 788.418 573.363 798.904V835.132C573.363 835.566 573.269 835.999 573.08 836.405C572.923 836.807 572.672 837.175 572.326 837.483C572.012 837.791 571.603 838.036 571.195 838.2C570.755 838.363 570.283 838.445 569.843 838.438H531.276C525.776 838.438 520.307 837.417 515.183 835.431C510.091 833.444 505.44 830.53 501.542 826.859C497.645 823.188 494.533 818.832 492.427 814.035C490.321 809.239 489.221 804.096 489.221 798.904" stroke="#DADADA" stroke-linecap="round" stroke-linejoin="round"/>
<path d="M531.276 838.434C520.118 838.434 509.431 834.27 501.542 826.855C493.653 819.44 489.221 809.382 489.221 798.896V762.672C489.221 762.235 489.315 761.801 489.472 761.398C489.661 760.993 489.912 760.625 490.258 760.317C490.573 760.009 490.95 759.767 491.39 759.601C491.83 759.437 492.27 759.355 492.741 759.362H531.276C536.808 759.362 542.277 760.383 547.369 762.37C552.493 764.356 557.113 767.27 561.042 770.941C564.939 774.612 568.02 778.972 570.157 783.768C572.263 788.565 573.363 793.707 573.363 798.896" stroke="#DADADA" stroke-linecap="round" stroke-linejoin="round"/>
<path d="M269.21 770.656C258.055 770.656 247.356 774.824 239.47 782.236C231.581 789.65 227.149 799.709 227.149 810.194V846.422C227.142 846.856 227.23 847.29 227.403 847.695C227.579 848.097 227.837 848.465 228.167 848.773C228.494 849.081 228.884 849.326 229.314 849.49C229.745 849.653 230.207 849.735 230.669 849.729H269.21C274.733 849.729 280.202 848.707 285.294 846.721C290.417 844.734 295.038 841.821 298.967 838.149C302.864 834.478 305.944 830.119 308.082 825.322C310.188 820.526 311.256 815.387 311.256 810.194" stroke="#DADADA" stroke-linecap="round" stroke-linejoin="round"/>
<path d="M269.21 849.723C280.359 849.723 291.077 845.555 298.966 838.141C306.824 830.729 311.256 820.671 311.256 810.185V773.957C311.288 773.524 311.193 773.09 311.005 772.684C310.848 772.282 310.596 771.914 310.25 771.606C309.936 771.298 309.527 771.053 309.119 770.89C308.679 770.726 308.207 770.644 307.736 770.651H269.21C263.688 770.651 258.215 771.672 253.114 773.659C248.01 775.645 243.373 778.559 239.47 782.23C235.563 785.901 232.463 790.258 230.351 795.057C228.236 799.854 227.148 804.993 227.148 810.185" stroke="#DADADA" stroke-linecap="round" stroke-linejoin="round"/>
<path d="M372.858 647.958L341.772 619.726C340.609 618.67 339.635 617.306 338.975 615.744C338.315 614.182 337.969 612.459 337.969 610.712V585.45C337.969 582.442 338.975 579.556 340.766 577.432C342.558 575.304 345.009 574.109 347.555 574.109H414.63C417.176 574.109 419.628 575.304 421.42 577.432C423.211 579.556 424.217 582.442 424.217 585.45V610.96V610.994C424.217 612.742 423.871 614.464 423.211 616.027C422.551 617.592 421.608 618.953 420.414 620.009L388.919 647.958" stroke="#DADADA" stroke-linecap="round" stroke-linejoin="round"/>
<path d="M372.858 647.963L341.772 676.883C340.609 677.939 339.635 679.303 338.975 680.866C338.315 682.428 337.969 684.15 337.969 685.898V685.932V711.159C337.969 714.167 338.975 717.053 340.766 719.177C342.558 721.305 345.009 722.5 347.555 722.5H414.63C417.176 722.5 419.628 721.305 421.42 719.177C423.211 717.053 424.217 714.167 424.217 711.159V685.615C424.217 683.867 423.871 682.145 423.211 680.583C422.551 679.017 421.608 677.656 420.414 676.6L420.382 676.578L388.919 647.963" stroke="#DADADA" stroke-linecap="round" stroke-linejoin="round"/>
<path d="M339.949 860.748L314.395 837.539C313.421 836.668 312.635 835.549 312.101 834.263C311.566 832.978 311.283 831.564 311.252 830.124V809.354C311.252 806.88 312.101 804.51 313.578 802.763C315.055 801.015 317.067 800.031 319.141 800.031H374.304C376.41 800.031 378.421 801.015 379.898 802.763C381.376 804.51 382.193 806.88 382.193 809.354V830.328V830.36C382.193 831.796 381.91 833.211 381.376 834.496C380.81 835.782 380.024 836.901 379.081 837.771L353.15 860.748" stroke="#DADADA" stroke-linecap="round" stroke-linejoin="round"/>
<path d="M339.949 860.752L314.395 884.53C313.421 885.397 312.635 886.52 312.101 887.805C311.566 889.091 311.283 890.505 311.252 891.942V891.97V912.715C311.252 915.185 312.101 917.558 313.578 919.306C315.055 921.054 317.067 922.037 319.141 922.037H374.304C376.41 922.037 378.421 921.054 379.898 919.306C381.376 917.558 382.193 915.185 382.193 912.715V891.709C382.193 890.273 381.91 888.855 381.376 887.573C380.81 886.287 380.024 885.165 379.081 884.297L379.05 884.279L353.15 860.752" stroke="#DADADA" stroke-linecap="round" stroke-linejoin="round"/>
<path d="M416.174 864.645H488.466C491.504 864.645 493.967 867.107 493.967 870.145V973.869C493.967 976.907 491.504 979.37 488.466 979.37H416.174C413.136 979.37 410.673 976.907 410.673 973.869V870.145C410.673 867.107 413.136 864.645 416.174 864.645Z" stroke="#DADADA"/>
<path fill-rule="evenodd" clip-rule="evenodd" d="M897.83 570.325C896.384 567.66 895.662 564.645 895.724 561.593C895.787 558.551 896.636 555.577 898.176 552.984L898.207 552.969L989.39 398.781C990.836 396.26 992.911 394.17 995.362 392.714C997.846 391.25 1000.67 390.477 1003.53 390.477C1006.39 390.477 1009.22 391.25 1011.71 392.714C1014.16 394.17 1016.23 396.26 1017.68 398.781L1108.86 552.969V552.987C1110.4 555.58 1111.25 558.551 1111.31 561.593C1111.38 564.645 1110.65 567.66 1109.24 570.325C1107.79 572.99 1105.69 575.21 1103.14 576.756C1100.6 578.306 1097.7 579.123 1094.75 579.126H912.289C909.334 579.123 906.443 578.306 903.897 576.756C901.351 575.21 899.276 572.99 897.83 570.325Z" stroke="#DADADA" stroke-linecap="round" stroke-linejoin="round"/>
<path d="M204.711 347.365H14.965C11.2593 347.365 7.70758 345.894 5.08933 343.275C2.47108 340.657 1 337.106 1 333.4V54.1018C1 50.3991 2.47108 46.8474 5.08933 44.2291C7.70758 41.6077 11.2593 40.1367 14.965 40.1367H294.251C297.96 40.1367 301.511 41.6077 304.151 44.2291C306.76 46.8474 308.238 50.3991 308.238 54.1018V243.851C308.238 245.665 307.892 247.459 307.2 249.138C306.509 250.816 305.503 252.341 304.214 253.626L214.487 343.351C213.201 344.63 211.677 345.642 210.001 346.331C208.323 347.019 206.525 347.371 204.711 347.365Z" stroke="#DADADA" stroke-linecap="round" stroke-linejoin="round"/>
<path d="M794.132 261.126H933.94C936.674 261.126 939.283 260.042 941.232 258.112C943.15 256.182 944.25 253.564 944.25 250.835V45.0368C944.25 42.3085 943.15 39.6902 941.232 37.7603C939.283 35.8304 936.674 34.7461 933.94 34.7461H728.157C725.423 34.7461 722.814 35.8304 720.865 37.7603C718.948 39.6902 717.848 42.3085 717.848 45.0368V184.851C717.848 186.187 718.099 187.513 718.633 188.748C719.136 189.984 719.859 191.109 720.802 192.055L786.934 258.168C787.877 259.111 789.009 259.856 790.235 260.365C791.461 260.871 792.781 261.129 794.132 261.126Z" stroke="#DADADA" stroke-linecap="round" stroke-linejoin="round"/>
<path d="M426.702 1.00781C395.301 1.00781 365.19 12.735 342.968 33.6056C320.777 54.4793 308.299 82.7865 308.299 112.304V214.287C308.299 215.516 308.519 216.732 309.022 217.87C309.525 219.008 310.248 220.042 311.159 220.91C312.102 221.777 313.202 222.462 314.397 222.927C315.622 223.39 316.911 223.619 318.2 223.603H426.702C442.26 223.603 457.662 220.724 472.026 215.129C486.39 209.538 499.434 201.34 510.435 191.002C521.436 180.668 530.143 168.4 536.084 154.897C542.056 141.394 545.105 126.92 545.105 112.304" stroke="#DADADA" stroke-linecap="round" stroke-linejoin="round"/>
<path d="M426.702 223.596C458.102 223.596 488.213 211.869 510.435 190.995C532.626 170.125 545.105 141.814 545.105 112.297V10.3172C545.136 9.08826 544.885 7.86855 544.382 6.73073C543.91 5.59605 543.156 4.56213 542.244 3.69462C541.333 2.82396 540.232 2.13866 539.007 1.67662C537.812 1.21457 536.492 0.98504 535.204 1.00076H426.702C411.143 1.00076 395.773 3.87991 381.409 9.47159C367.045 15.0664 353.969 23.2639 342.968 33.5986C331.998 43.9333 323.26 56.2041 317.32 69.7071C311.379 83.2101 308.299 97.6812 308.299 112.297" stroke="#DADADA" stroke-linecap="round" stroke-linejoin="round"/>
<path d="M784.959 261.631C740.169 261.631 697.234 278.346 665.582 308.099C633.931 337.856 616.172 378.211 616.172 420.288V565.666C616.14 567.416 616.486 569.154 617.178 570.776C617.869 572.395 618.938 573.869 620.227 575.107C621.547 576.346 623.118 577.323 624.847 577.98C626.576 578.64 628.43 578.967 630.285 578.945H784.959C807.119 578.945 829.058 574.84 849.551 566.869C870.013 558.895 888.621 547.209 904.305 532.477C919.958 517.742 932.405 500.253 940.892 481.005C949.378 461.756 953.747 441.124 953.747 420.288" stroke="#DADADA" stroke-linecap="round" stroke-linejoin="round"/>
<path d="M784.963 578.927C829.722 578.927 872.658 562.211 904.309 532.458C935.961 502.705 953.751 462.35 953.751 420.27V274.892C953.751 273.141 953.405 271.406 952.714 269.785C952.022 268.163 950.985 266.689 949.665 265.45C948.345 264.215 946.773 263.237 945.045 262.577C943.316 261.917 941.461 261.59 939.607 261.612H784.963C762.773 261.612 740.834 265.717 720.372 273.692C699.878 281.666 681.271 293.352 665.586 308.084C649.933 322.816 637.486 340.308 629 359.556C620.513 378.805 616.176 399.437 616.176 420.27" stroke="#DADADA" stroke-linecap="round" stroke-linejoin="round"/>
<path d="M665.521 142.545L712.166 186.461C713.926 188.067 715.34 190.135 716.346 192.509C717.32 194.885 717.855 197.497 717.855 200.153V200.203V238.515C717.855 243.082 716.346 247.464 713.643 250.692C710.971 253.92 707.294 255.736 703.491 255.736H602.878C599.075 255.736 595.397 253.92 592.726 250.692C590.023 247.464 588.514 243.082 588.514 238.515V199.722C588.514 197.066 589.048 194.454 590.023 192.078C591.029 189.705 592.443 187.637 594.234 186.031L594.266 185.999L641.476 142.545" stroke="#DADADA" stroke-linecap="round" stroke-linejoin="round"/>
<path d="M582.23 224.182H325.305C322.267 224.182 319.805 226.644 319.805 229.682V567.456C319.805 570.493 322.267 572.956 325.305 572.956H582.23C585.268 572.956 587.731 570.493 587.731 567.456V229.682C587.731 226.644 585.268 224.182 582.23 224.182Z" stroke="#DADADA"/>
</svg>
