<svg width="1579" height="1173" viewBox="0 0 1579 1173" fill="none" xmlns="http://www.w3.org/2000/svg">
<path d="M1082.55 171.456H1136.74C1137.8 171.456 1138.82 171.035 1139.56 170.288C1140.31 169.542 1140.73 168.525 1140.73 167.466V87.6937C1140.73 86.6383 1140.31 85.6216 1139.56 84.8751C1138.82 84.1254 1137.8 83.707 1136.74 83.707H1056.97C1055.91 83.707 1054.9 84.1254 1054.15 84.8751C1053.4 85.6216 1052.98 86.6383 1052.98 87.6937V141.892C1052.98 142.407 1053.08 142.922 1053.28 143.401C1053.48 143.881 1053.77 144.315 1054.13 144.682L1079.76 170.311C1080.12 170.674 1080.56 170.964 1081.04 171.16C1081.52 171.357 1082.03 171.46 1082.55 171.456Z" stroke="#DADADA" stroke-width="1.2" stroke-linecap="round" stroke-linejoin="round"/>
<path d="M1503.55 457.902H1395.78C1393.68 457.902 1391.66 457.066 1390.18 455.578C1388.69 454.09 1387.85 452.075 1387.85 449.97V291.344C1387.85 289.239 1388.69 287.224 1390.18 285.736C1391.66 284.248 1393.68 283.412 1395.78 283.412H1554.41C1556.51 283.412 1558.53 284.248 1560.02 285.736C1561.51 287.224 1562.34 289.239 1562.34 291.344V399.11C1562.35 400.142 1562.15 401.161 1561.76 402.115C1561.36 403.066 1560.79 403.934 1560.06 404.664L1509.1 455.62C1508.37 456.346 1507.51 456.922 1506.55 457.314C1505.6 457.706 1504.58 457.905 1503.55 457.902Z" stroke="#DADADA" stroke-width="1.2" stroke-linecap="round" stroke-linejoin="round"/>
<path fill-rule="evenodd" clip-rule="evenodd" d="M1165.36 404.754C1164.39 403.015 1163.9 401.05 1163.94 399.06C1163.99 397.073 1164.56 395.137 1165.61 393.443L1165.61 393.433L1227.47 292.863C1228.45 291.217 1229.85 289.854 1231.52 288.905C1233.21 287.947 1235.12 287.445 1237.06 287.445C1239.01 287.445 1240.92 287.947 1242.6 288.905C1244.28 289.854 1245.68 291.217 1246.66 292.863L1308.51 393.433L1308.52 393.446C1309.57 395.137 1310.14 397.076 1310.19 399.06C1310.23 401.05 1309.74 403.015 1308.77 404.754C1307.79 406.493 1306.37 407.94 1304.64 408.95C1302.92 409.959 1300.95 410.493 1298.95 410.496H1175.18C1173.18 410.493 1171.21 409.959 1169.49 408.95C1167.76 407.94 1166.34 406.493 1165.36 404.754Z" stroke="#DADADA" stroke-width="1.2" stroke-linecap="round" stroke-linejoin="round"/>
<path fill-rule="evenodd" clip-rule="evenodd" d="M1096.02 225.303C1095.56 224.503 1095.33 223.6 1095.36 222.687C1095.37 221.778 1095.64 220.888 1096.14 220.11L1096.14 220.104L1125.14 173.942C1125.61 173.187 1126.26 172.561 1127.05 172.123C1127.84 171.684 1128.73 171.455 1129.64 171.455C1130.56 171.455 1131.45 171.684 1132.24 172.123C1133.03 172.561 1133.69 173.187 1134.15 173.942L1163.15 220.104L1163.16 220.11C1163.65 220.888 1163.92 221.778 1163.94 222.687C1163.96 223.6 1163.73 224.503 1163.27 225.303C1162.81 226.099 1162.15 226.764 1161.34 227.228C1160.53 227.692 1159.61 227.937 1158.67 227.937H1100.62C1099.69 227.937 1098.76 227.692 1097.95 227.228C1097.14 226.764 1096.48 226.099 1096.02 225.303Z" stroke="#DADADA" stroke-width="1.2" stroke-linecap="round" stroke-linejoin="round"/>
<path fill-rule="evenodd" clip-rule="evenodd" d="M1444.2 279.79C1443.6 278.69 1443.3 277.451 1443.33 276.195C1443.36 274.943 1443.71 273.72 1444.35 272.652L1444.35 272.646L1482.32 209.168C1482.92 208.13 1483.78 207.269 1484.81 206.67C1485.84 206.068 1487.02 205.748 1488.21 205.748C1489.4 205.748 1490.57 206.068 1491.61 206.67C1492.64 207.269 1493.5 208.13 1494.1 209.168L1532.06 272.646L1532.07 272.652C1532.71 273.72 1533.06 274.943 1533.09 276.195C1533.12 277.451 1532.82 278.69 1532.22 279.79C1531.62 280.887 1530.75 281.8 1529.69 282.437C1528.63 283.075 1527.42 283.411 1526.19 283.411H1450.22C1448.99 283.411 1447.79 283.075 1446.73 282.437C1445.67 281.8 1444.8 280.887 1444.2 279.79Z" stroke="#DADADA" stroke-width="1.2" stroke-linecap="round" stroke-linejoin="round"/>
<path d="M1009.62 121.025C998.12 121.025 987.088 125.275 978.957 132.841C970.822 140.408 966.252 150.668 966.252 161.368V198.337C966.246 198.783 966.336 199.225 966.518 199.636C966.696 200.049 966.965 200.422 967.302 200.739C967.639 201.053 968.045 201.3 968.485 201.467C968.929 201.637 969.406 201.721 969.882 201.714H1009.62C1015.32 201.714 1020.96 200.669 1026.22 198.641C1031.48 196.614 1036.26 193.644 1040.29 189.898C1044.32 186.152 1047.51 181.703 1049.69 176.809C1051.87 171.914 1052.99 166.667 1052.99 161.368" stroke="#DADADA" stroke-width="1.2" stroke-linecap="round" stroke-linejoin="round"/>
<path d="M1009.62 201.714C1021.12 201.714 1032.16 197.465 1040.29 189.898C1048.42 182.332 1052.99 172.072 1052.99 161.372V124.403C1053 123.957 1052.91 123.515 1052.73 123.104C1052.55 122.69 1052.28 122.318 1051.94 122.001C1051.61 121.686 1051.2 121.439 1050.76 121.273C1050.32 121.103 1049.84 121.019 1049.36 121.026H1009.62C1003.93 121.026 998.289 122.071 993.025 124.098C987.765 126.125 982.982 129.096 978.956 132.842C974.928 136.588 971.732 141.037 969.554 145.931C967.373 150.826 966.252 156.073 966.252 161.372" stroke="#DADADA" stroke-width="1.2" stroke-linecap="round" stroke-linejoin="round"/>
<path d="M1282.45 133.129C1294.36 133.129 1305.77 137.539 1314.19 145.386C1322.61 153.237 1327.33 163.884 1327.33 174.985V213.342C1327.34 213.801 1327.25 214.261 1327.06 214.688C1326.87 215.115 1326.6 215.504 1326.25 215.833C1325.9 216.158 1325.48 216.416 1325.02 216.588C1324.56 216.764 1324.07 216.85 1323.58 216.843H1282.45C1276.56 216.843 1270.72 215.762 1265.28 213.658C1259.83 211.553 1254.88 208.47 1250.71 204.583C1246.54 200.696 1243.24 196.081 1240.98 191.005C1238.73 185.925 1237.57 180.482 1237.57 174.985" stroke="#DADADA" stroke-width="1.2" stroke-linecap="round" stroke-linejoin="round"/>
<path d="M1282.45 216.844C1270.55 216.844 1259.13 212.434 1250.71 204.586C1242.3 196.735 1237.57 186.088 1237.57 174.988V136.63C1237.56 136.171 1237.66 135.712 1237.84 135.285C1238.03 134.858 1238.3 134.469 1238.66 134.14C1239.01 133.815 1239.42 133.557 1239.88 133.381C1240.34 133.209 1240.83 133.123 1241.33 133.129H1282.45C1288.35 133.129 1294.18 134.21 1299.63 136.315C1305.08 138.419 1310.02 141.503 1314.19 145.387C1318.36 149.274 1321.66 153.891 1323.92 158.968C1326.17 164.047 1327.33 169.491 1327.33 174.988" stroke="#DADADA" stroke-width="1.2" stroke-linecap="round" stroke-linejoin="round"/>
<path d="M1206.37 223.904L1233.26 200.385C1234.28 199.505 1235.11 198.368 1235.68 197.066C1236.25 195.765 1236.55 194.33 1236.56 192.876V171.828C1236.56 169.322 1235.69 166.919 1234.13 165.148C1232.58 163.376 1230.47 162.379 1228.27 162.379H1170.22C1168.02 162.379 1165.91 163.376 1164.35 165.148C1162.8 166.919 1161.92 169.322 1161.92 171.828V193.08V193.109C1161.93 194.566 1162.23 196.001 1162.8 197.303C1163.38 198.604 1164.2 199.741 1165.22 200.622L1192.48 223.904" stroke="#DADADA" stroke-width="1.2" stroke-linecap="round" stroke-linejoin="round"/>
<path d="M1206.37 223.904L1233.26 248.95C1234.28 249.867 1235.11 251.045 1235.68 252.4C1236.25 253.753 1236.55 255.244 1236.56 256.758V256.787V278.637C1236.56 281.242 1235.69 283.74 1234.13 285.58C1232.58 287.423 1230.47 288.456 1228.27 288.456H1170.22C1168.02 288.456 1165.91 287.423 1164.35 285.58C1162.8 283.74 1161.92 281.242 1161.92 278.637V256.512C1161.93 254.999 1162.23 253.507 1162.8 252.155C1163.38 250.8 1164.2 249.621 1165.22 248.705L1165.24 248.685L1192.48 223.904" stroke="#DADADA" stroke-width="1.2" stroke-linecap="round" stroke-linejoin="round"/>
<path d="M1400.61 165.404L1444.95 125.303C1446.63 123.802 1447.99 121.865 1448.93 119.645C1449.88 117.425 1450.37 114.979 1450.39 112.498V76.6157C1450.39 72.343 1448.95 68.2476 1446.38 65.2251C1443.82 62.2059 1440.34 60.5078 1436.72 60.5078H1341.01C1337.38 60.5078 1333.9 62.2059 1331.34 65.2251C1328.77 68.2476 1327.33 72.343 1327.33 76.6157V112.853V112.901C1327.35 115.382 1327.85 117.828 1328.79 120.048C1329.73 122.268 1331.09 124.204 1332.77 125.706L1377.71 165.404" stroke="#DADADA" stroke-width="1.2" stroke-linecap="round" stroke-linejoin="round"/>
<path d="M1400.61 165.404L1444.95 206.493C1446.63 207.996 1447.99 209.933 1448.93 212.153C1449.88 214.374 1450.37 216.817 1450.39 219.302V219.351V255.196C1450.39 259.47 1448.95 263.567 1446.38 266.59C1443.82 269.61 1440.34 271.309 1436.72 271.309H1341.01C1337.38 271.309 1333.9 269.61 1331.34 266.59C1328.77 263.567 1327.33 259.47 1327.33 255.196V218.9C1327.35 216.414 1327.85 213.971 1328.79 211.751C1329.73 209.53 1331.09 207.593 1332.77 206.091L1332.8 206.062L1377.71 165.404" stroke="#DADADA" stroke-width="1.2" stroke-linecap="round" stroke-linejoin="round"/>
<path d="M1571.84 1H1456.02C1452.91 1 1450.39 3.51108 1450.39 6.60864V166.856C1450.39 169.953 1452.91 172.464 1456.02 172.464H1571.84C1574.95 172.464 1577.47 169.953 1577.47 166.856V6.60864C1577.47 3.51108 1574.95 1 1571.84 1Z" stroke="#DADADA" stroke-width="1.2"/>
<path d="M1156.33 227.947H1082.79C1079.7 227.947 1077.2 230.48 1077.2 233.605V340.297C1077.2 343.422 1079.7 345.955 1082.79 345.955H1156.33C1159.42 345.955 1161.92 343.422 1161.92 340.297V233.605C1161.92 230.48 1159.42 227.947 1156.33 227.947Z" stroke="#DADADA" stroke-width="1.2"/>
<path d="M1382.19 271.309H1307.78C1304.65 271.309 1302.12 273.82 1302.12 276.918V382.698C1302.12 385.796 1304.65 388.308 1307.78 388.308H1382.19C1385.32 388.308 1387.85 385.796 1387.85 382.698V276.918C1387.85 273.82 1385.32 271.309 1382.19 271.309Z" stroke="#DADADA" stroke-width="1.2"/>
<path d="M965.661 761.494H666.275C663.164 761.494 660.642 764.017 660.642 767.129V1166.37C660.642 1169.48 663.164 1172 666.275 1172H965.661C968.772 1172 971.294 1169.48 971.294 1166.37V767.129C971.294 764.017 968.772 761.494 965.661 761.494Z" stroke="#DADADA" stroke-width="1.2"/>
</svg>
