<svg width="1746" height="1481" viewBox="0 0 1746 1481" fill="none" xmlns="http://www.w3.org/2000/svg">
<g clip-path="url(#clip0_481_285)">
<path d="M1692.63 201.279C1678.52 201.279 1664.92 206.561 1654.92 215.964C1644.91 225.367 1639.29 238.118 1639.29 251.416V297.359C1639.29 297.913 1639.41 298.459 1639.61 298.973C1639.85 299.483 1640.17 299.95 1640.61 300.34C1641.01 300.731 1641.53 301.042 1642.04 301.249C1642.6 301.456 1643.2 301.56 1643.76 301.556H1692.63C1699.64 301.556 1706.58 300.256 1713.07 297.737C1719.53 295.218 1725.39 291.523 1730.37 286.867C1735.32 282.212 1739.26 276.687 1741.93 270.604C1744.6 264.522 1746 258.001 1746 251.416" stroke="#DADADA" stroke-width="1.2" stroke-linecap="round" stroke-linejoin="round"/>
<path d="M1692.63 301.556C1706.78 301.556 1720.37 296.275 1730.37 286.872C1740.38 277.469 1746 264.713 1746 251.416V205.477C1746 204.923 1745.88 204.373 1745.64 203.863C1745.44 203.348 1745.12 202.882 1744.68 202.491C1744.29 202.101 1743.77 201.794 1743.25 201.583C1742.69 201.375 1742.09 201.272 1741.53 201.28H1692.63C1685.65 201.28 1678.71 202.575 1672.22 205.094C1665.76 207.614 1659.86 211.309 1654.92 215.964C1649.98 220.62 1646.03 226.149 1643.36 232.231C1640.69 238.314 1639.29 244.835 1639.29 251.416" stroke="#DADADA" stroke-width="1.2" stroke-linecap="round" stroke-linejoin="round"/>
<path d="M1405.39 160.264H1338.27C1336.95 160.264 1335.72 159.745 1334.76 158.817C1333.85 157.892 1333.33 156.632 1333.33 155.325V56.5032C1333.33 55.1918 1333.85 53.9362 1334.76 53.0074C1335.72 52.0827 1336.95 51.5605 1338.27 51.5605H1437.08C1438.4 51.5605 1439.67 52.0827 1440.59 53.0074C1441.51 53.9362 1442.03 55.1918 1442.03 56.5032V123.64C1442.03 124.282 1441.91 124.915 1441.67 125.509C1441.43 126.103 1441.07 126.641 1440.59 127.096L1408.86 158.845C1408.42 159.295 1407.87 159.654 1407.27 159.901C1406.67 160.144 1406.03 160.268 1405.39 160.264Z" stroke="#DADADA" stroke-width="1.2" stroke-linecap="round" stroke-linejoin="round"/>
<path d="M1307.78 403.993H1174.13C1171.49 403.993 1169.02 402.957 1167.15 401.111C1165.32 399.266 1164.28 396.767 1164.28 394.156V197.433C1164.28 194.822 1165.32 192.323 1167.15 190.478C1169.02 188.632 1171.49 187.596 1174.13 187.596H1370.84C1373.47 187.596 1375.94 188.632 1377.81 190.478C1379.64 192.323 1380.68 194.822 1380.68 197.433V331.081C1380.68 332.36 1380.44 333.624 1379.96 334.808C1379.49 335.988 1378.77 337.064 1377.85 337.969L1314.67 401.163C1313.76 402.064 1312.68 402.778 1311.48 403.264C1310.33 403.75 1309.05 403.997 1307.78 403.993Z" stroke="#DADADA" stroke-width="1.2" stroke-linecap="round" stroke-linejoin="round"/>
<path fill-rule="evenodd" clip-rule="evenodd" d="M888.646 337.315C887.41 335.159 886.812 332.723 886.892 330.256C886.932 327.793 887.649 325.393 888.925 323.292L888.965 323.28L965.496 198.597C966.732 196.556 968.446 194.866 970.519 193.691C972.591 192.503 974.983 191.881 977.375 191.881C979.767 191.881 982.118 192.503 984.231 193.691C986.304 194.866 988.018 196.556 989.253 198.597L1065.78 323.28V323.296C1067.1 325.393 1067.82 327.797 1067.86 330.256C1067.94 332.723 1067.3 335.159 1066.1 337.315C1064.91 339.472 1063.15 341.265 1061 342.517C1058.85 343.769 1056.42 344.43 1053.95 344.434H900.763C898.292 344.43 895.86 343.769 893.748 342.517C891.595 341.265 889.842 339.472 888.646 337.315Z" stroke="#DADADA" stroke-width="1.2" stroke-linecap="round" stroke-linejoin="round"/>
<path fill-rule="evenodd" clip-rule="evenodd" d="M803.542 114.94C802.984 113.951 802.705 112.835 802.745 111.707C802.745 110.583 803.104 109.483 803.702 108.522V108.514L839.217 51.458C839.815 50.5252 840.612 49.752 841.569 49.2099C842.526 48.6678 843.642 48.3848 844.758 48.3848C845.874 48.3848 846.95 48.6678 847.946 49.2099C848.903 49.752 849.701 50.5252 850.259 51.458L885.814 108.514V108.522C886.412 109.483 886.73 110.583 886.77 111.707C886.77 112.835 886.491 113.951 885.933 114.94C885.375 115.924 884.578 116.745 883.582 117.319C882.585 117.893 881.469 118.196 880.313 118.196H809.202C808.046 118.196 806.891 117.893 805.934 117.319C804.937 116.745 804.1 115.924 803.542 114.94Z" stroke="#DADADA" stroke-width="1.2" stroke-linecap="round" stroke-linejoin="round"/>
<path fill-rule="evenodd" clip-rule="evenodd" d="M1443.5 117.523C1442.94 116.539 1442.66 115.423 1442.66 114.295C1442.7 113.167 1443.02 112.067 1443.62 111.106V111.102L1478.62 54.042C1479.17 53.1092 1479.97 52.336 1480.93 51.7979C1481.88 51.2558 1482.96 50.9688 1484.04 50.9688C1485.15 50.9688 1486.23 51.2558 1487.19 51.7979C1488.14 52.336 1488.9 53.1092 1489.46 54.042L1524.46 111.102V111.11C1525.05 112.067 1525.37 113.167 1525.41 114.295C1525.45 115.423 1525.17 116.539 1524.61 117.523C1524.06 118.512 1523.26 119.333 1522.26 119.903C1521.31 120.477 1520.19 120.78 1519.07 120.78H1449.04C1447.88 120.78 1446.81 120.477 1445.81 119.903C1444.85 119.333 1444.02 118.512 1443.5 117.523Z" stroke="#DADADA" stroke-width="1.2" stroke-linecap="round" stroke-linejoin="round"/>
<path fill-rule="evenodd" clip-rule="evenodd" d="M1234.31 183.24C1233.59 181.884 1233.2 180.358 1233.24 178.811C1233.28 177.269 1233.71 175.762 1234.51 174.446V174.438L1281.55 96.2445C1282.26 94.965 1283.34 93.9047 1284.62 93.1673C1285.89 92.4259 1287.37 92.0312 1288.84 92.0312C1290.31 92.0312 1291.75 92.4259 1293.03 93.1673C1294.3 93.9047 1295.38 94.965 1296.13 96.2445L1343.13 174.438L1343.17 174.446C1343.97 175.762 1344.37 177.269 1344.41 178.811C1344.45 180.358 1344.09 181.884 1343.33 183.24C1342.61 184.591 1341.5 185.715 1340.22 186.5C1338.9 187.285 1337.39 187.7 1335.88 187.7H1241.77C1240.25 187.7 1238.78 187.285 1237.46 186.5C1236.15 185.715 1235.07 184.591 1234.31 183.24Z" stroke="#DADADA" stroke-width="1.2" stroke-linecap="round" stroke-linejoin="round"/>
<path d="M1033.62 0C1048.37 0 1062.52 5.51266 1072.96 15.3223C1083.4 25.1359 1089.26 38.4452 1089.26 52.3206V100.269C1089.26 100.843 1089.14 101.417 1088.94 101.951C1088.7 102.485 1088.35 102.971 1087.91 103.382C1087.47 103.788 1086.95 104.111 1086.39 104.326C1085.83 104.546 1085.24 104.653 1084.6 104.645H1033.62C1026.28 104.645 1019.07 103.294 1012.29 100.663C1005.55 98.0324 999.417 94.178 994.235 89.319C989.053 84.46 984.947 78.6922 982.157 72.3464C979.367 65.9967 977.932 59.1925 977.932 52.3206" stroke="#DADADA" stroke-width="1.2" stroke-linecap="round" stroke-linejoin="round"/>
<path d="M1033.62 104.646C1018.83 104.646 1004.68 99.1329 994.235 89.3233C983.791 79.5097 977.932 66.2004 977.932 52.325V4.37704C977.932 3.80305 978.052 3.22908 978.251 2.69495C978.49 2.16082 978.849 1.67455 979.287 1.26399C979.726 0.857415 980.244 0.53452 980.802 0.315288C981.36 0.100043 981.958 -0.00755931 982.595 0.000412749H1033.62C1040.91 0.000412749 1048.13 1.35165 1054.9 3.98243C1061.64 6.61321 1067.78 10.4677 1072.96 15.3227C1078.14 20.1817 1082.25 25.9534 1085.04 32.2992C1087.83 38.649 1089.26 45.4531 1089.26 52.325" stroke="#DADADA" stroke-width="1.2" stroke-linecap="round" stroke-linejoin="round"/>
<path d="M1455.53 160.438C1475.27 160.438 1494.24 167.812 1508.19 180.946C1522.18 194.076 1530.03 211.885 1530.03 230.456V294.619C1530.03 295.389 1529.87 296.158 1529.55 296.871C1529.28 297.589 1528.8 298.239 1528.2 298.785C1527.64 299.331 1526.92 299.761 1526.17 300.052C1525.41 300.343 1524.61 300.487 1523.78 300.479H1455.53C1445.73 300.479 1436.04 298.669 1427.03 295.149C1417.99 291.63 1409.77 286.472 1402.84 279.971C1395.94 273.469 1390.44 265.748 1386.7 257.254C1382.95 248.756 1381.04 239.652 1381.04 230.456" stroke="#DADADA" stroke-width="1.2" stroke-linecap="round" stroke-linejoin="round"/>
<path d="M1455.53 300.464C1435.76 300.464 1416.83 293.09 1402.84 279.956C1388.89 266.826 1381.04 249.016 1381.04 230.445V166.282C1381.04 165.509 1381.2 164.743 1381.47 164.03C1381.79 163.312 1382.27 162.663 1382.83 162.117C1383.43 161.57 1384.1 161.14 1384.86 160.849C1385.62 160.558 1386.46 160.411 1387.25 160.423H1455.53C1465.3 160.423 1474.99 162.232 1484.03 165.752C1493.08 169.271 1501.29 174.429 1508.19 180.931C1515.13 187.432 1520.59 195.153 1524.33 203.647C1528.08 212.145 1530.03 221.249 1530.03 230.445" stroke="#DADADA" stroke-width="1.2" stroke-linecap="round" stroke-linejoin="round"/>
<path d="M1581.58 132.493L1615.66 101.553C1616.93 100.397 1618.01 98.9027 1618.73 97.1887C1619.44 95.4747 1619.84 93.5893 1619.84 91.676V63.989C1619.84 60.6925 1618.73 57.5316 1616.77 55.1998C1614.78 52.8679 1612.11 51.5605 1609.32 51.5605H1535.78C1533.03 51.5605 1530.32 52.8679 1528.36 55.1998C1526.41 57.5316 1525.29 60.6925 1525.29 63.989V91.947V91.9869C1525.29 93.9002 1525.69 95.7856 1526.41 97.4996C1527.13 99.2136 1528.16 100.708 1529.48 101.864L1564 132.493" stroke="#DADADA" stroke-width="1.2" stroke-linecap="round" stroke-linejoin="round"/>
<path d="M1581.58 132.488L1615.66 164.181C1616.93 165.337 1618.01 166.832 1618.73 168.546C1619.44 170.26 1619.84 172.145 1619.84 174.059V174.098V201.746C1619.84 205.042 1618.73 208.203 1616.77 210.535C1614.78 212.867 1612.11 214.174 1609.32 214.174H1535.78C1533.03 214.174 1530.32 212.867 1528.36 210.535C1526.41 208.203 1525.29 205.042 1525.29 201.746V173.748C1525.29 171.834 1525.69 169.949 1526.41 168.235C1527.13 166.521 1528.16 165.03 1529.48 163.87V163.846L1564 132.488" stroke="#DADADA" stroke-width="1.2" stroke-linecap="round" stroke-linejoin="round"/>
<path d="M939.826 112.963L972.871 84.0126C974.106 82.9284 975.143 81.5293 975.82 79.9269C976.538 78.3245 976.896 76.5587 976.896 74.769V48.8598C976.896 45.7746 975.82 42.817 973.907 40.6366C972.034 38.4563 969.442 37.2285 966.732 37.2285H895.422C892.711 37.2285 890.121 38.4563 888.207 40.6366C886.294 42.817 885.218 45.7746 885.218 48.8598V75.0201V75.056C885.258 76.8497 885.616 78.6155 886.294 80.2179C887.011 81.8203 888.047 83.2194 889.283 84.3036L922.766 112.963" stroke="#DADADA" stroke-width="1.2" stroke-linecap="round" stroke-linejoin="round"/>
<path d="M939.826 112.963L972.871 143.894C974.106 145.026 975.143 146.481 975.82 148.155C976.538 149.826 976.896 151.667 976.896 153.537V153.573V180.558C976.896 183.775 975.82 186.86 973.907 189.132C972.034 191.408 969.442 192.683 966.732 192.683H895.422C892.711 192.683 890.121 191.408 888.207 189.132C886.294 186.86 885.218 183.775 885.218 180.558V153.234C885.258 151.364 885.616 149.523 886.294 147.853C887.011 146.178 888.047 144.724 889.283 143.592L889.323 143.568L922.766 112.963" stroke="#DADADA" stroke-width="1.2" stroke-linecap="round" stroke-linejoin="round"/>
<path d="M1183.06 40.9199L1237.67 91.7338C1239.74 93.5913 1241.42 95.9869 1242.57 98.7333C1243.73 101.48 1244.37 104.501 1244.37 107.574V107.634V151.963C1244.37 157.248 1242.61 162.314 1239.43 166.053C1236.28 169.788 1232.01 171.889 1227.55 171.889H1109.64C1105.18 171.889 1100.87 169.788 1097.72 166.053C1094.57 162.314 1092.78 157.248 1092.78 151.963V107.076C1092.82 104.003 1093.42 100.981 1094.57 98.235C1095.73 95.4887 1097.4 93.093 1099.48 91.2355L1099.52 91.1996L1154.84 40.9199" stroke="#DADADA" stroke-width="1.2" stroke-linecap="round" stroke-linejoin="round"/>
<path d="M1723.04 51.7891H1627.37C1623.52 51.7891 1620.4 54.9121 1620.4 58.7646V194.29C1620.4 198.142 1623.52 201.265 1627.37 201.265H1723.04C1726.89 201.265 1730.01 198.142 1730.01 194.29V58.7646C1730.01 54.9121 1726.89 51.7891 1723.04 51.7891Z" stroke="#DADADA" stroke-width="1.2"/>
<path d="M878.002 119.551H786.323C782.471 119.551 779.348 122.674 779.348 126.526V258.065C779.348 261.918 782.471 265.041 786.323 265.041H878.002C881.854 265.041 884.977 261.918 884.977 258.065V126.526C884.977 122.674 881.854 119.551 878.002 119.551Z" stroke="#DADADA" stroke-width="1.2"/>
<path d="M1157.02 171.369H1065.34C1061.49 171.369 1058.37 174.492 1058.37 178.345V309.884C1058.37 313.736 1061.49 316.859 1065.34 316.859H1157.02C1160.88 316.859 1164 313.736 1164 309.884V178.345C1164 174.492 1160.88 171.369 1157.02 171.369Z" stroke="#DADADA" stroke-width="1.2"/>
<path d="M709.472 882.177H468.835C464.172 882.177 459.628 880.308 456.319 876.987C453.011 873.667 451.138 869.163 451.138 864.467V510.272C451.138 505.573 453.011 501.069 456.319 497.748C459.628 494.428 464.172 492.562 468.835 492.562H823.034C827.738 492.562 832.242 494.428 835.55 497.748C838.898 501.069 840.772 505.573 840.772 510.272V750.901C840.772 753.201 840.333 755.481 839.456 757.606C838.58 759.734 837.264 761.667 835.67 763.298L721.869 877.083C720.234 878.705 718.321 879.989 716.169 880.866C714.056 881.738 711.784 882.185 709.472 882.177Z" stroke="#DADADA" stroke-width="1.2" stroke-linecap="round" stroke-linejoin="round"/>
<path d="M1465.86 775.331H1645.59C1649.1 775.331 1652.45 773.9 1654.92 771.353C1657.43 768.806 1658.82 765.346 1658.82 761.743V489.967C1658.82 486.364 1657.43 482.908 1654.92 480.361C1652.45 477.814 1649.1 476.379 1645.59 476.379H1381.08C1377.57 476.379 1374.18 477.814 1371.71 480.361C1369.24 482.908 1367.84 486.364 1367.84 489.967V674.604C1367.84 676.37 1368.16 678.12 1368.8 679.75C1369.48 681.384 1370.43 682.867 1371.63 684.119L1456.61 771.425C1457.85 772.669 1459.28 773.657 1460.88 774.327C1462.47 774.996 1464.15 775.339 1465.86 775.331Z" stroke="#DADADA" stroke-width="1.2" stroke-linecap="round" stroke-linejoin="round"/>
<path fill-rule="evenodd" clip-rule="evenodd" d="M171.716 1051.75C169.205 1047.21 167.929 1042.08 168.049 1036.89C168.168 1031.7 169.643 1026.64 172.314 1022.23L172.353 1022.2L331.356 759.623C333.867 755.33 337.455 751.77 341.76 749.295C346.105 746.796 351.008 745.48 356.03 745.48C361.013 745.48 365.915 746.796 370.26 749.295C374.565 751.77 378.152 755.33 380.703 759.623L539.666 1022.2L539.706 1022.23C542.377 1026.65 543.851 1031.71 543.971 1036.89C544.091 1042.08 542.815 1047.21 540.344 1051.75C537.833 1056.29 534.166 1060.07 529.741 1062.71C525.277 1065.34 520.254 1066.73 515.112 1066.74H196.947C191.766 1066.73 186.743 1065.34 182.279 1062.71C177.854 1060.07 174.187 1056.29 171.716 1051.75Z" stroke="#DADADA" stroke-width="1.2" stroke-linecap="round" stroke-linejoin="round"/>
<path d="M1001.21 401.842C958.916 401.842 918.379 417.172 888.444 444.456C858.549 471.741 841.768 508.747 841.768 547.331V680.644C841.728 682.25 842.047 683.841 842.725 685.327C843.402 686.814 844.359 688.165 845.634 689.301C846.87 690.437 848.345 691.33 849.979 691.936C851.613 692.542 853.327 692.841 855.121 692.821H1001.21C1022.13 692.821 1042.86 689.058 1062.23 681.744C1081.56 674.434 1099.14 663.715 1113.93 650.207C1128.76 636.698 1140.48 620.658 1148.49 603.008C1156.5 585.354 1160.65 566.436 1160.65 547.331" stroke="#DADADA" stroke-width="1.2" stroke-linecap="round" stroke-linejoin="round"/>
<path d="M1001.21 692.822C1043.5 692.822 1084.04 677.492 1113.93 650.207C1143.83 622.923 1160.65 585.917 1160.65 547.332V414.02C1160.65 412.414 1160.33 410.823 1159.65 409.336C1159.01 407.85 1158.02 406.498 1156.78 405.362C1155.54 404.226 1154.07 403.333 1152.44 402.728C1150.8 402.122 1149.05 401.823 1147.29 401.843H1001.21C980.239 401.843 959.512 405.605 940.179 412.92C920.847 420.23 903.269 430.949 888.441 444.457C873.653 457.966 861.894 474.006 853.882 491.656C845.87 509.31 841.765 528.227 841.765 547.332" stroke="#DADADA" stroke-width="1.2" stroke-linecap="round" stroke-linejoin="round"/>
<path d="M1454.98 774.941C1399.49 774.941 1346.28 795.729 1307.02 832.731C1267.76 869.733 1245.71 919.917 1245.71 972.246V1153.04C1245.71 1155.22 1246.11 1157.38 1246.99 1159.39C1247.87 1161.41 1249.14 1163.24 1250.78 1164.78C1252.41 1166.32 1254.36 1167.54 1256.51 1168.36C1258.63 1169.18 1260.94 1169.58 1263.25 1169.55H1454.98C1482.48 1169.55 1509.67 1164.45 1535.06 1154.54C1560.45 1144.62 1583.53 1130.09 1602.98 1111.77C1622.39 1093.45 1637.82 1071.69 1648.34 1047.75C1658.83 1023.82 1664.25 998.159 1664.25 972.246" stroke="#DADADA" stroke-width="1.2" stroke-linecap="round" stroke-linejoin="round"/>
<path d="M1454.98 1169.56C1510.5 1169.56 1563.72 1148.77 1602.98 1111.77C1642.2 1074.76 1664.25 1024.58 1664.25 972.251V791.457C1664.29 789.281 1663.85 787.12 1662.97 785.103C1662.13 783.086 1660.82 781.253 1659.18 779.714C1657.55 778.176 1655.64 776.96 1653.48 776.143C1651.33 775.322 1649.06 774.915 1646.75 774.943H1454.98C1427.52 774.943 1400.29 780.045 1374.9 789.962C1349.51 799.875 1326.43 814.412 1307.02 832.732C1287.57 851.056 1272.18 872.804 1261.66 896.744C1251.13 920.684 1245.71 946.338 1245.71 972.251" stroke="#DADADA" stroke-width="1.2" stroke-linecap="round" stroke-linejoin="round"/>
<path d="M138.395 738.635L222.141 662.853C225.33 660.019 227.881 656.36 229.675 652.162C231.429 647.969 232.386 643.349 232.426 638.658V570.843C232.426 562.772 229.675 555.031 224.852 549.323C219.989 543.615 213.452 540.41 206.596 540.41H25.8294C18.9734 540.41 12.3967 543.615 7.57355 549.323C2.7106 555.031 0 562.772 0 570.843V639.324V639.419C0.0398603 644.107 0.9569 648.73 2.75061 652.924C4.54433 657.121 7.09545 660.78 10.2843 663.614L95.1465 738.635" stroke="#DADADA" stroke-width="1.2" stroke-linecap="round" stroke-linejoin="round"/>
<path d="M138.395 738.621L222.141 818.182C225.33 821.092 227.881 824.839 229.675 829.14C231.429 833.441 232.386 838.176 232.426 842.983V843.079V912.488C232.426 920.759 229.675 928.695 224.852 934.547C219.989 940.394 213.452 943.682 206.596 943.682H25.8294C18.9734 943.682 12.3967 940.394 7.57355 934.547C2.7106 928.695 0 920.759 0 912.488V842.202C0.0398603 837.395 0.9569 832.66 2.75061 828.359C4.54433 824.058 7.09545 820.311 10.2843 817.401L10.3237 817.345L95.1465 738.621" stroke="#DADADA" stroke-width="1.2" stroke-linecap="round" stroke-linejoin="round"/>
<path d="M1283.94 587.791L1358.64 517.697C1361.47 515.074 1363.74 511.69 1365.33 507.807C1366.93 503.929 1367.76 499.652 1367.8 495.315V432.587C1367.8 425.121 1365.37 417.962 1361.03 412.681C1356.72 407.399 1350.86 404.434 1344.76 404.434H1183.53C1177.43 404.434 1171.57 407.399 1167.27 412.681C1162.96 417.962 1160.53 425.121 1160.53 432.587V495.933V496.017C1160.53 500.357 1161.37 504.63 1162.96 508.513C1164.56 512.395 1166.83 515.775 1169.66 518.402L1245.35 587.791" stroke="#DADADA" stroke-width="1.2" stroke-linecap="round" stroke-linejoin="round"/>
<path d="M1283.94 587.793L1358.64 657.389C1361.47 659.932 1363.74 663.209 1365.33 666.972C1366.93 670.734 1367.76 674.876 1367.8 679.081V679.165V739.88C1367.8 747.115 1365.37 754.058 1361.03 759.172C1356.72 764.29 1350.86 767.164 1344.76 767.164H1183.53C1177.43 767.164 1171.57 764.29 1167.27 759.172C1162.96 754.058 1160.53 747.115 1160.53 739.88V678.399C1160.53 674.194 1161.37 670.053 1162.96 666.29C1164.56 662.527 1166.83 659.251 1169.66 656.703L1169.74 656.656L1245.35 587.793" stroke="#DADADA" stroke-width="1.2" stroke-linecap="round" stroke-linejoin="round"/>
<path d="M731.316 1148.76L847.07 1046.85C851.455 1043.03 855.002 1038.12 857.474 1032.47C859.945 1026.83 861.221 1020.62 861.261 1014.31V923.11C861.261 912.256 857.514 901.845 850.817 894.168C844.121 886.494 835.032 882.182 825.546 882.182H575.701C566.215 882.182 557.166 886.494 550.47 894.168C543.773 901.845 539.986 912.256 539.986 923.11V1015.2V1015.33C540.026 1021.64 541.342 1027.86 543.773 1033.5C546.245 1039.14 549.792 1044.06 554.177 1047.87L671.525 1148.76" stroke="#DADADA" stroke-width="1.2" stroke-linecap="round" stroke-linejoin="round"/>
<path d="M671.727 1148.63L556.612 1250.32C552.252 1254.13 548.724 1259.04 546.266 1264.67C543.808 1270.3 542.54 1276.5 542.5 1282.79L542.5 1373.79C542.5 1384.62 546.226 1395.01 552.886 1402.67C559.545 1410.33 568.584 1414.63 578.018 1414.63L826.482 1414.63C835.916 1414.63 844.915 1410.33 851.575 1402.67C858.234 1395.01 862 1384.62 862 1373.79L862 1281.9L862 1281.77C861.96 1275.47 860.652 1269.27 858.234 1263.65C855.776 1258.01 852.248 1253.1 847.888 1249.3L731.188 1148.63" stroke="#DADADA" stroke-width="1.2" stroke-linecap="round" stroke-linejoin="round"/>
<path d="M1169.93 764.57H869.077C865.2 764.57 862.057 767.693 862.057 771.546V1162.18C862.057 1166.03 865.2 1169.15 869.077 1169.15H1169.93C1173.81 1169.15 1176.95 1166.03 1176.95 1162.18V771.546C1176.95 767.693 1173.81 764.57 1169.93 764.57Z" stroke="#DADADA" stroke-width="1.2"/>
</g>
<defs>
<clipPath id="clip0_481_285">
<rect width="1746" height="1481" fill="white"/>
</clipPath>
</defs>
</svg>
