<svg width="1742" height="1171" viewBox="0 0 1742 1171" fill="none" xmlns="http://www.w3.org/2000/svg">
<path fill-rule="evenodd" clip-rule="evenodd" d="M1194.75 994.986C1195.45 993.728 1195.8 992.303 1195.77 990.862C1195.74 989.425 1195.32 988.023 1194.57 986.796L1194.56 986.79L1149.88 913.973C1149.16 912.785 1148.15 911.798 1146.94 911.108C1145.72 910.415 1144.34 910.051 1142.94 910.051C1141.54 910.051 1140.16 910.415 1138.94 911.108C1137.73 911.798 1136.72 912.785 1136 913.973L1091.32 986.79L1091.31 986.8C1090.56 988.023 1090.14 989.425 1090.11 990.862C1090.08 992.303 1090.43 993.728 1091.13 994.986C1091.84 996.244 1092.87 997.295 1094.11 998.023C1095.36 998.755 1096.78 999.141 1098.23 999.141H1187.65C1189.1 999.141 1190.52 998.755 1191.77 998.023C1193.01 997.295 1194.04 996.244 1194.75 994.986Z" stroke="#DADADA" stroke-width="1.2" stroke-linecap="round" stroke-linejoin="round"/>
<path d="M1342.7 1086.72H1396.5C1397.55 1086.72 1398.55 1086.31 1399.3 1085.57C1400.04 1084.82 1400.46 1083.82 1400.46 1082.76V1003.58C1400.46 1002.53 1400.04 1001.52 1399.3 1000.78C1398.55 1000.04 1397.55 999.621 1396.5 999.621H1317.31C1316.26 999.621 1315.25 1000.04 1314.51 1000.78C1313.77 1001.52 1313.35 1002.53 1313.35 1003.58V1057.38C1313.35 1057.89 1313.45 1058.4 1313.64 1058.88C1313.84 1059.35 1314.13 1059.78 1314.49 1060.15L1339.93 1085.59C1340.29 1085.95 1340.73 1086.24 1341.2 1086.43C1341.67 1086.63 1342.19 1086.73 1342.7 1086.72Z" stroke="#DADADA" stroke-width="1.2" stroke-linecap="round" stroke-linejoin="round"/>
<path d="M1530.08 887.123H1622.25C1624.05 887.123 1625.78 886.407 1627.05 885.136C1628.32 883.865 1629.04 882.14 1629.04 880.339V744.677C1629.04 742.878 1628.32 741.154 1627.05 739.879C1625.78 738.608 1624.05 737.893 1622.25 737.893H1486.59C1484.79 737.893 1483.07 738.608 1481.79 739.879C1480.52 741.154 1479.8 742.878 1479.8 744.677V836.843C1479.8 837.724 1479.97 838.596 1480.31 839.411C1480.64 840.225 1481.13 840.966 1481.76 841.592L1525.34 885.171C1525.96 885.794 1526.7 886.286 1527.52 886.622C1528.33 886.957 1529.21 887.126 1530.08 887.123Z" stroke="#DADADA" stroke-width="1.2" stroke-linecap="round" stroke-linejoin="round"/>
<path d="M1250.08 845.797H1184.86C1183.59 845.797 1182.36 845.29 1181.46 844.392C1180.56 843.491 1180.06 842.268 1180.06 840.997V744.988C1180.06 743.717 1180.56 742.494 1181.46 741.593C1182.36 740.695 1183.59 740.188 1184.86 740.188H1280.87C1282.14 740.188 1283.36 740.695 1284.26 741.593C1285.16 742.494 1285.67 743.717 1285.67 744.988V810.213C1285.67 810.836 1285.55 811.455 1285.31 812.03C1285.07 812.608 1284.72 813.132 1284.29 813.573L1253.44 844.418C1253 844.855 1252.48 845.203 1251.9 845.44C1251.32 845.679 1250.7 845.797 1250.08 845.797Z" stroke="#DADADA" stroke-width="1.2" stroke-linecap="round" stroke-linejoin="round"/>
<path fill-rule="evenodd" clip-rule="evenodd" d="M1739.25 953.044C1740.21 951.319 1740.72 949.365 1740.66 947.388C1740.63 945.417 1740.05 943.491 1739.03 941.811L1739 941.798L1677.67 841.89C1676.68 840.258 1675.31 838.903 1673.65 837.958C1671.99 837.009 1670.07 836.508 1668.16 836.508C1666.24 836.508 1664.32 837.009 1662.66 837.958C1661 838.903 1659.63 840.258 1658.64 841.89L1597.3 941.798L1597.29 941.811C1596.25 943.491 1595.68 945.417 1595.64 947.388C1595.6 949.365 1596.08 951.319 1597.05 953.044C1598.01 954.772 1599.43 956.213 1601.14 957.216C1602.85 958.215 1604.8 958.746 1606.78 958.749H1729.51C1731.52 958.746 1733.47 958.215 1735.17 957.216C1736.89 956.213 1738.3 954.772 1739.25 953.044Z" stroke="#DADADA" stroke-width="1.2" stroke-linecap="round" stroke-linejoin="round"/>
<path fill-rule="evenodd" clip-rule="evenodd" d="M1312.19 1053.48C1312.63 1052.68 1312.85 1051.79 1312.83 1050.89C1312.81 1049.99 1312.55 1049.1 1312.08 1048.33L1312.07 1048.33L1284.03 1002.61C1283.59 1001.86 1282.95 1001.24 1282.19 1000.81C1281.43 1000.37 1280.56 1000.15 1279.68 1000.15C1278.8 1000.15 1277.94 1000.37 1277.17 1000.81C1276.41 1001.24 1275.78 1001.86 1275.33 1002.61L1247.29 1048.33L1247.29 1048.33C1246.81 1049.1 1246.55 1049.99 1246.53 1050.89C1246.51 1051.79 1246.74 1052.68 1247.18 1053.48C1247.62 1054.27 1248.26 1054.93 1249.05 1055.38C1249.83 1055.84 1250.72 1056.09 1251.63 1056.09H1307.74C1308.65 1056.09 1309.53 1055.84 1310.32 1055.38C1311.1 1054.93 1311.74 1054.27 1312.19 1053.48Z" stroke="#DADADA" stroke-width="1.2" stroke-linecap="round" stroke-linejoin="round"/>
<path fill-rule="evenodd" clip-rule="evenodd" d="M1481.12 1105.36C1481.72 1104.26 1482.02 1103.01 1482 1101.75C1481.97 1100.49 1481.62 1099.26 1480.97 1098.19L1480.97 1098.18L1442.91 1034.44C1442.3 1033.39 1441.44 1032.53 1440.41 1031.93C1439.37 1031.32 1438.2 1031 1437 1031C1435.8 1031 1434.63 1031.32 1433.59 1031.93C1432.56 1032.53 1431.7 1033.39 1431.09 1034.44L1393.03 1098.18L1393.02 1098.19C1392.38 1099.26 1392.03 1100.49 1392 1101.75C1391.98 1103.01 1392.28 1104.26 1392.88 1105.36C1393.48 1106.46 1394.35 1107.38 1395.41 1108.02C1396.47 1108.66 1397.68 1109 1398.92 1109H1475.08C1476.32 1109 1477.53 1108.66 1478.59 1108.02C1479.65 1107.38 1480.52 1106.46 1481.12 1105.36Z" stroke="#DADADA" stroke-width="1.2" stroke-linecap="round" stroke-linejoin="round"/>
<path d="M1420.72 708.273C1436.39 708.273 1451.42 714.163 1462.5 724.646C1473.58 735.125 1479.81 749.345 1479.81 764.169V815.384C1479.81 816.001 1479.69 816.614 1479.45 817.186C1479.2 817.758 1478.84 818.275 1478.38 818.713C1477.91 819.147 1477.37 819.492 1476.76 819.725C1476.16 819.955 1475.51 820.07 1474.86 820.064H1420.72C1412.96 820.064 1405.27 818.617 1398.11 815.809C1390.94 812.999 1384.42 808.882 1378.94 803.691C1373.45 798.501 1369.09 792.34 1366.13 785.559C1363.16 778.778 1361.63 771.508 1361.63 764.169" stroke="#DADADA" stroke-width="1.2" stroke-linecap="round" stroke-linejoin="round"/>
<path d="M1420.72 820.064C1405.05 820.064 1390.02 814.174 1378.94 803.692C1367.86 793.212 1361.63 778.992 1361.63 764.169V712.953C1361.62 712.337 1361.74 711.723 1361.99 711.151C1362.23 710.58 1362.6 710.062 1363.06 709.625C1363.52 709.19 1364.07 708.845 1364.67 708.612C1365.27 708.382 1365.92 708.267 1366.57 708.274H1420.72C1428.48 708.274 1436.16 709.72 1443.33 712.528C1450.5 715.339 1457.01 719.456 1462.5 724.646C1467.99 729.836 1472.34 735.998 1475.31 742.778C1478.28 749.559 1479.81 756.829 1479.81 764.169" stroke="#DADADA" stroke-width="1.2" stroke-linecap="round" stroke-linejoin="round"/>
<path d="M1644.7 958.291C1633.36 958.291 1622.49 962.526 1614.47 970.058C1606.46 977.592 1601.95 987.813 1601.95 998.469V1035.28C1601.95 1035.72 1602.04 1036.16 1602.21 1036.58C1602.39 1036.99 1602.65 1037.36 1602.99 1037.67C1603.32 1037.98 1603.72 1038.23 1604.15 1038.4C1604.59 1038.57 1605.06 1038.65 1605.53 1038.64H1644.7C1650.31 1038.64 1655.86 1037.6 1661.04 1035.59C1666.25 1033.57 1670.94 1030.61 1674.93 1026.88C1678.89 1023.15 1682.02 1018.72 1684.2 1013.84C1686.34 1008.97 1687.42 1003.75 1687.42 998.469" stroke="#DADADA" stroke-width="1.2" stroke-linecap="round" stroke-linejoin="round"/>
<path d="M1644.7 1038.64C1656.02 1038.64 1666.92 1034.4 1674.93 1026.87C1682.92 1019.34 1687.42 1009.11 1687.42 998.46V961.646C1687.45 961.205 1687.36 960.764 1687.17 960.352C1687.01 959.943 1686.75 959.569 1686.4 959.256C1686.08 958.943 1685.66 958.694 1685.25 958.528C1684.8 958.362 1684.32 958.279 1683.84 958.285H1644.7C1639.08 958.285 1633.52 959.323 1628.34 961.342C1623.15 963.361 1618.44 966.321 1614.47 970.052C1610.5 973.783 1607.35 978.21 1605.21 983.087C1603.06 987.961 1601.95 993.183 1601.95 998.46" stroke="#DADADA" stroke-width="1.2" stroke-linecap="round" stroke-linejoin="round"/>
<path d="M1249.76 845.814C1271.46 845.814 1292.27 853.918 1307.62 868.342C1322.96 882.766 1331.58 902.326 1331.58 922.723V993.196C1331.59 994.042 1331.42 994.885 1331.08 995.671C1330.74 996.457 1330.24 997.172 1329.6 997.769C1328.96 998.37 1328.2 998.846 1327.36 999.165C1326.53 999.484 1325.63 999.641 1324.73 999.631H1249.76C1239.01 999.631 1228.38 997.642 1218.45 993.777C1208.52 989.912 1199.5 984.246 1191.91 977.104C1184.31 969.962 1178.28 961.485 1174.17 952.156C1170.06 942.823 1167.94 932.822 1167.94 922.723" stroke="#DADADA" stroke-width="1.2" stroke-linecap="round" stroke-linejoin="round"/>
<path d="M1249.76 999.626C1228.06 999.626 1207.25 991.523 1191.91 977.099C1176.56 962.678 1167.94 943.115 1167.94 922.718V852.248C1167.93 851.399 1168.1 850.555 1168.44 849.77C1168.78 848.984 1169.28 848.272 1169.92 847.671C1170.56 847.071 1171.32 846.598 1172.16 846.279C1172.99 845.959 1173.89 845.799 1174.79 845.809H1249.76C1260.5 845.809 1271.14 847.799 1281.07 851.664C1291 855.528 1300.02 861.195 1307.62 868.336C1315.21 875.478 1321.24 883.955 1325.35 893.288C1329.46 902.618 1331.58 912.618 1331.58 922.718" stroke="#DADADA" stroke-width="1.2" stroke-linecap="round" stroke-linejoin="round"/>
<path d="M1316.31 777.492L1289.01 752.7C1287.98 751.774 1287.14 750.576 1286.56 749.203C1285.98 747.832 1285.67 746.318 1285.66 744.785V722.599C1285.66 719.958 1286.55 717.425 1288.13 715.557C1289.71 713.692 1291.85 712.641 1294.08 712.641H1353.01C1355.24 712.641 1357.38 713.692 1358.96 715.557C1360.54 717.425 1361.43 719.958 1361.43 722.599V745.002V745.034C1361.42 746.567 1361.11 748.081 1360.53 749.452C1359.95 750.825 1359.11 752.023 1358.08 752.949L1330.41 777.492" stroke="#DADADA" stroke-width="1.2" stroke-linecap="round" stroke-linejoin="round"/>
<path d="M1316.31 777.494L1289.01 802.89C1287.98 803.819 1287.14 805.014 1286.56 806.387C1285.98 807.761 1285.67 809.271 1285.66 810.808V810.836V832.993C1285.66 835.631 1286.55 838.164 1288.13 840.033C1289.71 841.901 1291.85 842.949 1294.08 842.949H1353.01C1355.24 842.949 1357.38 841.901 1358.96 840.033C1360.54 838.164 1361.43 835.631 1361.43 832.993V810.558C1361.42 809.022 1361.11 807.511 1360.53 806.138C1359.95 804.765 1359.11 803.57 1358.08 802.641L1358.06 802.621L1330.41 777.494" stroke="#DADADA" stroke-width="1.2" stroke-linecap="round" stroke-linejoin="round"/>
<path d="M1201.52 1064.47L1174.22 1039.68C1173.19 1038.75 1172.35 1037.56 1171.77 1036.18C1171.19 1034.81 1170.88 1033.3 1170.88 1031.76V1009.58C1170.88 1006.94 1171.76 1004.41 1173.34 1002.54C1174.92 1000.67 1177.06 999.621 1179.29 999.621H1238.22C1240.45 999.621 1242.59 1000.67 1244.17 1002.54C1245.75 1004.41 1246.64 1006.94 1246.64 1009.58V1031.98V1032.01C1246.63 1033.55 1246.32 1035.06 1245.74 1036.43C1245.16 1037.81 1244.32 1039 1243.29 1039.93L1215.62 1064.47" stroke="#DADADA" stroke-width="1.2" stroke-linecap="round" stroke-linejoin="round"/>
<path d="M1201.52 1064.47L1174.22 1089.87C1173.19 1090.8 1172.35 1092 1171.77 1093.37C1171.19 1094.74 1170.88 1096.25 1170.88 1097.79V1097.82V1119.97C1170.88 1122.61 1171.76 1125.15 1173.34 1127.01C1174.92 1128.88 1177.06 1129.93 1179.29 1129.93H1238.22C1240.45 1129.93 1242.59 1128.88 1244.17 1127.01C1245.75 1125.15 1246.64 1122.61 1246.64 1119.97V1097.54C1246.63 1096 1246.32 1094.49 1245.74 1093.12C1245.16 1091.75 1244.32 1090.55 1243.29 1089.62L1243.27 1089.6L1215.62 1064.47" stroke="#DADADA" stroke-width="1.2" stroke-linecap="round" stroke-linejoin="round"/>
<path d="M1523.27 991.106L1479.5 951.359C1477.84 949.871 1476.49 947.951 1475.56 945.751C1474.64 943.55 1474.14 941.126 1474.13 938.666V903.094C1474.13 898.862 1475.55 894.8 1478.08 891.807C1480.61 888.814 1484.05 887.131 1487.63 887.131H1582.1C1585.68 887.131 1589.12 888.814 1591.64 891.807C1594.18 894.8 1595.6 898.862 1595.6 903.094V939.014V939.065C1595.59 941.525 1595.09 943.949 1594.16 946.15C1593.24 948.35 1591.89 950.27 1590.23 951.758L1545.87 991.106" stroke="#DADADA" stroke-width="1.2" stroke-linecap="round" stroke-linejoin="round"/>
<path d="M1523.27 991.105L1479.5 1031.82C1477.84 1033.31 1476.49 1035.23 1475.56 1037.43C1474.64 1039.63 1474.14 1042.05 1474.13 1044.51V1044.56V1080.08C1474.13 1084.32 1475.55 1088.38 1478.08 1091.37C1480.61 1094.37 1484.05 1096.05 1487.63 1096.05H1582.1C1585.68 1096.05 1589.12 1094.37 1591.64 1091.37C1594.18 1088.38 1595.6 1084.32 1595.6 1080.08V1044.11C1595.59 1041.65 1595.09 1039.23 1594.16 1037.03C1593.24 1034.83 1591.89 1032.91 1590.23 1031.42L1590.2 1031.39L1545.87 991.105" stroke="#DADADA" stroke-width="1.2" stroke-linecap="round" stroke-linejoin="round"/>
<path d="M1362.61 840H1468.39C1471.49 840 1474 842.517 1474 845.621V993.379C1474 996.483 1471.49 999 1468.39 999H1362.61C1359.51 999 1357 996.483 1357 993.379V845.621C1357 842.517 1359.51 840 1362.61 840Z" stroke="#DADADA" stroke-width="1.2"/>
<path d="M1097.74 999.502H1164.81C1167.9 999.502 1170.4 1002 1170.4 1005.09V1100.91C1170.4 1104 1167.9 1106.5 1164.81 1106.5H1097.74C1094.65 1106.5 1092.15 1104 1092.15 1100.91V1005.09C1092.15 1002 1094.65 999.502 1097.74 999.502Z" stroke="#DADADA" stroke-width="1.2"/>
<path d="M153.025 997.186H99.2281C98.1773 997.186 97.1712 996.767 96.427 996.026C95.686 995.282 95.2676 994.276 95.2676 993.225V914.039C95.2676 912.988 95.686 911.982 96.427 911.241C97.1712 910.497 98.1773 910.082 99.2281 910.082H178.414C179.465 910.082 180.471 910.497 181.215 911.241C181.956 911.982 182.375 912.988 182.375 914.039V967.836C182.375 968.35 182.276 968.861 182.081 969.337C181.886 969.813 181.599 970.244 181.234 970.608L155.797 996.046C155.433 996.41 154.999 996.697 154.523 996.892C154.05 997.087 153.539 997.186 153.025 997.186Z" stroke="#DADADA" stroke-width="1.2" stroke-linecap="round" stroke-linejoin="round"/>
<path fill-rule="evenodd" clip-rule="evenodd" d="M138.53 1050.4C138.977 1049.62 139.204 1048.72 139.185 1047.82C139.163 1046.91 138.897 1046.03 138.415 1045.27L138.412 1045.26L109.937 999.537C109.481 998.789 108.839 998.17 108.066 997.739C107.289 997.304 106.411 997.074 105.517 997.074C104.623 997.074 103.744 997.304 102.965 997.739C102.195 998.17 101.553 998.789 101.096 999.537L72.6185 1045.26L72.6153 1045.27C72.1362 1046.04 71.8711 1046.91 71.8488 1047.82C71.8296 1048.72 72.0564 1049.62 72.5036 1050.4C72.954 1051.2 73.6086 1051.85 74.4039 1052.31C75.1961 1052.77 76.1 1053.01 77.0231 1053.02H134.01C134.93 1053.01 135.837 1052.77 136.63 1052.31C137.425 1051.85 138.08 1051.2 138.53 1050.4Z" stroke="#DADADA" stroke-width="1.2" stroke-linecap="round" stroke-linejoin="round"/>
<path d="M224.575 946.82C235.91 946.82 246.783 951.052 254.8 958.587C262.814 966.122 267.317 976.339 267.317 986.995V1023.81C267.324 1024.25 267.234 1024.69 267.058 1025.1C266.88 1025.51 266.618 1025.88 266.282 1026.2C265.95 1026.51 265.554 1026.76 265.117 1026.93C264.679 1027.09 264.213 1027.18 263.74 1027.17H224.575C218.963 1027.17 213.406 1026.13 208.218 1024.11C203.035 1022.09 198.323 1019.13 194.353 1015.4C190.383 1011.67 187.237 1007.24 185.087 1002.37C182.941 997.497 181.836 992.271 181.836 986.995" stroke="#DADADA" stroke-width="1.2" stroke-linecap="round" stroke-linejoin="round"/>
<path d="M224.569 1027.16C213.234 1027.16 202.365 1022.93 194.348 1015.4C186.331 1007.86 181.83 997.642 181.83 986.987V950.176C181.824 949.732 181.91 949.291 182.089 948.883C182.265 948.471 182.53 948.097 182.862 947.784C183.197 947.471 183.594 947.225 184.031 947.056C184.466 946.889 184.935 946.806 185.408 946.813H224.569C230.184 946.813 235.742 947.851 240.926 949.87C246.113 951.888 250.824 954.849 254.794 958.58C258.761 962.31 261.911 966.74 264.057 971.614C266.207 976.488 267.312 981.714 267.312 986.987" stroke="#DADADA" stroke-width="1.2" stroke-linecap="round" stroke-linejoin="round"/>
<path d="M63.5881 833.61L31.9962 804.921C30.8016 803.848 29.8306 802.462 29.1599 800.874C28.4891 799.287 28.1346 797.537 28.125 795.761V770.09C28.125 767.034 29.1503 764.102 30.9773 761.942C32.8042 759.78 35.2828 758.566 37.8668 758.566H106.052C108.636 758.566 111.112 759.78 112.939 761.942C114.766 764.102 115.794 767.034 115.794 770.09V796.013V796.048C115.785 797.824 115.43 799.574 114.759 801.162C114.089 802.752 113.118 804.135 111.92 805.209L79.9031 833.61" stroke="#DADADA" stroke-width="1.2" stroke-linecap="round" stroke-linejoin="round"/>
<path d="M63.5881 833.613L31.9962 863.001C30.8016 864.074 29.8306 865.461 29.1599 867.048C28.4891 868.636 28.1346 870.386 28.125 872.162V872.197V897.832C28.125 900.889 29.1503 903.821 30.9773 905.98C32.8042 908.142 35.2828 909.356 37.8668 909.356H106.052C108.636 909.356 111.112 908.142 112.939 905.98C114.766 903.821 115.794 900.889 115.794 897.832V871.874C115.785 870.098 115.43 868.348 114.759 866.761C114.089 865.17 113.118 863.787 111.92 862.714L111.898 862.692L79.9031 833.613" stroke="#DADADA" stroke-width="1.2" stroke-linecap="round" stroke-linejoin="round"/>
<path d="M30.1581 1049.84L4.18446 1026.26C3.2007 1025.37 2.40224 1024.23 1.84968 1022.93C1.29711 1021.62 1.00639 1020.18 1 1018.72V997.616C1 995.102 1.84325 992.694 3.34443 990.918C4.84881 989.142 6.88342 988.143 9.00744 988.143H65.0718C67.1958 988.143 69.2304 989.142 70.7348 990.918C72.236 992.694 73.0792 995.102 73.0792 997.616V1018.93V1018.96C73.0728 1020.42 72.7821 1021.86 72.2295 1023.16C71.677 1024.47 70.8785 1025.61 69.8948 1026.49L43.5697 1049.84" stroke="#DADADA" stroke-width="1.2" stroke-linecap="round" stroke-linejoin="round"/>
<path d="M30.1581 1049.84L4.18446 1074.01C3.2007 1074.89 2.40224 1076.03 1.84968 1077.33C1.29711 1078.64 1.00639 1080.08 1 1081.54V1081.57V1102.65C1 1105.16 1.84325 1107.57 3.34443 1109.35C4.84881 1111.12 6.88342 1112.12 9.00744 1112.12H65.0718C67.1958 1112.12 69.2304 1111.12 70.7348 1109.35C72.236 1107.57 73.0792 1105.16 73.0792 1102.65V1081.3C73.0728 1079.84 72.7821 1078.4 72.2295 1077.1C71.677 1075.79 70.8785 1074.65 69.8948 1073.77L69.8756 1073.75L43.5697 1049.84" stroke="#DADADA" stroke-width="1.2" stroke-linecap="round" stroke-linejoin="round"/>
<path d="M107.593 1053.8H181.055C184.142 1053.8 186.645 1056.3 186.645 1059.39V1164.79C186.645 1167.88 184.142 1170.38 181.055 1170.38H107.593C104.506 1170.38 102.003 1167.88 102.003 1164.79V1059.39C102.003 1056.3 104.506 1053.8 107.593 1053.8Z" stroke="#DADADA" stroke-width="1.2"/>
<path d="M451.052 312.792H285.331C282.095 312.792 278.991 311.504 276.704 309.217C274.417 306.93 273.133 303.829 273.133 300.594V56.6609C273.133 53.4254 274.417 50.324 276.704 48.0339C278.991 45.747 282.095 44.4629 285.331 44.4629H529.263C532.499 44.4629 535.6 45.747 537.887 48.0339C540.174 50.324 541.461 53.4254 541.461 56.6609V222.382C541.465 223.966 541.158 225.534 540.557 227.001C539.957 228.467 539.072 229.798 537.954 230.92L459.589 309.284C458.468 310.402 457.136 311.287 455.67 311.888C454.204 312.488 452.636 312.795 451.052 312.792Z" stroke="#DADADA" stroke-width="1.2" stroke-linecap="round" stroke-linejoin="round"/>
<path d="M717.459 1.00586C750.753 1.00586 782.687 13.4401 806.227 35.5682C829.77 57.6994 842.996 87.7134 842.996 119.008V227.135C843.016 228.435 842.757 229.729 842.236 230.936C841.712 232.14 840.939 233.236 839.962 234.156C838.981 235.079 837.816 235.804 836.532 236.295C835.251 236.784 833.874 237.027 832.491 237.011H717.459C700.975 237.011 684.65 233.958 669.418 228.03C654.189 222.098 640.349 213.407 628.691 202.449C617.033 191.493 607.787 178.484 601.478 164.165C595.17 149.85 591.922 134.506 591.922 119.008" stroke="#DADADA" stroke-width="1.2" stroke-linecap="round" stroke-linejoin="round"/>
<path d="M717.46 237.003C684.165 237.003 652.235 224.572 628.692 202.441C605.149 180.313 591.923 150.298 591.923 119V10.8769C591.907 9.57371 592.165 8.28332 592.686 7.07598C593.206 5.86865 593.979 4.77319 594.96 3.85332C595.941 2.93344 597.106 2.20519 598.387 1.71651C599.671 1.22463 601.045 0.981888 602.431 1.00105H717.46C733.947 1.00105 750.272 4.05137 765.501 9.98264C780.733 15.9107 794.573 24.6048 806.231 35.5602C817.886 46.5189 827.133 59.528 833.444 73.8435C839.752 88.1622 842.997 103.506 842.997 119" stroke="#DADADA" stroke-width="1.2" stroke-linecap="round" stroke-linejoin="round"/>
<path d="M1565.15 528.151H1372.34C1368.57 528.151 1364.96 526.657 1362.3 523.996C1359.64 521.335 1358.15 517.726 1358.15 513.96V230.144C1358.15 226.382 1359.64 222.772 1362.3 220.112C1364.96 217.448 1368.57 215.953 1372.34 215.953H1656.14C1659.91 215.953 1663.52 217.448 1666.2 220.112C1668.85 222.772 1670.35 226.382 1670.35 230.144V422.963C1670.35 424.806 1670 426.63 1669.3 428.335C1668.6 430.041 1667.58 431.59 1666.27 432.897L1575.09 524.073C1573.78 525.372 1572.23 526.401 1570.53 527.1C1568.82 527.8 1567 528.158 1565.15 528.151Z" stroke="#DADADA" stroke-width="1.2" stroke-linecap="round" stroke-linejoin="round"/>
<path d="M934.625 758.196H1046.26C1048.43 758.196 1050.52 757.305 1052.07 755.718C1053.6 754.13 1054.47 751.977 1054.47 749.732V580.437C1054.47 578.191 1053.6 576.039 1052.07 574.451C1050.52 572.864 1048.43 571.973 1046.26 571.973H881.94C879.761 571.973 877.672 572.864 876.13 574.451C874.59 576.039 873.725 578.191 873.725 580.437V695.453C873.721 696.552 873.929 697.641 874.332 698.657C874.737 699.672 875.334 700.599 876.088 701.378L928.872 755.762C929.629 756.538 930.527 757.152 931.514 757.57C932.501 757.989 933.558 758.199 934.625 758.196Z" stroke="#DADADA" stroke-width="1.2" stroke-linecap="round" stroke-linejoin="round"/>
<path fill-rule="evenodd" clip-rule="evenodd" d="M1139.04 664.27C1137.03 660.712 1136.02 656.684 1136.11 652.612C1136.2 648.546 1137.38 644.576 1139.54 641.114L1139.56 641.091L1266.95 435.167C1268.99 431.801 1271.87 429.009 1275.31 427.067C1278.79 425.106 1282.72 424.074 1286.73 424.074C1290.73 424.074 1294.66 425.106 1298.14 427.067C1301.58 429.009 1304.46 431.801 1306.5 435.167L1433.9 641.091L1433.91 641.117C1436.07 644.579 1437.25 648.546 1437.34 652.612C1437.43 656.684 1436.42 660.712 1434.41 664.27C1432.41 667.831 1429.48 670.795 1425.92 672.862C1422.37 674.928 1418.32 676.021 1414.2 676.024H1159.25C1155.13 676.021 1151.08 674.928 1147.53 672.862C1143.98 670.795 1141.04 667.831 1139.04 664.27Z" stroke="#DADADA" stroke-width="1.2" stroke-linecap="round" stroke-linejoin="round"/>
<path d="M783.579 652.783C759.815 652.783 737.023 661.656 720.222 677.45C703.419 693.245 693.977 714.667 693.977 737.006V814.176C693.964 815.106 694.15 816.029 694.52 816.888C694.894 817.75 695.446 818.533 696.146 819.188C696.845 819.846 697.676 820.366 698.593 820.714C699.506 821.066 700.49 821.238 701.477 821.226H783.579C795.346 821.226 806.994 819.047 817.866 814.815C828.736 810.583 838.615 804.38 846.935 796.558C855.256 788.736 861.854 779.454 866.358 769.233C870.861 759.016 873.177 748.064 873.177 737.006" stroke="#DADADA" stroke-width="1.2" stroke-linecap="round" stroke-linejoin="round"/>
<path d="M783.578 821.201C807.342 821.201 830.131 812.328 846.935 796.533C863.738 780.739 873.177 759.317 873.177 736.981V659.808C873.189 658.878 873.004 657.955 872.633 657.096C872.26 656.234 871.707 655.454 871.011 654.796C870.311 654.138 869.478 653.621 868.564 653.27C867.648 652.921 866.667 652.746 865.677 652.758H783.578C771.811 652.758 760.16 654.937 749.287 659.169C738.418 663.401 728.539 669.607 720.222 677.426C711.901 685.248 705.299 694.533 700.796 704.751C696.295 714.968 693.977 725.92 693.977 736.981" stroke="#DADADA" stroke-width="1.2" stroke-linecap="round" stroke-linejoin="round"/>
<path d="M1118.28 418.609L1183.41 357.888C1185.88 355.614 1187.88 352.682 1189.26 349.322C1190.65 345.959 1191.38 342.257 1191.4 338.497V284.161C1191.4 277.693 1189.28 271.487 1185.51 266.913C1181.75 262.343 1176.64 259.771 1171.31 259.771H1030.73C1025.41 259.771 1020.3 262.343 1016.53 266.913C1012.76 271.487 1010.65 277.693 1010.65 284.161V339.034V339.107C1010.67 342.867 1011.4 346.569 1012.78 349.932C1014.17 353.292 1016.17 356.224 1018.63 358.498L1084.64 418.609" stroke="#DADADA" stroke-width="1.2" stroke-linecap="round" stroke-linejoin="round"/>
<path d="M1118.28 418.609L1183.41 478.111C1185.88 480.286 1187.88 483.087 1189.26 486.303C1190.65 489.52 1191.38 493.062 1191.4 496.658V496.728V548.638C1191.4 554.827 1189.28 560.759 1185.51 565.134C1181.75 569.51 1176.64 571.97 1171.31 571.97H1030.73C1025.41 571.97 1020.3 569.51 1016.53 565.134C1012.76 560.759 1010.65 554.827 1010.65 548.638V496.074C1010.67 492.481 1011.4 488.935 1012.78 485.722C1014.17 482.506 1016.17 479.701 1018.63 477.526L1018.68 477.481L1084.64 418.609" stroke="#DADADA" stroke-width="1.2" stroke-linecap="round" stroke-linejoin="round"/>
<path d="M267.345 19.7461H50.152C47.065 19.7461 44.5625 22.2486 44.5625 25.3356V309.602C44.5625 312.689 47.065 315.192 50.152 315.192H267.345C270.432 315.192 272.934 312.689 272.934 309.602V25.3356C272.934 22.2486 270.432 19.7461 267.345 19.7461Z" stroke="#DADADA" stroke-width="1.2"/>
</svg>
