<svg width="39" height="33" viewBox="0 0 39 33" fill="none" xmlns="http://www.w3.org/2000/svg">
<path fill-rule="evenodd" clip-rule="evenodd" d="M1.35882 30.4085C1.11316 29.9726 0.989537 29.4799 1.00069 28.981C1.01183 28.4832 1.15677 27.9973 1.42061 27.5733L1.42229 27.5706L17.0134 2.35843C17.2624 1.94622 17.6148 1.60454 18.0367 1.36658C18.4621 1.12662 18.9434 1.00042 19.4331 1.00042C19.9228 1.00042 20.4041 1.12662 20.8295 1.36658C21.2514 1.60454 21.6038 1.94622 21.8528 2.35843L37.4439 27.5706L37.4459 27.5737C37.7095 27.9977 37.8544 28.4834 37.8655 28.981C37.8767 29.4799 37.753 29.9726 37.5074 30.4085C37.2617 30.8443 36.9029 31.2075 36.468 31.4605C36.0331 31.7134 35.5378 31.8471 35.0332 31.8477L3.83298 31.8477C3.3284 31.8471 2.83311 31.7134 2.39819 31.4605C1.96327 31.2075 1.60448 30.8443 1.35882 30.4085Z" stroke="#66D879" stroke-linecap="round" stroke-linejoin="round"/>
</svg>
