<svg width="64" height="53" viewBox="0 0 64 53" fill="none" xmlns="http://www.w3.org/2000/svg">
<path fill-rule="evenodd" clip-rule="evenodd" d="M0.61411 50.5273C0.193675 49.7784 -0.0179078 48.9318 0.00118677 48.0747C0.020241 47.2194 0.26831 46.3846 0.719856 45.656L0.722736 45.6514L27.4064 2.33325C27.8325 1.62502 28.4357 1.03796 29.1577 0.629114C29.8857 0.216826 30.7094 3.71991e-07 31.5476 3.35353e-07C32.3858 2.98716e-07 33.2095 0.216821 33.9376 0.629114C34.6595 1.03796 35.2628 1.62502 35.6888 2.33325L62.3725 45.6514L62.3758 45.6568C62.8271 46.3852 63.075 47.2197 63.0941 48.0747C63.1131 48.9318 62.9016 49.7784 62.4811 50.5273C62.0607 51.2761 61.4466 51.9001 60.7023 52.3347C59.9579 52.7694 59.1103 52.9991 58.2467 53L4.84854 53C3.98498 52.9991 3.1373 52.7694 2.39295 52.3347C1.64861 51.9001 1.03455 51.2761 0.61411 50.5273Z" fill="#66D879"/>
<path fill-rule="evenodd" clip-rule="evenodd" d="M0.61411 50.5273C0.193675 49.7784 -0.0179078 48.9318 0.00118677 48.0747C0.020241 47.2194 0.26831 46.3846 0.719856 45.656L0.722736 45.6514L27.4064 2.33325C27.8325 1.62502 28.4357 1.03796 29.1577 0.629114C29.8857 0.216826 30.7094 3.71991e-07 31.5476 3.35353e-07C32.3858 2.98716e-07 33.2095 0.216821 33.9376 0.629114C34.6595 1.03796 35.2628 1.62502 35.6888 2.33325L62.3725 45.6514L62.3758 45.6568C62.8271 46.3852 63.075 47.2197 63.0941 48.0747C63.1131 48.9318 62.9016 49.7784 62.4811 50.5273C62.0607 51.2761 61.4466 51.9001 60.7023 52.3347C59.9579 52.7694 59.1103 52.9991 58.2467 53L4.84854 53C3.98498 52.9991 3.1373 52.7694 2.39295 52.3347C1.64861 51.9001 1.03455 51.2761 0.61411 50.5273Z" fill="#66D879"/>
<ellipse cx="2.33091" cy="3.88485" rx="2.33091" ry="3.88485" transform="matrix(-1 0 0 1 29.6611 21.3555)" fill="white"/>
<ellipse cx="1.55394" cy="2.33091" rx="1.55394" ry="2.33091" transform="matrix(-1 0 0 1 29.6611 22.9043)" fill="black"/>
<ellipse cx="2.33091" cy="3.88485" rx="2.33091" ry="3.88485" transform="matrix(-1 0 0 1 37.4326 21.3555)" fill="white"/>
<ellipse cx="1.55394" cy="2.33091" rx="1.55394" ry="2.33091" transform="matrix(-1 0 0 1 35.877 22.9043)" fill="black"/>
<path d="M38.2409 34.9683C34.9755 33.9092 31.4698 35.6978 30.4107 38.9632" stroke="black" stroke-width="0.776969" stroke-linecap="round"/>
</svg>
