<svg width="37" height="31" viewBox="0 0 37 31" fill="none" xmlns="http://www.w3.org/2000/svg">
<path fill-rule="evenodd" clip-rule="evenodd" d="M0.358821 29.4085C0.113163 28.9726 -0.0104634 28.4799 0.000693426 27.981C0.0118267 27.4832 0.156772 26.9973 0.420608 26.5733L0.422291 26.5706L16.0134 1.35843C16.2624 0.946218 16.6148 0.604538 17.0367 0.36658C17.4621 0.126619 17.9434 0.000421038 18.4331 0.000421017C18.9228 0.000420995 19.4041 0.126616 19.8295 0.36658C20.2514 0.604538 20.6038 0.946221 20.8528 1.35843L36.4439 26.5706L36.4459 26.5737C36.7095 26.9977 36.8544 27.4834 36.8655 27.981C36.8767 28.4799 36.753 28.9726 36.5074 29.4085C36.2617 29.8443 35.9029 30.2075 35.468 30.4605C35.0331 30.7134 34.5378 30.8471 34.0332 30.8477L2.83298 30.8477C2.3284 30.8471 1.83311 30.7134 1.39819 30.4605C0.963273 30.2075 0.604479 29.8443 0.358821 29.4085Z" fill="#66D879"/>
</svg>
