<svg width="448" height="580" viewBox="0 0 448 580" fill="none" xmlns="http://www.w3.org/2000/svg">
<path d="M99 168.477C99 167.615 99.3707 166.795 100.018 166.225L105.75 161.178L109.125 158.207L109.969 157.464V157.464C110.07 157.363 110.065 157.198 109.958 157.104L100.5 148.797L99.8894 148.193C99.3202 147.629 99 146.862 99 146.061V137.436C99 135.779 100.343 134.436 102 134.436H113H123C124.657 134.436 126 135.779 126 137.436V146.417C126 147.299 125.612 148.136 124.939 148.706L115.035 157.097C114.922 157.192 114.92 157.366 115.031 157.464V157.464L115.875 158.207L119.25 161.178L124.982 166.225C125.629 166.795 126 167.615 126 168.477V176.998C126 178.655 124.657 179.998 123 179.998H102C100.343 179.998 99 178.655 99 176.998V168.477Z" fill="#FDF151"/>
<path d="M329 317.998C329 305.848 319.15 295.998 307 295.998V295.998H287.514C286.126 295.998 285 297.124 285 298.512V317.369C285 329.867 295.131 339.998 307.629 339.998H326.486C327.874 339.998 329 338.872 329 337.484V317.998V317.998Z" fill="#D68758"/>
<path d="M0 128.498C0 118.833 7.83502 110.998 17.5 110.998V110.998H33C34.1046 110.998 35 111.893 35 112.998V127.998C35 137.939 26.9411 145.998 17 145.998H2C0.89543 145.998 0 145.103 0 143.998V128.498V128.498Z" fill="#D68758"/>
<path d="M310 104.998C310 85.6681 325.67 69.998 345 69.998V69.998H376C378.209 69.998 380 71.7889 380 73.998V103.998C380 123.88 363.882 139.998 344 139.998H314C311.791 139.998 310 138.207 310 135.998V104.998V104.998Z" fill="#D68758"/>
<path d="M200.154 76.0019H160.009C159.226 76.0019 158.474 75.6907 157.92 75.1366C157.366 74.5825 157.055 73.831 157.055 73.0474V13.9565C157.055 13.1729 157.366 12.4214 157.92 11.8673C158.474 11.3132 159.226 11.002 160.009 11.002H219.1C219.884 11.002 220.635 11.3132 221.189 11.8673C221.743 12.4214 222.055 13.1729 222.055 13.9565V54.1014C222.056 54.485 221.982 54.8652 221.836 55.2201C221.69 55.575 221.476 55.8976 221.205 56.1696L202.222 75.1525C201.95 75.4231 201.628 75.6374 201.273 75.7832C200.918 75.9289 200.538 76.0033 200.154 76.0019V76.0019Z" fill="#3775F7"/>
<rect x="175.305" y="199.252" width="32.5" height="42.1076" rx="1.75" fill="#D9D9D9" stroke="#D9D9D9" stroke-width="0.5"/>
<path fill-rule="evenodd" clip-rule="evenodd" d="M253.614 493.527C253.194 492.778 252.982 491.932 253.001 491.075C253.02 490.219 253.268 489.385 253.72 488.656L253.723 488.651L280.406 445.333C280.832 444.625 281.436 444.038 282.158 443.629C282.886 443.217 283.709 443 284.548 443C285.386 443 286.209 443.217 286.938 443.629C287.66 444.038 288.263 444.625 288.689 445.333L315.373 488.651L315.376 488.657C315.827 489.385 316.075 490.22 316.094 491.075C316.113 491.932 315.902 492.778 315.481 493.527C315.061 494.276 314.447 494.9 313.702 495.335C312.958 495.769 312.11 495.999 311.247 496L257.849 496C256.985 495.999 256.137 495.769 255.393 495.335C254.649 494.9 254.035 494.276 253.614 493.527Z" fill="#66D879"/>
</svg>
