<svg width="410" height="395" viewBox="0 0 410 395" fill="none" xmlns="http://www.w3.org/2000/svg">
<path d="M153 265C153 252.85 143.15 243 131 243V243H111.514C110.126 243 109 244.126 109 245.514V264.371C109 276.869 119.131 287 131.629 287H150.486C151.874 287 153 285.874 153 284.486V265V265Z" fill="#D68758"/>
<path fill-rule="evenodd" clip-rule="evenodd" d="M27.2823 124.297C27.089 123.953 26.9918 123.564 27.0005 123.17C27.0093 122.777 27.1233 122.393 27.3309 122.058L27.3322 122.056L39.5966 102.146C39.7924 101.82 40.0697 101.551 40.4015 101.363C40.7362 101.173 41.1148 101.074 41.5 101.074C41.8852 101.074 42.2638 101.173 42.5985 101.363C42.9303 101.551 43.2076 101.82 43.4034 102.146L55.6678 122.056L55.6694 122.058C55.8768 122.393 55.9907 122.777 55.9995 123.17C56.0082 123.564 55.911 123.953 55.7177 124.297C55.5245 124.641 55.2423 124.928 54.9001 125.128C54.558 125.328 54.1684 125.433 53.7715 125.434L29.2285 125.434C28.8316 125.433 28.442 125.328 28.0999 125.128C27.7577 124.928 27.4755 124.641 27.2823 124.297Z" fill="#66D879"/>
<path d="M131.099 78.0742H90.9545C90.171 78.0742 89.4195 77.7629 88.8654 77.2088C88.3113 76.6548 88 75.9033 88 75.1197V16.0288C88 15.2452 88.3113 14.4937 88.8654 13.9396C89.4195 13.3855 90.171 13.0742 90.9545 13.0742H150.045C150.829 13.0742 151.581 13.3855 152.135 13.9396C152.689 14.4937 153 15.2452 153 16.0288V56.1736C153.001 56.5573 152.927 56.9374 152.781 57.2923C152.635 57.6472 152.421 57.9699 152.151 58.2418L133.168 77.2248C132.896 77.4954 132.573 77.7097 132.218 77.8555C131.863 78.0012 131.483 78.0755 131.099 78.0742Z" fill="#3775F7"/>
<rect x="202.25" y="294.324" width="37.4793" height="48.5366" rx="1.75" fill="#D9D9D9" stroke="#D9D9D9" stroke-width="0.5"/>
<path d="M313.499 205.111H341.909C342.464 205.111 342.995 204.891 343.388 204.499C343.78 204.107 344 203.575 344 203.02V161.202C344 160.648 343.78 160.116 343.388 159.724C342.995 159.332 342.464 159.111 341.909 159.111H300.091C299.536 159.111 299.005 159.332 298.612 159.724C298.22 160.116 298 160.648 298 161.202V189.612C297.999 189.884 298.052 190.153 298.155 190.404C298.258 190.655 298.41 190.884 298.601 191.076L312.035 204.51C312.228 204.702 312.456 204.853 312.707 204.957C312.958 205.06 313.227 205.112 313.499 205.111Z" fill="#3775F7"/>
<rect x="248.25" y="40.3242" width="61.5" height="79.5" rx="1.75" fill="#D9D9D9" stroke="#D9D9D9" stroke-width="0.5"/>
<path d="M214.157 255.014H190.725C190.267 255.014 189.829 254.833 189.505 254.509C189.182 254.186 189 253.747 189 253.29V218.799C189 218.341 189.182 217.903 189.505 217.579C189.829 217.256 190.267 217.074 190.725 217.074H225.216C225.673 217.074 226.112 217.256 226.435 217.579C226.759 217.903 226.94 218.341 226.94 218.799V242.231C226.941 242.455 226.898 242.677 226.813 242.884C226.728 243.091 226.602 243.28 226.444 243.438L215.364 254.519C215.205 254.677 215.017 254.802 214.81 254.887C214.603 254.972 214.381 255.015 214.157 255.014Z" fill="#3775F7"/>
</svg>
