<svg width="347" height="496" viewBox="0 0 347 496" fill="none" xmlns="http://www.w3.org/2000/svg">
<path d="M191 180.042C191 179.18 191.371 178.359 192.018 177.79L197.75 172.743L201.125 169.771L201.969 169.028V169.028C202.07 168.928 202.065 168.763 201.958 168.668L192.5 160.362L191.889 159.757C191.32 159.194 191 158.426 191 157.625V149C191 147.343 192.343 146 194 146H205H215C216.657 146 218 147.343 218 149V157.982C218 158.863 217.612 159.701 216.939 160.271L207.035 168.661C206.922 168.757 206.92 168.93 207.031 169.028V169.028L207.875 169.771L211.25 172.743L216.982 177.79C217.629 178.359 218 179.18 218 180.042V188.562C218 190.219 216.657 191.562 215 191.562H194C192.343 191.562 191 190.219 191 188.562V180.042Z" fill="#FDF151"/>
<path d="M105.407 107.702C105.407 106.205 106.051 104.781 107.175 103.791L115.185 96.7385L120.074 92.434L121.296 91.3579V91.3579C121.443 91.2125 121.436 90.973 121.28 90.8366L107.58 78.8037L106.952 78.1819C105.963 77.2032 105.407 75.87 105.407 74.479V63.2105C105.407 60.3328 107.74 58 110.618 58H125.687H139.308C142.186 58 144.518 60.3328 144.518 63.2105V74.9552C144.518 76.4868 143.844 77.9409 142.676 78.9309L128.635 90.8258C128.471 90.9644 128.468 91.2161 128.629 91.3579V91.3579L129.852 92.434L134.741 96.7385L142.751 103.791C143.875 104.781 144.518 106.205 144.518 107.702V118.789C144.518 121.667 142.186 124 139.308 124H110.618C107.74 124 105.407 121.667 105.407 118.789V107.702Z" stroke="#FDF151" stroke-width="1.73684"/>
<path d="M86 198.5C86 188.835 78.165 181 68.5 181V181H53C51.8954 181 51 181.895 51 183V198C51 207.941 59.0589 216 69 216H84C85.1046 216 86 215.105 86 214V198.5V198.5Z" fill="#D68758"/>
<path fill-rule="evenodd" clip-rule="evenodd" d="M34.6141 334.527C34.1937 333.778 33.9821 332.932 34.0012 332.075C34.0202 331.219 34.2683 330.385 34.7199 329.656L34.7227 329.651L61.4064 286.333C61.8325 285.625 62.4357 285.038 63.1577 284.629C63.8857 284.217 64.7094 284 65.5476 284C66.3858 284 67.2095 284.217 67.9376 284.629C68.6595 285.038 69.2628 285.625 69.6888 286.333L96.3725 329.651L96.3759 329.657C96.8271 330.385 97.075 331.22 97.0941 332.075C97.1131 332.932 96.9016 333.778 96.4811 334.527C96.0607 335.276 95.4466 335.9 94.7023 336.335C93.9579 336.769 93.1103 336.999 92.2467 337L38.8485 337C37.985 336.999 37.1373 336.769 36.393 336.335C35.6486 335.9 35.0345 335.276 34.6141 334.527Z" fill="#66D879"/>
<path fill-rule="evenodd" clip-rule="evenodd" d="M179.38 366.46C179.12 365.994 178.989 365.467 179.001 364.933C179.013 364.401 179.166 363.881 179.445 363.427L179.447 363.424L195.94 336.453C196.204 336.012 196.576 335.646 197.023 335.392C197.473 335.135 197.982 335 198.5 335C199.018 335 199.527 335.135 199.977 335.392C200.424 335.646 200.796 336.012 201.06 336.453L217.553 363.424L217.555 363.428C217.834 363.881 217.987 364.401 217.999 364.933C218.011 365.467 217.88 365.994 217.62 366.46C217.361 366.927 216.981 367.315 216.521 367.586C216.061 367.856 215.537 367.999 215.003 368L181.997 368C181.463 367.999 180.939 367.856 180.479 367.586C180.019 367.315 179.639 366.927 179.38 366.46Z" fill="#66D879"/>
<path fill-rule="evenodd" clip-rule="evenodd" d="M150.614 270.527C150.194 269.778 149.982 268.932 150.001 268.075C150.02 267.219 150.268 266.385 150.72 265.656L150.723 265.651L177.406 222.333C177.832 221.625 178.436 221.038 179.158 220.629C179.886 220.217 180.709 220 181.548 220C182.386 220 183.209 220.217 183.938 220.629C184.66 221.038 185.263 221.625 185.689 222.333L212.373 265.651L212.376 265.657C212.827 266.385 213.075 267.22 213.094 268.075C213.113 268.932 212.902 269.778 212.481 270.527C212.061 271.276 211.447 271.9 210.702 272.335C209.958 272.769 209.11 272.999 208.247 273L154.849 273C153.985 272.999 153.137 272.769 152.393 272.335C151.649 271.9 151.035 271.276 150.614 270.527Z" stroke="#66D879" stroke-width="2" stroke-linecap="round" stroke-linejoin="round"/>
<path d="M240.08 479.527H193.433C192.523 479.527 191.649 479.166 191.006 478.522C190.362 477.878 190 477.005 190 476.094V407.433C190 406.523 190.362 405.649 191.006 405.006C191.649 404.362 192.523 404 193.433 404H262.094C263.005 404 263.878 404.362 264.522 405.006C265.166 405.649 265.527 406.523 265.527 407.433V454.08C265.529 454.526 265.443 454.967 265.273 455.38C265.104 455.792 264.855 456.167 264.54 456.483L242.483 478.54C242.167 478.855 241.792 479.104 241.38 479.273C240.967 479.443 240.526 479.529 240.08 479.527V479.527Z" stroke="#3775F7" stroke-width="2" stroke-linecap="round" stroke-linejoin="round"/>
<rect x="282.095" y="64" width="41" height="53.519" rx="1" stroke="#D9D9D9" stroke-width="2"/>
<path d="M202.5 1H224.2C225.194 1.00011 226 1.80585 226 2.7998V23.7998C226 37.1651 215.165 48 201.8 48H180.8C179.806 47.9999 179 47.1942 179 46.2002V24.5C179 11.5213 189.521 1 202.5 1Z" stroke="#D68758" stroke-width="2"/>
<path d="M304.5 218H288.114C287.499 218 287 218.499 287 219.114V234.972C287 244.928 295.072 253 305.028 253H320.886C321.501 253 322 252.501 322 251.886V235.5C322 225.835 314.165 218 304.5 218Z" stroke="#D68758" stroke-width="2"/>
</svg>
