<svg width="348" height="495" viewBox="0 0 348 495" fill="none" xmlns="http://www.w3.org/2000/svg">
<path d="M182 253.5C182 234.446 197.446 219 216.5 219V219H247.057C249.235 219 251 220.765 251 222.943V252.514C251 272.113 235.113 288 215.514 288H185.943C183.765 288 182 286.235 182 284.057V253.5V253.5Z" fill="#D68758"/>
<path d="M163 336C163 323.85 153.15 314 141 314V314H121.514C120.126 314 119 315.126 119 316.514V335.371C119 347.869 129.131 358 141.629 358H160.486C161.874 358 163 356.874 163 355.486V336V336Z" fill="#D68758"/>
<path fill-rule="evenodd" clip-rule="evenodd" d="M153.33 144.223C153.137 143.879 153.039 143.49 153.048 143.096C153.057 142.702 153.171 142.319 153.378 141.984L153.38 141.982L165.644 122.072C165.84 121.746 166.117 121.476 166.449 121.289C166.784 121.099 167.162 120.999 167.548 120.999C167.933 120.999 168.311 121.099 168.646 121.289C168.978 121.476 169.255 121.746 169.451 122.072L181.715 141.982L181.717 141.984C181.924 142.319 182.038 142.703 182.047 143.096C182.056 143.49 181.959 143.879 181.765 144.223C181.572 144.567 181.29 144.854 180.948 145.054C180.606 145.253 180.216 145.359 179.819 145.359L155.276 145.359C154.879 145.359 154.49 145.253 154.147 145.054C153.805 144.854 153.523 144.567 153.33 144.223Z" fill="#66D879"/>
<path fill-rule="evenodd" clip-rule="evenodd" d="M298.429 380.087C298.103 379.508 297.938 378.853 297.953 378.19C297.968 377.528 298.161 376.882 298.511 376.319L298.514 376.315L319.236 342.805C319.567 342.257 320.036 341.803 320.596 341.487C321.162 341.168 321.801 341 322.452 341C323.103 341 323.743 341.168 324.308 341.487C324.869 341.803 325.338 342.257 325.668 342.805L346.391 376.315L346.394 376.319C346.744 376.883 346.937 377.528 346.951 378.19C346.966 378.853 346.802 379.508 346.475 380.087C346.149 380.666 345.672 381.149 345.094 381.485C344.516 381.822 343.858 381.999 343.187 382L301.718 382C301.047 381.999 300.389 381.822 299.811 381.485C299.233 381.149 298.756 380.666 298.429 380.087Z" stroke="#66D879" stroke-width="2" stroke-linecap="round" stroke-linejoin="round"/>
<path fill-rule="evenodd" clip-rule="evenodd" d="M0.33011 191.223C0.136869 190.879 0.0396207 190.49 0.048397 190.096C0.0571548 189.702 0.171173 189.319 0.378714 188.984L0.380037 188.982L12.6445 169.072C12.8403 168.746 13.1175 168.476 13.4494 168.289C13.784 168.099 14.1626 167.999 14.5479 167.999C14.9331 167.999 15.3117 168.099 15.6463 168.289C15.9782 168.476 16.2554 168.746 16.4512 169.072L28.7157 188.982L28.7172 188.984C28.9246 189.319 29.0386 189.703 29.0473 190.096C29.0561 190.49 28.9588 190.879 28.7656 191.223C28.5724 191.567 28.2901 191.854 27.948 192.054C27.6059 192.253 27.2163 192.359 26.8194 192.359L2.27635 192.359C1.87944 192.359 1.48983 192.253 1.14771 192.054C0.80559 191.854 0.523352 191.567 0.33011 191.223Z" fill="#66D879"/>
<path d="M110.147 169H70.0024C69.2188 169 68.4673 168.689 67.9132 168.135C67.3591 167.581 67.0479 166.829 67.0479 166.045V106.955C67.0479 106.171 67.3591 105.419 67.9132 104.865C68.4673 104.311 69.2188 104 70.0024 104H129.093C129.877 104 130.628 104.311 131.182 104.865C131.737 105.419 132.048 106.171 132.048 106.955V147.099C132.049 147.483 131.975 147.863 131.829 148.218C131.683 148.573 131.469 148.896 131.198 149.168L112.215 168.151C111.944 168.421 111.621 168.635 111.266 168.781C110.911 168.927 110.531 169.001 110.147 169Z" fill="#3775F7"/>
<path fill-rule="evenodd" clip-rule="evenodd" d="M301.448 230.18C301.141 229.629 300.987 229.006 301.001 228.376C301.015 227.746 301.196 227.132 301.525 226.596L301.527 226.593L320.981 194.717C321.291 194.196 321.731 193.764 322.258 193.463C322.788 193.16 323.389 193 324 193C324.611 193 325.212 193.16 325.742 193.463C326.269 193.764 326.709 194.196 327.019 194.717L346.473 226.593L346.476 226.596C346.805 227.132 346.985 227.747 346.999 228.376C347.013 229.006 346.859 229.629 346.552 230.18C346.246 230.732 345.798 231.191 345.255 231.51C344.713 231.83 344.095 231.999 343.465 232L304.535 232C303.905 231.999 303.287 231.83 302.745 231.51C302.202 231.191 301.754 230.732 301.448 230.18Z" fill="#66D879"/>
</svg>
