<svg width="411" height="395" viewBox="0 0 411 395" fill="none" xmlns="http://www.w3.org/2000/svg">
<path d="M65 330.702C65 329.205 65.6438 327.781 66.7673 326.791L74.7778 319.738L79.6667 315.434L80.8889 314.358V314.358C81.0357 314.212 81.0286 313.973 80.8733 313.837L67.1728 301.804L66.5447 301.182C65.5562 300.203 65 298.87 65 297.479V286.211C65 283.333 67.3328 281 70.2105 281H85.2798H98.9006C101.778 281 104.111 283.333 104.111 286.211V297.955C104.111 299.487 103.437 300.941 102.269 301.931L88.2273 313.826C88.0636 313.964 88.0612 314.216 88.2222 314.358V314.358L89.4444 315.434L94.3333 319.738L102.344 326.791C103.467 327.781 104.111 329.205 104.111 330.702V341.789C104.111 344.667 101.778 347 98.9006 347H70.2105C67.3328 347 65 344.667 65 341.789V330.702Z" stroke="#FDF151" stroke-width="1.73684"/>
<path d="M109 206.737C109 204.997 109.748 203.34 111.055 202.19L122.63 191.999L129.444 185.999L131.148 184.499V184.499C131.353 184.296 131.343 183.962 131.126 183.772L112.029 166.999L110.796 165.778C109.647 164.641 109 163.091 109 161.474V144.058C109 140.712 111.712 138 115.058 138H137.269H157.461C160.806 138 163.519 140.712 163.519 144.058V162.193C163.519 163.974 162.735 165.664 161.376 166.815L141.377 183.757C141.149 183.95 141.146 184.301 141.37 184.499V184.499L143.074 185.999L149.889 191.999L161.464 202.19C162.77 203.34 163.519 204.997 163.519 206.737V223.942C163.519 227.288 160.806 230 157.461 230H115.058C111.712 230 109 227.288 109 223.942V206.737Z" fill="#FDF151"/>
<path d="M235 260.368C235 259.498 235.374 258.67 236.027 258.095L241.815 253L245.222 249.999L246.074 249.249V249.249C246.176 249.148 246.171 248.981 246.063 248.886L236.514 240.5L235.898 239.889C235.323 239.32 235 238.545 235 237.737V229.029C235 227.356 236.356 226 238.029 226H249.134H259.23C260.903 226 262.259 227.356 262.259 229.029V238.097C262.259 238.987 261.868 239.832 261.188 240.408L251.189 248.879C251.075 248.975 251.073 249.151 251.185 249.249V249.249L252.037 249.999L255.444 253L261.232 258.095C261.885 258.67 262.259 259.498 262.259 260.368V268.971C262.259 270.644 260.903 272 259.23 272H238.029C236.356 272 235 270.644 235 268.971V260.368Z" fill="#FDF151"/>
<path d="M242 17.5C242 7.83502 234.165 0 224.5 0V0H209C207.895 0 207 0.895431 207 2V17C207 26.9411 215.059 35 225 35H240C241.105 35 242 34.1046 242 33V17.5V17.5Z" fill="#D68758"/>
<path fill-rule="evenodd" clip-rule="evenodd" d="M160.38 73.4604C160.12 72.9941 159.989 72.467 160.001 71.9333C160.013 71.4008 160.166 70.881 160.445 70.4273L160.447 70.4244L176.94 43.4528C177.204 43.0118 177.576 42.6463 178.023 42.3917C178.473 42.135 178.982 42 179.5 42C180.018 42 180.527 42.135 180.977 42.3917C181.424 42.6463 181.796 43.0118 182.06 43.4528L198.553 70.4244L198.555 70.4278C198.834 70.8813 198.987 71.4009 198.999 71.9333C199.011 72.467 198.88 72.9941 198.62 73.4604C198.361 73.9267 197.981 74.3151 197.521 74.5858C197.061 74.8564 196.537 74.9994 196.003 75L162.997 75C162.463 74.9994 161.939 74.8564 161.479 74.5858C161.019 74.3151 160.639 73.9267 160.38 73.4604Z" fill="#66D879"/>
<path fill-rule="evenodd" clip-rule="evenodd" d="M169.837 390.641C169.264 389.624 168.976 388.473 169.002 387.309C169.028 386.147 169.366 385.013 169.981 384.023L169.985 384.017L206.355 325.17C206.936 324.208 207.758 323.41 208.742 322.855C209.735 322.295 210.858 322 212 322C213.142 322 214.265 322.295 215.258 322.855C216.242 323.41 217.064 324.208 217.645 325.17L254.015 384.017L254.019 384.024C254.635 385.014 254.972 386.148 254.998 387.309C255.024 388.473 254.736 389.624 254.163 390.641C253.59 391.658 252.753 392.506 251.738 393.096C250.724 393.687 249.568 393.999 248.391 394L175.609 394C174.432 393.999 173.276 393.687 172.262 393.096C171.247 392.506 170.41 391.658 169.837 390.641Z" stroke="#66D879" stroke-width="2" stroke-linecap="round" stroke-linejoin="round"/>
<path d="M26.4475 238.527H73.0943C74.0048 238.527 74.878 238.166 75.5218 237.522C76.1656 236.878 76.5273 236.005 76.5273 235.094V166.433C76.5273 165.523 76.1656 164.649 75.5218 164.006C74.878 163.362 74.0048 163 73.0943 163H4.43299C3.52248 163 2.64927 163.362 2.00544 164.006C1.36162 164.649 0.999926 165.523 0.999926 166.433V213.08C0.998363 213.526 1.08474 213.967 1.2541 214.38C1.42347 214.792 1.67249 215.167 1.98693 215.483L24.0444 237.54C24.3604 237.855 24.7353 238.104 25.1476 238.273C25.56 238.443 26.0017 238.529 26.4475 238.527V238.527Z" stroke="#3775F7" stroke-width="2" stroke-linecap="round" stroke-linejoin="round"/>
<rect x="273" y="130" width="41" height="53.519" rx="1" stroke="#D9D9D9" stroke-width="2"/>
<path d="M386 108.352H363.857C363.026 108.352 362.352 109.026 362.352 109.857V131.286C362.352 144.741 373.259 155.648 386.714 155.648H408.143C408.974 155.648 409.648 154.974 409.648 154.143V132C409.648 118.939 399.061 108.352 386 108.352Z" stroke="#D68758" stroke-width="2.7027"/>
</svg>
