<svg width="347" height="496" viewBox="0 0 347 496" fill="none" xmlns="http://www.w3.org/2000/svg">
<path d="M189 121.5C189 111.835 196.835 104 206.5 104V104H222C223.105 104 224 104.895 224 106V121C224 130.941 215.941 139 206 139H191C189.895 139 189 138.105 189 137V121.5V121.5Z" fill="#D68758"/>
<path d="M67 62.9035C67 62.3289 67.2471 61.7821 67.6784 61.4024L73.8148 55.9996L77.2222 52.9995L78.0741 52.2495V52.2495C78.1764 52.1481 78.1714 51.9812 78.0632 51.8861L68.5144 43.4995L67.5929 42.5873C67.2135 42.2117 67 41.6999 67 41.166V31C67 29.8954 67.8954 29 69 29H81.1344H92.2593C93.3638 29 94.2593 29.8954 94.2593 31V41.5734C94.2593 42.1613 94.0006 42.7194 93.552 43.0994L83.1887 51.8786C83.0746 51.9752 83.0729 52.1506 83.1852 52.2495V52.2495L84.037 52.9995L87.4444 55.9996L93.5809 61.4024C94.0121 61.7821 94.2593 62.3289 94.2593 62.9035V73C94.2593 74.1046 93.3638 75 92.2593 75H69C67.8954 75 67 74.1046 67 73V62.9035Z" fill="#FDF151"/>
<path d="M223 341.904C223 341.329 223.247 340.782 223.678 340.402L229.815 335L233.222 331.999L234.074 331.249V331.249C234.176 331.148 234.171 330.981 234.063 330.886L224.514 322.5L223.593 321.587C223.213 321.212 223 320.7 223 320.166V310C223 308.895 223.895 308 225 308H237.134H248.259C249.364 308 250.259 308.895 250.259 310V320.573C250.259 321.161 250.001 321.719 249.552 322.099L239.189 330.879C239.075 330.975 239.073 331.151 239.185 331.249V331.249L240.037 331.999L243.444 335L249.581 340.402C250.012 340.782 250.259 341.329 250.259 341.904V352C250.259 353.105 249.364 354 248.259 354H225C223.895 354 223 353.105 223 352V341.904Z" fill="#FDF151"/>
<path d="M94 282.593C94 281.434 94.4986 280.331 95.3687 279.565L107.75 268.664L114.625 262.61L116.344 261.097V261.097C116.55 260.893 116.54 260.556 116.322 260.364L97.0556 243.443L95.1963 241.602C94.4307 240.844 94 239.812 94 238.734V218.223C94 215.994 95.8067 214.188 98.0353 214.188H122.519H144.965C147.193 214.188 149 215.994 149 218.223V239.556C149 240.743 148.478 241.869 147.573 242.635L126.663 260.349C126.433 260.544 126.43 260.898 126.656 261.097V261.097L128.375 262.61L135.25 268.664L147.631 279.565C148.501 280.331 149 281.434 149 282.593V302.965C149 305.193 147.193 307 144.965 307H98.0353C95.8067 307 94 305.193 94 302.965V282.593Z" fill="#FDF151"/>
<rect x="237.25" y="446.287" width="37.4793" height="48.5366" rx="1.75" fill="#D9D9D9" stroke="#D9D9D9" stroke-width="0.5"/>
<path d="M316.499 90.0371H344.909C345.464 90.0371 345.995 89.8168 346.388 89.4247C346.78 89.0326 347 88.5007 347 87.9462V46.128C347 45.5735 346.78 45.0416 346.388 44.6495C345.995 44.2574 345.464 44.0371 344.909 44.0371H303.091C302.536 44.0371 302.005 44.2574 301.612 44.6495C301.22 45.0416 301 45.5735 301 46.128V74.5382C300.999 74.8097 301.052 75.0788 301.155 75.3299C301.258 75.5811 301.41 75.8094 301.601 76.0019L315.035 89.436C315.228 89.6275 315.456 89.7791 315.707 89.8823C315.958 89.9854 316.227 90.038 316.499 90.0371Z" fill="#3775F7"/>
<rect x="230.25" y="128.287" width="61.5" height="79.5" rx="1.75" fill="#D9D9D9" stroke="#D9D9D9" stroke-width="0.5"/>
<path d="M137.783 423.977H161.216C161.673 423.977 162.112 423.796 162.435 423.472C162.759 423.149 162.94 422.71 162.94 422.253V387.762C162.94 387.304 162.759 386.866 162.435 386.542C162.112 386.219 161.673 386.037 161.216 386.037H126.725C126.267 386.037 125.829 386.219 125.505 386.542C125.182 386.866 125 387.304 125 387.762V411.194C124.999 411.418 125.043 411.64 125.128 411.847C125.213 412.054 125.338 412.243 125.496 412.401L136.576 423.482C136.735 423.64 136.923 423.765 137.13 423.85C137.338 423.935 137.56 423.978 137.783 423.977Z" fill="#3775F7"/>
<path d="M193.157 330.94H169.725C169.267 330.94 168.829 330.759 168.505 330.435C168.182 330.112 168 329.673 168 329.216V294.725C168 294.267 168.182 293.829 168.505 293.505C168.829 293.182 169.267 293 169.725 293H204.216C204.673 293 205.112 293.182 205.435 293.505C205.759 293.829 205.94 294.267 205.94 294.725V318.157C205.941 318.381 205.898 318.603 205.813 318.81C205.728 319.017 205.602 319.205 205.444 319.364L194.364 330.444C194.205 330.602 194.017 330.728 193.81 330.813C193.603 330.898 193.381 330.941 193.157 330.94Z" fill="#3775F7"/>
<rect x="130.25" y="159.25" width="37.4793" height="48.5366" rx="1.75" fill="#D9D9D9" stroke="#D9D9D9" stroke-width="0.5"/>
<path d="M308.173 360H337.818C338.397 360 338.952 359.77 339.361 359.361C339.77 358.952 340 358.397 340 357.818V314.182C340 313.603 339.77 313.048 339.361 312.639C338.952 312.23 338.397 312 337.818 312H294.182C293.603 312 293.048 312.23 292.639 312.639C292.23 313.048 292 313.603 292 314.182V343.827C291.999 344.111 292.054 344.391 292.162 344.653C292.269 344.915 292.427 345.154 292.627 345.355L306.645 359.373C306.846 359.573 307.085 359.731 307.347 359.838C307.609 359.946 307.889 360.001 308.173 360Z" fill="#3775F7"/>
</svg>
