<svg width="410" height="395" viewBox="0 0 410 395" fill="none" xmlns="http://www.w3.org/2000/svg">
<path d="M206 101.904C206 101.329 206.247 100.782 206.678 100.402L212.815 94.9996L216.222 91.9995L217.074 91.2495V91.2495C217.176 91.1481 217.171 90.9812 217.063 90.8861L207.514 82.4995L206.593 81.5873C206.213 81.2117 206 80.6999 206 80.166V70C206 68.8954 206.895 68 208 68H220.134H231.259C232.364 68 233.259 68.8954 233.259 70V80.5734C233.259 81.1613 233.001 81.7194 232.552 82.0994L222.189 90.8786C222.075 90.9752 222.073 91.1506 222.185 91.2495V91.2495L223.037 91.9995L226.444 94.9996L232.581 100.402C233.012 100.782 233.259 101.329 233.259 101.904V112C233.259 113.105 232.364 114 231.259 114H208C206.895 114 206 113.105 206 112V101.904Z" fill="#FDF151"/>
<path d="M3 84.9035C3 84.3289 3.24712 83.7821 3.67836 83.4024L9.81481 77.9996L13.2222 74.9995L14.0741 74.2495V74.2495C14.1764 74.1481 14.1714 73.9812 14.0632 73.8861L4.5144 65.4995L3.59292 64.5873C3.21349 64.2117 3 63.6999 3 63.166V53C3 51.8954 3.89543 51 5 51H17.1344H28.2593C29.3638 51 30.2593 51.8954 30.2593 53V63.5734C30.2593 64.1613 30.0006 64.7194 29.552 65.0994L19.1887 73.8786C19.0746 73.9752 19.0729 74.1506 19.1852 74.2495V74.2495L20.037 74.9995L23.4444 77.9996L29.5809 83.4024C30.0121 83.7821 30.2593 84.3289 30.2593 84.9035V95C30.2593 96.1046 29.3638 97 28.2593 97H5C3.89543 97 3 96.1046 3 95V84.9035Z" fill="#FDF151"/>
<path d="M171 171.5C171 152.446 186.446 137 205.5 137V137H236.057C238.235 137 240 138.765 240 140.943V170.514C240 190.113 224.113 206 204.514 206H174.943C172.765 206 171 204.235 171 202.057V171.5V171.5Z" fill="#D68758"/>
<path d="M61 139C61 129.611 68.6112 122 78 122V122H93.0571C94.1302 122 95 122.87 95 123.943V138.514C95 148.171 87.1714 156 77.5143 156H62.9429C61.8698 156 61 155.13 61 154.057V139V139Z" fill="#D68758"/>
<path fill-rule="evenodd" clip-rule="evenodd" d="M159.223 271.942C159.029 271.597 158.932 271.208 158.941 270.814C158.95 270.421 159.064 270.038 159.271 269.703L159.273 269.701L171.537 249.791C171.733 249.465 172.01 249.195 172.342 249.007C172.677 248.818 173.055 248.718 173.44 248.718C173.826 248.718 174.204 248.818 174.539 249.007C174.871 249.195 175.148 249.465 175.344 249.791L187.608 269.701L187.61 269.703C187.817 270.038 187.931 270.421 187.94 270.814C187.949 271.208 187.851 271.597 187.658 271.942C187.465 272.286 187.183 272.573 186.841 272.772C186.498 272.972 186.109 273.078 185.712 273.078L161.169 273.078C160.772 273.078 160.382 272.972 160.04 272.772C159.698 272.573 159.416 272.286 159.223 271.942Z" fill="#66D879"/>
<path d="M332.724 93.659H356.156C356.613 93.659 357.052 93.4773 357.376 93.1539C357.699 92.8305 357.881 92.3918 357.881 91.9345V57.4433C357.881 56.9859 357.699 56.5473 357.376 56.2239C357.052 55.9004 356.613 55.7188 356.156 55.7188H321.665C321.208 55.7188 320.769 55.9004 320.445 56.2239C320.122 56.5473 319.94 56.9859 319.94 57.4433V80.8757C319.94 81.0997 319.983 81.3216 320.068 81.5287C320.153 81.7359 320.278 81.9242 320.436 82.0829L331.516 93.1632C331.675 93.3212 331.864 93.4463 332.071 93.5313C332.278 93.6164 332.5 93.6598 332.724 93.659Z" fill="#3775F7"/>
<rect x="145.19" y="82.9688" width="37.4793" height="48.5366" rx="1.75" fill="#D9D9D9" stroke="#D9D9D9" stroke-width="0.5"/>
<path fill-rule="evenodd" clip-rule="evenodd" d="M241.388 214.899C241.082 214.348 240.927 213.725 240.941 213.094C240.955 212.465 241.136 211.851 241.465 211.315L241.467 211.311L260.921 179.436C261.232 178.915 261.672 178.483 262.198 178.182C262.729 177.878 263.329 177.719 263.94 177.719C264.552 177.719 265.152 177.878 265.683 178.182C266.209 178.483 266.649 178.915 266.96 179.436L286.414 211.311L286.416 211.315C286.745 211.851 286.926 212.465 286.94 213.094C286.953 213.725 286.799 214.348 286.493 214.899C286.186 215.45 285.739 215.909 285.196 216.229C284.653 216.549 284.035 216.718 283.406 216.719L244.475 216.719C243.846 216.718 243.228 216.549 242.685 216.229C242.142 215.909 241.695 215.45 241.388 214.899Z" fill="#66D879"/>
<path fill-rule="evenodd" clip-rule="evenodd" d="M38.5545 263.246C38.1341 262.497 37.9225 261.651 37.9416 260.793C37.9607 259.938 38.2087 259.103 38.6603 258.375L38.6632 258.37L65.3469 215.052C65.7729 214.344 66.3761 213.757 67.0981 213.348C67.8262 212.936 68.6499 212.719 69.488 212.719C70.3262 212.719 71.1499 212.936 71.878 213.348C72.6 213.757 73.2032 214.344 73.6292 215.052L100.313 258.37L100.316 258.376C100.768 259.104 101.015 259.938 101.034 260.793C101.054 261.651 100.842 262.497 100.422 263.246C100.001 263.995 99.3871 264.619 98.6427 265.053C97.8984 265.488 97.0507 265.718 96.1871 265.719L42.789 265.719C41.9254 265.718 41.0777 265.488 40.3334 265.053C39.589 264.619 38.975 263.995 38.5545 263.246Z" fill="#66D879"/>
</svg>
