<svg width="448" height="580" viewBox="0 0 448 580" fill="none" xmlns="http://www.w3.org/2000/svg">
<path d="M170 148.5C170 138.835 162.165 131 152.5 131V131H137C135.895 131 135 131.895 135 133V148C135 157.941 143.059 166 153 166H168C169.105 166 170 165.105 170 164V148.5V148.5Z" fill="#D68758"/>
<path d="M310 47.8859C310 47.4011 310.209 46.9398 310.572 46.6194L316.75 41.1803L320.125 38.2087L320.969 37.4658V37.4658C321.07 37.3654 321.065 37.2001 320.958 37.106L311.5 28.7991L310.5 27.8094C310.18 27.4925 310 27.0607 310 26.6102V16.125C310 15.193 310.756 14.4375 311.687 14.4375H324H335.312C336.244 14.4375 337 15.193 337 16.125V27.0273C337 27.5234 336.782 27.9943 336.403 28.3149L326.035 37.0985C325.922 37.1942 325.92 37.368 326.031 37.4658V37.4658L326.875 38.2087L330.25 41.1803L336.428 46.6194C336.791 46.9398 337 47.4011 337 47.8859V58.3125C337 59.2445 336.244 60 335.313 60H311.688C310.756 60 310 59.2445 310 58.3125V47.8859Z" fill="#FDF151"/>
<path d="M187 456.448C187 455.964 187.209 455.502 187.572 455.182L193.75 449.743L197.125 446.771L197.969 446.028V446.028C198.07 445.928 198.065 445.763 197.958 445.668L188.5 437.362L187.5 436.372C187.18 436.055 187 435.623 187 435.173V424.688C187 423.756 187.756 423 188.687 423H201H212.312C213.244 423 214 423.756 214 424.687V435.59C214 436.086 213.782 436.557 213.403 436.877L203.035 445.661C202.922 445.757 202.92 445.93 203.031 446.028V446.028L203.875 446.771L207.25 449.743L213.428 455.182C213.791 455.502 214 455.964 214 456.448V466.875C214 467.807 213.244 468.562 212.313 468.562H188.688C187.756 468.562 187 467.807 187 466.875V456.448Z" fill="#FDF151"/>
<path d="M368 197.448C368 196.964 368.209 196.502 368.572 196.182L374.75 190.743L378.125 187.771L378.969 187.028V187.028C379.07 186.928 379.065 186.763 378.958 186.668L369.5 178.362L368.5 177.372C368.18 177.055 368 176.623 368 176.173V165.688C368 164.756 368.756 164 369.687 164H382H393.312C394.244 164 395 164.756 395 165.687V176.59C395 177.086 394.782 177.557 394.403 177.877L384.035 186.661C383.922 186.757 383.92 186.93 384.031 187.028V187.028L384.875 187.771L388.25 190.743L394.428 196.182C394.791 196.502 395 196.964 395 197.448V207.875C395 208.807 394.244 209.562 393.313 209.562H369.688C368.756 209.562 368 208.807 368 207.875V197.448Z" fill="#FDF151"/>
<path fill-rule="evenodd" clip-rule="evenodd" d="M371.448 148.18C371.141 147.629 370.987 147.006 371.001 146.376C371.015 145.746 371.196 145.132 371.525 144.596L371.527 144.593L390.981 112.717C391.291 112.196 391.731 111.764 392.258 111.463C392.788 111.16 393.389 111 394 111C394.611 111 395.212 111.16 395.742 111.463C396.269 111.764 396.709 112.196 397.019 112.717L416.473 144.593L416.476 144.596C416.805 145.132 416.985 145.747 416.999 146.376C417.013 147.006 416.859 147.629 416.552 148.18C416.246 148.732 415.798 149.191 415.255 149.51C414.713 149.83 414.095 149.999 413.465 150L374.535 150C373.905 149.999 373.287 149.83 372.745 149.51C372.202 149.191 371.754 148.732 371.448 148.18Z" fill="#66D879"/>
<path d="M308.157 185.94H284.725C284.267 185.94 283.829 185.759 283.505 185.435C283.182 185.112 283 184.673 283 184.216V149.725C283 149.267 283.182 148.829 283.505 148.505C283.829 148.182 284.267 148 284.725 148H319.216C319.673 148 320.112 148.182 320.435 148.505C320.759 148.829 320.94 149.267 320.94 149.725V173.157C320.941 173.381 320.898 173.603 320.813 173.81C320.728 174.017 320.602 174.205 320.444 174.364L309.364 185.444C309.205 185.602 309.017 185.728 308.81 185.813C308.603 185.898 308.381 185.941 308.157 185.94V185.94Z" fill="#3775F7"/>
<path d="M53.7834 138.94H77.2159C77.6733 138.94 78.1119 138.759 78.4353 138.435C78.7587 138.112 78.9404 137.673 78.9404 137.216V102.725C78.9404 102.267 78.7587 101.829 78.4353 101.505C78.1119 101.182 77.6733 101 77.2159 101H42.7247C42.2673 101 41.8287 101.182 41.5053 101.505C41.1818 101.829 41.0002 102.267 41.0002 102.725V126.157C40.9994 126.381 41.0428 126.603 41.1278 126.81C41.2129 127.017 41.338 127.205 41.496 127.364L52.5762 138.444C52.735 138.602 52.9233 138.728 53.1305 138.813C53.3376 138.898 53.5595 138.941 53.7834 138.94V138.94Z" fill="#3775F7"/>
<path d="M333.783 274.94H357.216C357.673 274.94 358.112 274.759 358.435 274.435C358.759 274.112 358.94 273.673 358.94 273.216V238.725C358.94 238.267 358.759 237.829 358.435 237.505C358.112 237.182 357.673 237 357.216 237H322.725C322.267 237 321.829 237.182 321.505 237.505C321.182 237.829 321 238.267 321 238.725V262.157C320.999 262.381 321.043 262.603 321.128 262.81C321.213 263.017 321.338 263.205 321.496 263.364L332.576 274.444C332.735 274.602 332.923 274.728 333.13 274.813C333.338 274.898 333.56 274.941 333.783 274.94V274.94Z" fill="#3775F7"/>
<path fill-rule="evenodd" clip-rule="evenodd" d="M103.614 119.527C103.194 118.778 102.982 117.932 103.001 117.075C103.02 116.219 103.268 115.385 103.72 114.656L103.723 114.651L130.406 71.3333C130.832 70.625 131.436 70.038 132.158 69.6291C132.886 69.2168 133.709 69 134.548 69C135.386 69 136.209 69.2168 136.938 69.6291C137.66 70.038 138.263 70.625 138.689 71.3333L165.373 114.651L165.376 114.657C165.827 115.385 166.075 116.22 166.094 117.075C166.113 117.932 165.902 118.778 165.481 119.527C165.061 120.276 164.447 120.9 163.702 121.335C162.958 121.769 162.11 121.999 161.247 122L107.849 122C106.985 121.999 106.137 121.769 105.393 121.335C104.649 120.9 104.035 120.276 103.614 119.527Z" fill="#66D879"/>
<path fill-rule="evenodd" clip-rule="evenodd" d="M65.876 167.43C65.6828 167.086 65.5855 166.697 65.5943 166.303C65.6031 165.91 65.7171 165.526 65.9246 165.191L65.9259 165.189L78.1904 145.279C78.3862 144.953 78.6634 144.683 78.9953 144.496C79.3299 144.306 79.7085 144.206 80.0937 144.206C80.479 144.206 80.8576 144.306 81.1922 144.496C81.5241 144.683 81.8013 144.953 81.9971 145.279L94.2616 165.189L94.2631 165.191C94.4705 165.526 94.5844 165.91 94.5932 166.303C94.602 166.697 94.5047 167.086 94.3115 167.43C94.1183 167.774 93.836 168.061 93.4939 168.261C93.1518 168.46 92.7622 168.566 92.3653 168.566L67.8223 168.566C67.4253 168.566 67.0357 168.46 66.6936 168.261C66.3515 168.061 66.0693 167.774 65.876 167.43Z" fill="#66D879"/>
<rect x="240.23" y="62.0977" width="57.5196" height="74.4114" rx="1.75" fill="#D9D9D9" stroke="#D9D9D9" stroke-width="0.5"/>
<path fill-rule="evenodd" clip-rule="evenodd" d="M239.38 287.46C239.12 286.994 238.989 286.467 239.001 285.933C239.013 285.401 239.166 284.881 239.445 284.427L239.447 284.424L255.94 257.453C256.204 257.012 256.576 256.646 257.023 256.392C257.473 256.135 257.982 256 258.5 256C259.018 256 259.527 256.135 259.977 256.392C260.424 256.646 260.796 257.012 261.06 257.453L277.553 284.424L277.555 284.428C277.834 284.881 277.987 285.401 277.999 285.933C278.011 286.467 277.88 286.994 277.62 287.46C277.361 287.927 276.981 288.315 276.521 288.586C276.061 288.856 275.537 288.999 275.003 289L241.997 289C241.463 288.999 240.939 288.856 240.479 288.586C240.019 288.315 239.639 287.927 239.38 287.46Z" fill="#66D879"/>
</svg>
