<svg width="45" height="44" viewBox="0 0 45 44" fill="none" xmlns="http://www.w3.org/2000/svg">
<path fill-rule="evenodd" clip-rule="evenodd" d="M33.7876 29.8796C36.725 26.1573 38.1094 21.4749 37.6591 16.7849C37.2088 12.0949 34.9576 7.74964 31.3636 4.63319C27.7695 1.51674 23.1026 -0.136832 18.3122 0.00887162C13.5218 0.154575 8.96786 2.08861 5.57673 5.41752C2.18266 8.74874 0.208586 13.2267 0.0568097 17.9389C-0.0949672 22.651 1.58697 27.2427 4.75987 30.7783C7.93278 34.3139 12.3578 36.5272 17.1333 36.9673C21.9088 37.4073 26.6753 36.041 30.4615 33.1467L30.5628 33.2509L40.5553 43.0751C40.7742 43.2902 41.034 43.4608 41.3199 43.5773C41.6059 43.6937 41.9124 43.7536 42.2219 43.7536C42.5314 43.7536 42.8379 43.6937 43.1239 43.5773C43.4098 43.4608 43.6696 43.2902 43.8885 43.0751C44.1074 42.86 44.281 42.6046 44.3994 42.3235C44.5179 42.0424 44.5788 41.7412 44.5788 41.4369C44.5788 41.1327 44.5179 40.8315 44.3994 40.5504C44.281 40.2693 44.1074 40.0139 43.8885 39.7988L33.8936 29.9769L33.7876 29.8796ZM28.8974 8.6938C30.2273 9.97995 31.2851 11.5122 32.0096 13.2022C32.7341 14.8922 33.111 16.7064 33.1186 18.5403C33.1262 20.3742 32.7643 22.1914 32.0539 23.8871C31.3434 25.5828 30.2984 27.1235 28.9791 28.4202C27.6598 29.717 26.0923 30.7442 24.3672 31.4425C22.642 32.1409 20.7932 32.4966 18.9275 32.4891C17.0617 32.4816 15.216 32.1111 13.4966 31.399C11.7773 30.6869 10.2184 29.6472 8.90993 28.3399C6.29501 25.7274 4.83626 22.2051 4.85144 18.5403C4.86662 14.8754 6.3545 11.3649 8.99099 8.77347C11.6275 6.18201 15.199 4.71953 18.9275 4.70461C22.656 4.68969 26.2395 6.12353 28.8974 8.6938Z" fill="gray"/>
</svg>
