<svg width="46" height="78" viewBox="0 0 46 78" fill="none" xmlns="http://www.w3.org/2000/svg">
<path d="M23.8696 40.0119L5.12893 22.9749C4.82443 22.6945 4.57713 22.3331 4.40612 21.9185C4.2351 21.5039 4.14494 21.0472 4.14258 20.5837V7.13348C4.14258 6.34076 4.40238 5.58051 4.86482 5.01997C5.32726 4.45944 5.95447 4.14453 6.60846 4.14453H41.1308C41.7848 4.14453 42.412 4.45944 42.8744 5.01997C43.3369 5.58051 43.5967 6.34076 43.5967 7.13348V20.4343C43.5943 20.8978 43.5041 21.3545 43.3331 21.769C43.1621 22.1836 42.9148 22.545 42.6103 22.8254L23.8696 40.0119Z" fill="#FDF151"/>
<path fill-rule="evenodd" clip-rule="evenodd" d="M2.01478 2.28251C2.949 1.17746 4.21609 0.556641 5.53728 0.556641H40.4083C41.7295 0.556641 42.9965 1.17745 43.9308 2.28251C44.865 3.38757 45.3898 4.88635 45.3898 6.44913V19.5781C45.3851 20.4862 45.204 21.3809 44.8607 22.1932C44.5173 23.0055 44.0208 23.7136 43.4095 24.263L24.4756 41.2074C23.5897 42.0002 22.367 42.0032 21.4783 41.2148L2.53606 24.4103C1.92469 23.861 1.42822 23.1528 1.08487 22.3405C0.741517 21.5282 0.560491 20.6335 0.555759 19.7254L0.555664 19.7072L0.555711 6.44913C0.555711 4.88634 1.08056 3.38757 2.01478 2.28251ZM40.4083 6.44913H5.53728V19.6909C5.53752 19.6959 5.53862 19.7008 5.54052 19.7053C5.54242 19.7098 5.54508 19.7138 5.54833 19.717L22.9662 35.1692L40.396 19.5709C40.3959 19.571 40.3962 19.5707 40.396 19.5709C40.3996 19.5675 40.403 19.5629 40.405 19.558C40.4069 19.5535 40.408 19.5486 40.4083 19.5436V6.44913Z" fill="#FDF151"/>
<path d="M23.8696 40.0117L5.12893 57.0487C4.82443 57.3291 4.57713 57.6905 4.40612 58.1051C4.2351 58.5197 4.14494 58.9764 4.14258 59.4399V72.8901C4.14258 73.6828 4.40238 74.4431 4.86482 75.0036C5.32726 75.5642 5.95447 75.8791 6.60846 75.8791H41.1308C41.7848 75.8791 42.412 75.5642 42.8744 75.0036C43.3369 74.4431 43.5967 73.6828 43.5967 72.8901V59.5893C43.5943 59.1258 43.5041 58.6691 43.3331 58.2546C43.1621 57.84 42.9148 57.4785 42.6103 57.1982L23.8696 40.0117Z" fill="#FDF151"/>
<path fill-rule="evenodd" clip-rule="evenodd" d="M21.4783 37.0131C22.367 36.2247 23.5896 36.2277 24.4755 37.0205L43.4094 53.9649C44.0208 54.5143 44.5173 55.2224 44.8606 56.0347C45.204 56.847 45.385 57.7417 45.3897 58.6498L45.3898 58.668L45.3898 71.7788C45.3898 73.3416 44.865 74.8403 43.9307 75.9454C42.9965 77.0505 41.7294 77.6713 40.4082 77.6713H5.53723C4.21604 77.6713 2.94896 77.0505 2.01473 75.9454C1.08051 74.8403 0.555664 73.3416 0.555664 71.7788V58.5025C0.560396 57.5944 0.74147 56.6997 1.08482 55.8874C1.42818 55.0751 1.92468 54.367 2.53604 53.8176L2.54826 53.8066L21.4783 37.0131ZM5.53723 58.537C5.53747 58.532 5.53857 58.5271 5.54047 58.5226C5.54237 58.5181 5.54503 58.5141 5.54827 58.5109L22.9662 43.0587L40.396 58.657C40.3958 58.6569 40.3961 58.6572 40.396 58.657C40.3996 58.6604 40.4029 58.665 40.405 58.6699C40.4056 58.6715 40.4062 58.6731 40.4067 58.6747C40.4075 58.6778 40.4081 58.681 40.4082 58.6843V71.7788H5.53723V58.537Z" fill="#FDF151"/>
<ellipse cx="3.85405" cy="5.13873" rx="3.85405" ry="5.13873" transform="matrix(-1 0 0 1 21.875 8)" fill="white"/>
<ellipse cx="2.31243" cy="2.56936" rx="2.31243" ry="2.56936" transform="matrix(-1 0 0 1 21.4375 11.5195)" fill="black"/>
<ellipse cx="3.85405" cy="5.13873" rx="3.85405" ry="5.13873" transform="matrix(-1 0 0 1 32.668 8)" fill="white"/>
<ellipse cx="2.31243" cy="2.56936" rx="2.31243" ry="2.56936" transform="matrix(-1 0 0 1 30.2451 11.5195)" fill="black"/>
<path d="M18.8864 19.8431C18.8864 19.8431 20.2171 23.3326 23.1869 23.302C26.1568 23.2714 27.284 20.0337 27.284 20.0337" stroke="black" stroke-width="0.719422" stroke-linecap="round" stroke-linejoin="round"/>
</svg>
