<svg width="25" height="40" viewBox="0 0 25 40" fill="none" xmlns="http://www.w3.org/2000/svg">
<path d="M1 29.6164C1 28.7545 1.37067 27.9343 2.01754 27.3647L6.62963 23.304L9.44444 20.8257L10.1481 20.2061V20.2061C10.2327 20.1223 10.2286 19.9845 10.1391 19.9059L2.25103 12.9779L1.88938 12.6199C1.32023 12.0564 1 11.2888 1 10.4879V4C1 2.34315 2.34315 1 4 1H12.6763H20.5185C22.1754 1 23.5185 2.34315 23.5185 4V10.7621C23.5185 11.6439 23.1305 12.4811 22.4577 13.0511L14.3733 19.8997C14.279 19.9795 14.2777 20.1244 14.3704 20.2061V20.2061L15.0741 20.8257L17.8889 23.304L22.501 27.3647C23.1478 27.9343 23.5185 28.7545 23.5185 29.6164V36C23.5185 37.6569 22.1754 39 20.5185 39H4C2.34315 39 1 37.6569 1 36V29.6164Z" stroke="#FDF151"/>
</svg>
