<svg width="23" height="38" viewBox="0 0 23 38" fill="none" xmlns="http://www.w3.org/2000/svg">
<path d="M0 27.8966C0 27.4923 0.173896 27.1075 0.477364 26.8403L5.62963 22.304L8.44444 19.8257L9.14815 19.2061V19.2061C9.2327 19.1223 9.22857 18.9845 9.13915 18.9059L1.25103 11.9779L0.417241 11.1524C0.150232 10.8881 0 10.528 0 10.1523V1.40741C0 0.630119 0.630118 0 1.40741 0H11.6763H21.1111C21.8884 0 22.5185 0.630118 22.5185 1.40741V10.5002C22.5185 10.9139 22.3365 11.3066 22.0208 11.574L13.3733 18.8997C13.279 18.9795 13.2777 19.1244 13.3704 19.2061V19.2061L14.0741 19.8257L16.8889 22.304L22.0412 26.8403C22.3446 27.1075 22.5185 27.4923 22.5185 27.8966V36.5926C22.5185 37.3699 21.8884 38 21.1111 38H1.40741C0.630119 38 0 37.3699 0 36.5926V27.8966Z" fill="#FDF151"/>
</svg>
